/* XPM */
static char *result[] = {
/* columns rows colors chars-per-pixel */
"32 32 19 1 ",
"  c #0C9C06",
". c #0CA606",
"X c #0CA906",
"o c #0CAF05",
"O c #0CAF06",
"+ c #0CB805",
"@ c #55BC0A",
"# c #0CC005",
"$ c #55C40A",
"% c #55CC0A",
"& c #75C90E",
"* c #75D00E",
"= c #75D70E",
"- c #A0EB14",
"; c #81C160",
": c #81C960",
"> c #97CD61",
", c #97DB61",
"< c None",
/* pixels */
"<<<<<<<<<<<<<<<<<<<<<<<<<<<<<<<<",
"<<<<<<<<<<<<<<<<<<<<<<<<<<<<<<<<",
"<<<<<<<<<<<<<<<<<<<<<<<<<<<<<<<<",
"<<<<<<<<<<<<<<<<<<<<<<<<<<<<<<<<",
"<<<<<<<<<<<<<<<<<<<<<<<<<<<<<<<<",
"<<<<<<<<<<<<<<<<<<<<<<<<<<<<<<<<",
"<<<<<<<<<<<<<<<<<<<<<<<<<<<<<<<<",
"<<<<<<<<<<<<<<<<<<<<<<<<<<<<<<<<",
"<<<<<<<<<<<<<<<<<<<<<<<<<<<<<<<<",
"<<<<<<<<<<<<<<<<<<<<<<<<<<<<<<<<",
"<<<<<<<<<<<<<<<<<<<<<<<<<<<<<<<<",
"<<<<<<<<<<<<<<<<<<<<<<<<<<<<<<<<",
"<<<<<<<<<<<<<<<<<<<<<<<<<<<<<<<<",
"<<<<<<<<<<<<< .=$<<<<<<<<<<<<<<<",
"<<<<<<<<<<<< *$++oX<<<<<<<<<<<<<",
"<<<<<<<<<<< +;$o:@&<<<<<<<<<<<<<",
"<<<<<<<<<<< #oo%*;o <<<<<<<<<<<<",
"<<<<<<<<<<< -&&+@@> <<<<<<<<<<<<",
"<<<<<<<<<<< #o$%%;, <<<<<<<<<<<<",
"<<<<<<<<<<< .o$&*@.<<<<<<<<<<<<<",
"<<<<<<<<<<<< @@=$X<<<<<<<<<<<<<<",
"<<<<<<<<<<<<<< #O<<<<<<<<<<<<<<<",
"<<<<<<<<<<<<<<<<<<<<<<<<<<<<<<<<",
"<<<<<<<<<<<<<<<<<<<<<<<<<<<<<<<<",
"<<<<<<<<<<<<<<<<<<<<<<<<<<<<<<<<",
"<<<<<<<<<<<<<<<<<<<<<<<<<<<<<<<<",
"<<<<<<<<<<<<<<<<<<<<<<<<<<<<<<<<",
"<<<<<<<<<<<<<<<<<<<<<<<<<<<<<<<<",
"<<<<<<<<<<<<<<<<<<<<<<<<<<<<<<<<",
"<<<<<<<<<<<<<<<<<<<<<<<<<<<<<<<<",
"<<<<<<<<<<<<<<<<<<<<<<<<<<<<<<<<",
"<<<<<<<<<<<<<<<<<<<<<<<<<<<<<<<<"
};
