/* XPM */
static char *result[] = {
/* columns rows colors chars-per-pixel */
"32 32 14 1 ",
"  c #0C9C06",
". c #0CA906",
"X c #0CAF05",
"o c #0CB805",
"O c #55B40A",
"+ c #55BC0A",
"@ c #0CC005",
"# c #55CC0A",
"$ c #75C90E",
"% c #75D00E",
"& c #75D70E",
"* c #81C160",
"= c #B1DF85",
"- c None",
/* pixels */
"--------------------------------",
"--------------------------------",
"--------------------------------",
"--------------------------------",
"--------------------------------",
"--------------------------------",
"--------------------------------",
"--------------------------------",
"--------------------------------",
"--------------------------------",
"--------------------------------",
"--------------------------------",
"--------------------------------",
"--------------------------------",
"-----------        -------------",
"---------.X+%&$XX=X O ----------",
"-------- X&++& #&$$X* ----------",
"---------.XoX @&&& X+ ----------",
"------------       -------------",
"--------------------------------",
"--------------------------------",
"--------------------------------",
"--------------------------------",
"--------------------------------",
"--------------------------------",
"--------------------------------",
"--------------------------------",
"--------------------------------",
"--------------------------------",
"--------------------------------",
"--------------------------------",
"--------------------------------"
};
