/* XPM */
static char *result[] = {
/* columns rows colors chars-per-pixel */
"32 32 22 1 ",
"  c #0C9C06",
". c #0CA606",
"X c #0CA906",
"o c #0CAF05",
"O c #0CB805",
"+ c #55B40A",
"@ c #55BC0A",
"# c #0CC005",
"$ c #55C40A",
"% c #55CC0A",
"& c #75C90E",
"* c #75D00E",
"= c #75D70E",
"- c #8DDB11",
"; c #81C160",
": c #97CD61",
"> c #97D461",
", c #A9DF62",
"< c #A9E561",
"1 c #B8EF62",
"2 c #B1D185",
"3 c None",
/* pixels */
"33333333333333333333333333333333",
"33333333333333333333333333333333",
"33333333333333333333333333333333",
"33333333333333333333333333333333",
"33333333333333333333333333333333",
"33333333333333333333333333333333",
"33333333333333333333333333333333",
"33333333333333333333333333333333",
"333333333333333.X333333333333333",
"33333333333333 %% 33333333333333",
"3333333333333 o@-o33333333333333",
"3333333333333 oOo$33333333333333",
"3333333333333 @#O, 3333333333333",
"3333333333333 &%%: 3333333333333",
"3333333333333+o>*@X3333333333333",
"333333333333 @2@ooo3333333333333",
"333333333333  o#ooo3333333333333",
"333333333333 .o-@o@3333333333333",
"333333333333 &@&o&&3333333333333",
"333333333333 2@o;&&3333333333333",
"333333333333 o2%1@o3333333333333",
"333333333333 &o%#oo3333333333333",
"3333333333333 *&@= 3333333333333",
"3333333333333 &-*o 3333333333333",
"3333333333333 O$%@ 3333333333333",
"3333333333333 @@@*33333333333333",
"33333333333333.<<X33333333333333",
"33333333333333 OO333333333333333",
"333333333333333 3333333333333333",
"33333333333333333333333333333333",
"33333333333333333333333333333333",
"33333333333333333333333333333333"
};
