/* XPM */
static char *_e3801dbc3cc4e51fdcae1d38be226e16rJBclltLLFRullz[] = {
/* columns rows colors chars-per-pixel */
"32 32 90 1 ",
"  c black",
". c #010100",
"X c #0B0A00",
"o c #1A1800",
"O c #171500",
"+ c #181600",
"@ c #090800",
"# c #020100",
"$ c #625B00",
"% c yellow",
"& c #FFF200",
"* c #FFF900",
"= c #FFF100",
"- c #4F4900",
"; c #141300",
": c #262300",
"> c #817800",
", c #FFFD00",
"< c #F6E300",
"1 c #FBE900",
"2 c #F5E300",
"3 c #FFFC00",
"4 c #746B00",
"5 c #282500",
"6 c #110F00",
"7 c #3A3600",
"8 c #FCEA00",
"9 c #FFED00",
"0 c #FFEC00",
"q c #FFF300",
"w c #0E0D00",
"e c #7E7400",
"r c #FFF500",
"t c #F6E400",
"y c #292600",
"u c #FCE900",
"i c #2A2700",
"p c #F4E200",
"a c #1E1B00",
"s c #F9E600",
"d c #FBE800",
"f c #FFFA00",
"g c #080700",
"h c #998E00",
"j c #A89B00",
"k c #FDEA00",
"l c #FEEB00",
"z c #A39700",
"x c #978C00",
"c c #0D0C00",
"v c #0C0B00",
"b c #F9E700",
"n c #FAE700",
"m c #FFEF00",
"M c #FFF400",
"N c #FFEE00",
"B c #E4D300",
"V c #E8D700",
"C c #F7E500",
"Z c #948900",
"A c #A69A00",
"S c #FAE800",
"D c #9D9100",
"F c #161400",
"G c #AEA100",
"H c #FFFB00",
"J c #FDEB00",
"K c #928700",
"L c #A49800",
"P c #FFFE00",
"I c #AB9E00",
"U c #B6A900",
"Y c #BBAD00",
"T c #413C00",
"R c #5E5700",
"E c #413D00",
"W c #C7B800",
"Q c #FFF000",
"! c #B3A600",
"~ c #A99C00",
"^ c #FFF600",
"/ c #2B2700",
"( c #F7E400",
") c #F8E500",
"_ c #1E1C00",
"` c #100F00",
"' c #8A8000",
"] c #393500",
"[ c #191700",
"{ c white",
/* pixels */
"     .                     .    ",
"    . XoO+++++++++++++++Oo@ .   ",
"   .# $%&***************=%- ..  ",
"  ..;:>,<11111111111111123456.. ",
" .  7%=8900000000000000098q%5  .",
"  w-ert9000000000000000009tq4-@ ",
". y%*u90000000000000000000983%o ",
". irp90000000000000000000009<=a ",
"  w%s00000000000000000000000df  ",
"ghjqk00000000000000000000000l=zx",
"c%,k0000000000000000000000000l%%",
"v0b000000000000000000000000000dn",
"v=l00000000000000000000000000000",
"v=l00000000000000000000000000000",
"v=l00000000000000000000000000000",
"v=l0000lll0000000000000000000000",
"v=l00lmMqMNl00000000000000000000",
"v=l00N<BVBCN00000000000000000000",
"v=l0n%Z # A%d0000000000000000000",
"v9S0S%D F G%1000000000000000001d",
"c%HJS%K   L%d0000000000000000lP%",
"@IU&nHYTREW*8000000000000000lQ!~",
"  w%b8^%%%Mk0000000000000000df  ",
"# /^p9u()(k90000000000000009<=_ ",
". y%*u9000000000000000000098,%o ",
"  `$'&t9000000000000000009t=>$X ",
" .  ]%&u90000000000000009ur%:  .",
"  ..[]'*psk00000000000ksp*e7;#. ",
"   .. $%^%&J000000000kq%r%- ..  ",
"    . `y/wUHSlllllllb,jwiyw .   ",
"     .    I%9=======0%h    .    ",
"       .# @cvvvvvvvvvcg ..      "
};
