/* XPM */
static char *b46b57532a2b4f64b2c76982a2fa781c4oNk1zAAyZ7ZI3Ts[] = {
/* columns rows colors chars-per-pixel */
"32 32 118 2 ",
"   c black",
".  c #010100",
"X  c #A99C00",
"o  c yellow",
"O  c #FBE800",
"+  c #FFEC00",
"@  c #FAE700",
"#  c #978C00",
"$  c #0B0A00",
"%  c #1A1800",
"&  c #1E1C00",
"*  c #B3A600",
"=  c #FFFE00",
"-  c #FBE900",
";  c #A39700",
":  c #1E1B00",
">  c #090800",
",  c #020100",
"<  c #625B00",
"1  c #FFF100",
"2  c #FFFA00",
"3  c #FFF000",
"4  c #FEEB00",
"5  c #4F4900",
"6  c #141300",
"7  c #262300",
"8  c #817800",
"9  c #FFFD00",
"0  c #F6E300",
"q  c #FFFC00",
"w  c #746B00",
"e  c #282500",
"r  c #110F00",
"t  c #3A3600",
"y  c #FCEA00",
"u  c #FFED00",
"i  c #FDEA00",
"p  c #FFF900",
"a  c #FFF300",
"s  c #0E0D00",
"d  c #7E7400",
"f  c #FFF500",
"g  c #F6E400",
"h  c #FFF400",
"j  c #C7B800",
"k  c #A49800",
"l  c #ACA000",
"z  c #AC9F00",
"x  c #292600",
"c  c #FCE900",
"v  c #F7E400",
"b  c #413D00",
"n  c #F2E000",
"m  c #2A2700",
"M  c #F4E200",
"N  c #F8E500",
"B  c #5E5700",
"V  c #121100",
"C  c #100F00",
"Z  c #080800",
"A  c #F4E100",
"S  c #F5E300",
"D  c #171500",
"F  c #F9E600",
"G  c #413C00",
"H  c #181600",
"J  c #080700",
"K  c #998E00",
"L  c #A89B00",
"P  c #FFF600",
"I  c #BBAD00",
"U  c #928700",
"Y  c #9B9000",
"T  c #9A8F00",
"R  c #FAE800",
"E  c #FFEE00",
"W  c #0D0C00",
"Q  c #FFFB00",
"!  c #0C0B00",
"~  c #F9E700",
"^  c #171600",
"/  c #FDEB00",
"(  c #191700",
")  c #847A00",
"_  c #1D1B00",
"`  c #020200",
"'  c #726900",
"]  c #DACA00",
"[  c #070700",
"{  c #010000",
"}  c #060600",
"|  c #FFF700",
" . c #D8C800",
".. c #E1D100",
"X. c #242200",
"o. c #383400",
"O. c #343000",
"+. c #332F00",
"@. c #393500",
"#. c #050500",
"$. c #040400",
"%. c #FFEF00",
"&. c #766D00",
"*. c #AB9E00",
"=. c #B6A900",
"-. c #FFF200",
";. c #F8E600",
":. c #A09400",
">. c #433E00",
",. c #585100",
"<. c #544E00",
"1. c #534D00",
"2. c #595200",
"3. c #2B2700",
"4. c #EEDC00",
"5. c #161500",
"6. c #8A8000",
"7. c white",
/* pixels */
"          .         X o O + + + + + + + @ o #         .         ",
"        .   $ % &   * = - + + + + + + + O o ;   : % >   .       ",
"      . ,   < o 1 2 3 4 + + + + + + + + + 4 1 2 1 o 5   . .     ",
"    . . 6 7 8 9 0 - O O O O O + + + + + + + 4 O 0 q w e r . .   ",
"  .     t o 1 y u i p o o o o u + + + + + + + + u y a o e     . ",
"    s 5 d f g u y h j k l z X O u + + + + + + + + u g a w 5 >   ",
".   x o p c u + v o b         n 3 + + + + + + + + + u y q o %   ",
".   m f M u + + N o B   V C Z A 3 + + + + + + + + + + u S 1 D   ",
"    s o F + + + v o G         n 3 + + + + + + + + + + + - p H   ",
"J K L a i + + + c P I U Y T # R E + + + + + + + + + + + - p H   ",
"W o 9 i + + + + u y Q o o o o u + + + + + + + + + + + + - p H   ",
"! + ~ + + + + + + + c @ R @ @ + + + + + + + + + + + + + - p H   ",
"! 1 4 + + + + + + + + + + + + + + + + + + + + + i O - - N f ^   ",
"! 1 4 + + + + + + + + + + + + + + + + + + + + / a 2 p p f o (   ",
"! 1 4 + + + + + + + + + + + + + + + + u u u R o )   _ H H ( `   ",
"! 1 4 + + + + + + + + + + + + + + + + i i i g o '               ",
"! 1 4 + + + + + + + + + + + + + 4 P ]   [ ` ` ` . { . . . .     ",
"! 1 4 + + + + + + + + + + + + + 4 P ]   } . . .                 ",
"! 1 4 + + + + + + + + + + + + + 4 |  .            .             ",
"! u R + + + + + + + + + + + + + 4 h ..X.o.O.+.@.%   #.$.$.$.    ",
"W o Q / + + + + + + + + + + + + + 4 %.o o o 2 o &.            . ",
"> *.=.-.i + + + + + + + + + + + + + 4 N ;.;.M P :.>.,.<.1.2.J   ",
"    s o F + + + + + + + + + + + + + + + + + u c 2 o o o o o %   ",
",   3.P M u + + + + + + + + + + + + + + + + + u O v N ;.4.i 5.  ",
".   x o p c u + + + + + + + + + + + + + + + + + + + u y 9 o %   ",
"    C < 6.-.g u + + + + + + + + + + + + + + + + + u g 1 8 < $   ",
"  .     @.o -.c u + + + + + + + + + + + + + + + u c f o 7     . ",
"    . . ( @.6.p M F i + + + + + + + + + + + i F M p d t 6 , .   ",
"      . .   < o P o -./ + + + + + + + + + i a o f o 5   . .     ",
"        .   C x 3.s =.Q R 4 4 4 4 4 4 4 ~ 9 L s m x s   .       ",
"          .         *.o u 1 1 1 1 1 1 1 + o K         .         ",
"              . ,   > W ! ! ! ! ! ! ! ! ! W J   . .             "
};
