/* XPM */
static char *_9260d82b4a84a5dea7de64eab12c98dcTHOZZvwZc1lONQe[] = {
/* columns rows colors chars-per-pixel */
"32 32 127 2 ",
"   c black",
".  c #010100",
"X  c #A99C00",
"o  c yellow",
"O  c #FBE800",
"+  c #FFEC00",
"@  c #FAE700",
"#  c #978C00",
"$  c #0B0A00",
"%  c #1A1800",
"&  c #1E1C00",
"*  c #B3A600",
"=  c #FFFE00",
"-  c #FBE900",
";  c #A39700",
":  c #1E1B00",
">  c #090800",
",  c #020100",
"<  c #625B00",
"1  c #FFF100",
"2  c #FFFA00",
"3  c #FFF000",
"4  c #FEEB00",
"5  c #4F4900",
"6  c #141300",
"7  c #262300",
"8  c #817800",
"9  c #FFFD00",
"0  c #F6E300",
"q  c #F5E300",
"w  c #FFFC00",
"e  c #746B00",
"r  c #282500",
"t  c #110F00",
"y  c #3A3600",
"u  c #FCEA00",
"i  c #FFED00",
"p  c #FFEF00",
"a  c #FFF800",
"s  c #FDEA00",
"d  c #FFF300",
"f  c #0E0D00",
"g  c #7E7400",
"h  c #FFF500",
"j  c #F6E400",
"k  c #F3E100",
"l  c #A59800",
"z  c #AFA200",
"x  c #CCBD00",
"c  c #FFF400",
"v  c #292600",
"b  c #FFF900",
"n  c #FCE900",
"m  c #FFF700",
"M  c #D6C600",
"N  c #544E00",
"B  c #F7E500",
"V  c #232100",
"C  c #EDDB00",
"Z  c #F9E600",
"A  c #F8E500",
"S  c #FFF600",
"D  c #DCCC00",
"F  c #181700",
"G  c #6E6600",
"H  c #F8E600",
"J  c #0F0E00",
"K  c #6D6500",
"L  c #635C00",
"P  c #655E00",
"I  c #696100",
"U  c #554F00",
"Y  c #F4E200",
"T  c #F0DE00",
"R  c #928700",
"E  c #9E9200",
"W  c #918600",
"Q  c #C2B400",
"!  c #8B8100",
"~  c #050500",
"^  c #050400",
"/  c #070600",
"(  c #4A4400",
")  c #423D00",
"_  c #433E00",
"`  c #443F00",
"'  c #3E3A00",
"]  c #FAE800",
"[  c #020200",
"{  c #EFDD00",
"}  c #030300",
"|  c #040400",
" . c #171500",
".. c #191800",
"X. c #3A3500",
"o. c #1F1D00",
"O. c #F9E700",
"+. c #1D1B00",
"@. c #393400",
"#. c #332F00",
"$. c #343000",
"%. c #353100",
"&. c #2E2B00",
"*. c #F2E000",
"=. c #FFFB00",
"-. c #0C0B00",
";. c #5A5400",
":. c #524C00",
">. c #585200",
",. c #AC9F00",
"<. c #F5E200",
"1. c #F7E400",
"2. c #100F00",
"3. c #8A8000",
"4. c #FFF200",
"5. c #393500",
"6. c #191700",
"7. c #FDEB00",
"8. c #2B2700",
"9. c #B6A900",
"0. c #A89B00",
"q. c #2A2700",
"w. c #AB9E00",
"e. c #998E00",
"r. c #0D0C00",
"t. c #080700",
"y. c white",
/* pixels */
"          .         X o O + + + + + + + @ o #         .         ",
"        .   $ % &   * = - + + + + + + + O o ;   : % >   .       ",
"      . ,   < o 1 2 3 4 + + + + + + + + + 4 1 2 1 o 5   . .     ",
"    . . 6 7 8 9 0 O 4 + + + + + + + 4 O O O O - q w e r t . .   ",
"  .     y o 1 u i + + + + + + + + 4 p o o o a s i u d o r     . ",
"    f 5 g h j i + + + + + + + + + p k l z ; x c u i j d e 5 >   ",
".   v o b n i + + + + + + + + + 4 m M       N o B + i u w o %   ",
".   V p C Z A B n i + + + + + + 4 S D   F   G o H + + i 0 1 :   ",
".   v o o o o o a n i + + + + + 4 m M       N o B + + + O 2     ",
"    J K L P I U * d Y A A A B + + 3 T R E W Q S n + + + 4 1 ; # ",
"  .             ! o = o o o o i + 4 p o o o b u i + + + + 4 o o ",
"    . ~ ^ ~ /   7 ( ) _ _ ` ' j p + 4 @ ] @ n + + + + + + + O @ ",
"              [               { i O n + + + + + + + + + + + + + ",
"                , } } } } |   i 9 b m 4 + + + + + + + + + + + + ",
"                               ...f X.w @ + + + + + + + + + + + ",
"                                    o.= O.+ + + + + + + + + + + ",
"                                    o.= O.+ + + + + + + + + + + ",
"                . [ [ [ [ [ .  ...f X.w @ + + + + + + + + + + + ",
"              ,               i 9 b m 4 + + + + + + + + + + + + ",
"    . | | | ~   +.@.#.$.$.%.&.*.+ O n + + + + + + + + + + + - O ",
"  .             ! o =.o o o o i + + + + + + + + + + + + + 4 = o ",
"    -.;.:.N >.) ,.h <.H H H H + + + + + + + + + + + + + 4 3 * X ",
".   v o o o o o a n i + + + + + + + + + + + + + + + + + O 2     ",
".   V p C H A 1.n i + + + + + + + + + + + + + + + + + i 0 1 &   ",
".   v o b n i + + + + + + + + + + + + + + + + + + + i u 9 o %   ",
"    2.< 3.4.j i + + + + + + + + + + + + + + + + + i j 1 8 < $   ",
"  .     5.o 4.n i + + + + + + + + + + + + + + + i n h o 7     . ",
"    . . 6.5.3.b Y Z s + + + + + + + + + + + s Z Y b g y 6 , .   ",
"      . .   < o S o 4.7.+ + + + + + + + + s d o h o 5   . .     ",
"        .   2.v 8.f 9.=.] 4 4 4 4 4 4 4 O.9 0.f q.v f   .       ",
"          .         w.o i 1 1 1 1 1 1 1 + o e.        .         ",
"              . ,   > r.-.-.-.-.-.-.-.-.-.r.t.  . .             "
};
