/* XPM */
static char *a9ef632f1d654733de5b683146a719caJPklHliQquxwkyJB[] = {
/* columns rows colors chars-per-pixel */
"32 32 129 2 ",
"   c black",
".  c #010100",
"X  c #A99C00",
"o  c yellow",
"O  c #FBE800",
"+  c #FFEC00",
"@  c #FAE700",
"#  c #978C00",
"$  c #0B0A00",
"%  c #1A1800",
"&  c #1E1C00",
"*  c #B3A600",
"=  c #FFFE00",
"-  c #FBE900",
";  c #A39700",
":  c #1E1B00",
">  c #090800",
",  c #020100",
"<  c #625B00",
"1  c #FFF100",
"2  c #FFFA00",
"3  c #FFF000",
"4  c #FEEB00",
"5  c #4F4900",
"6  c #141300",
"7  c #262300",
"8  c #817800",
"9  c #FFFD00",
"0  c #F6E300",
"q  c #FFFC00",
"w  c #746B00",
"e  c #282500",
"r  c #110F00",
"t  c #3A3600",
"y  c #FCEA00",
"u  c #FFED00",
"i  c #FFF300",
"p  c #0E0D00",
"a  c #7E7400",
"s  c #FFF500",
"d  c #F6E400",
"f  c #292600",
"g  c #FFF900",
"h  c #FCE900",
"j  c #2A2700",
"k  c #F4E200",
"l  c #F7E500",
"z  c #F8E600",
"x  c #F5E300",
"c  c #F9E600",
"v  c #FFF600",
"b  c #FFF400",
"n  c #FDEA00",
"m  c #080700",
"M  c #998E00",
"N  c #A89B00",
"B  c #C2B400",
"V  c #544E00",
"C  c #6E6600",
"Z  c #CCBD00",
"A  c #FFF800",
"S  c #0D0C00",
"D  c #918600",
"F  c #0C0B00",
"G  c #F9E700",
"H  c #FAE800",
"J  c #9C9000",
"K  c #131200",
"L  c #ADA000",
"P  c #9B9000",
"I  c #121100",
"U  c #AC9F00",
"Y  c #FFF700",
"T  c #948900",
"R  c #A69A00",
"E  c #FFF200",
"W  c #232000",
"Q  c #151300",
"!  c #3A3500",
"~  c #FFEE00",
"^  c #E4D300",
"/  c #E8D700",
"(  c #050400",
")  c #1F1C00",
"_  c #FFEF00",
"`  c #272400",
"'  c #ECDA00",
"]  c #EEDC00",
"[  c #221F00",
"{  c #F8E500",
"}  c #393500",
"|  c #373300",
" . c #060500",
".. c #030300",
"X. c #464100",
"o. c #FFFB00",
"O. c #FDEB00",
"+. c #343000",
"@. c #020200",
"#. c #433E00",
"$. c #AB9E00",
"%. c #B6A900",
"&. c #F5E200",
"*. c #332F00",
"=. c #423D00",
"-. c #393400",
";. c #4A4400",
":. c #2B2700",
">. c #8B8100",
",. c #1D1B00",
"<. c #F7E400",
"1. c #554F00",
"2. c #100F00",
"3. c #8A8000",
"4. c #585200",
"5. c #050500",
"6. c #070600",
"7. c #696100",
"8. c #040400",
"9. c #655E00",
"0. c #191700",
"q. c #EDDB00",
"w. c #524C00",
"e. c #635C00",
"r. c #5A5400",
"t. c #6D6500",
"y. c #232100",
"u. c #0F0E00",
"i. c white",
/* pixels */
"          .         X o O + + + + + + + @ o #         .         ",
"        .   $ % &   * = - + + + + + + + O o ;   : % >   .       ",
"      . ,   < o 1 2 3 4 + + + + + + + + + 4 1 2 1 o 5   . .     ",
"    . . 6 7 8 9 0 O 4 + + + + + + + + + + + 4 O 0 q w e r . .   ",
"  .     t o 1 y u + + + + + + + + + + + + + + + u y i o e     . ",
"    p 5 a s d u + + + + + + + + + + + + + + + + + u d i w 5 >   ",
".   f o g h u + + + + + + + + + + + + + + + + + + + u y q o %   ",
".   j s k u + + + + + + + + + + + + + + + u h l z l y u x 1 :   ",
"    p o c + + + + + + + + + + + + + + + + y v o o o b n - 2     ",
"m M N i n + + + + + + + + + + + + + + + h g B V C V Z A O 1 ; # ",
"S o 9 n + + + + + + + + + + + + + + + + @ o D       ; o O 4 o o ",
"F + G + + + + + + + + + + + + + + + + + H o J   K   L o O + O @ ",
"F 1 4 + + + + + + + + + + + + - O O h + @ o P   I   U o O + + + ",
"F 1 4 + + + + + + + + + + + + A g g Y 4 H o T   ,   R o O + + + ",
"F 1 4 + + + + + + + + + + 4 E W Q p ! q @ ~ 0 ^ / ^ l ~ + + + + ",
"F 1 4 + + + + + + + + + + n E (     ) = c 4 _ b i b ~ 4 + + + + ",
"F 1 4 + + + + + + + + 4 E E 2 S     ` o + 4 + 4 4 4 + + + + + + ",
"F 1 4 + + + + + + + 4 ~ ' ^ ] $     [ l / ~ 4 + + + + + + + + + ",
"F 1 4 + + + + + + + { o f         . .   } o l + + + + + + + + + ",
"F u H + + + + + + + z o |    .      ..  X.o { + + + + + + + - O ",
"S o o.O.+ + + + + + z o +.  @.      ..  #.o { + + + + + + 4 = o ",
"> $.%.E n + + + + u &.o.*.  @.      ..  =.= k u + + + + 4 3 * X ",
"    p o c + + + u h s o -.  @.      ..  ;.o i h u + + + O 2     ",
",   :.v k u + + h A U >.,.  .       ,   7 >.* A h + + u 0 1 &   ",
".   f o g h u + <.o =.    ,           @.    1.o l + u y 9 o %   ",
"    2.< 3.E d u { o 4.  5.              6.  7.o { u d 1 8 < $   ",
"  .     } o E h z o V   8.              5.  9.o c h s o 7     . ",
"    . . 0.} 3.g q.o w.  8.              (   e.o q.g a t 6 , .   ",
"      . .   < o _ o r.  8.              5.  t.o _ o 5   . .     ",
"        .   2.f y.f F   .               .   u.f y.f p   .       ",
"          .           .                   .           .         ",
"              . . .                           . . .             "
};
