/* XPM */
static char *a2377a483fb5475cd7e0fff51446c064Qrcb79svdPxVqU08[] = {
/* columns rows colors chars-per-pixel */
"32 32 118 2 ",
"   c black",
".  c #010100",
"X  c #A99C00",
"o  c yellow",
"O  c #FBE800",
"+  c #FFEC00",
"@  c #FAE700",
"#  c #978C00",
"$  c #0B0A00",
"%  c #1A1800",
"&  c #1E1C00",
"*  c #B3A600",
"=  c #FFFE00",
"-  c #FBE900",
";  c #A39700",
":  c #1E1B00",
">  c #090800",
",  c #020100",
"<  c #625B00",
"1  c #FFF100",
"2  c #FFFA00",
"3  c #FFF000",
"4  c #FEEB00",
"5  c #4F4900",
"6  c #141300",
"7  c #262300",
"8  c #817800",
"9  c #FFFD00",
"0  c #F6E300",
"q  c #FFFC00",
"w  c #746B00",
"e  c #282500",
"r  c #110F00",
"t  c #3A3600",
"y  c #FCEA00",
"u  c #FFED00",
"i  c #FFF300",
"p  c #0E0D00",
"a  c #7E7400",
"s  c #FFF500",
"d  c #F6E400",
"f  c #292600",
"g  c #FFF900",
"h  c #FCE900",
"j  c #2A2700",
"k  c #F4E200",
"l  c #F7E500",
"z  c #F8E600",
"x  c #F5E300",
"c  c #F9E600",
"v  c #FFF600",
"b  c #FFF400",
"n  c #FDEA00",
"m  c #080700",
"M  c #998E00",
"N  c #A89B00",
"B  c #C2B400",
"V  c #544E00",
"C  c #6E6600",
"Z  c #CCBD00",
"A  c #FFF800",
"S  c #0D0C00",
"D  c #918600",
"F  c #0C0B00",
"G  c #F9E700",
"H  c #FAE800",
"J  c #9C9000",
"K  c #131200",
"L  c #ADA000",
"P  c #9B9000",
"I  c #121100",
"U  c #AC9F00",
"Y  c #948900",
"T  c #A69A00",
"R  c #FFEE00",
"E  c #E4D300",
"W  c #E8D700",
"Q  c #FFEF00",
"!  c #FFF200",
"~  c #ECDA00",
"^  c #E6D500",
"/  c #E7D600",
"(  c #E7D500",
")  c #F8E500",
"_  c #373300",
"`  c #060500",
"'  c #100E00",
"]  c #FFFB00",
"[  c #FDEB00",
"{  c #343000",
"}  c #020200",
"|  c #AB9E00",
" . c #B6A900",
".. c #F5E200",
"X. c #332F00",
"o. c #393400",
"O. c #2B2700",
"+. c #8B8100",
"@. c #1D1B00",
"#. c #070600",
"$. c #877D00",
"%. c #F7E400",
"&. c #423D00",
"*. c #100F00",
"=. c #8A8000",
"-. c #585200",
";. c #050500",
":. c #2B2800",
">. c #393500",
",. c #040400",
"<. c #252200",
"1. c #191700",
"2. c #EDDB00",
"3. c #524C00",
"4. c #242200",
"5. c #5A5400",
"6. c #232100",
"7. c white",
/* pixels */
"          .         X o O + + + + + + + @ o #         .         ",
"        .   $ % &   * = - + + + + + + + O o ;   : % >   .       ",
"      . ,   < o 1 2 3 4 + + + + + + + + + 4 1 2 1 o 5   . .     ",
"    . . 6 7 8 9 0 O 4 + + + + + + + + + + + 4 O 0 q w e r . .   ",
"  .     t o 1 y u + + + + + + + + + + + + + + + u y i o e     . ",
"    p 5 a s d u + + + + + + + + + + + + + + + + + u d i w 5 >   ",
".   f o g h u + + + + + + + + + + + + + + + + + + + u y q o %   ",
".   j s k u + + + + + + + + + + + + + + + u h l z l y u x 1 :   ",
"    p o c + + + + + + + + + + + + + + + + y v o o o b n - 2     ",
"m M N i n + + + + + + + + + + + + + + + h g B V C V Z A O 1 ; # ",
"S o 9 n + + + + + + + + + + + + + + + + @ o D       ; o O 4 o o ",
"F + G + + + + + + + + + + + + + + + + + H o J   K   L o O + O @ ",
"F 1 4 + + + + + + + + + + + + + + + + + H o P   I   U o O + + + ",
"F 1 4 + + + + + + + + + + + + + + + + + @ o Y   ,   T o O + + + ",
"F 1 4 + + + + + + + + + + + + + + + + + + R 0 E W E l R + + + + ",
"F 1 4 + + + + + + + + + + 4 4 4 4 + + + + 4 Q b i b R 4 + + + + ",
"F 1 4 + + + + + + + + 4 ! b i i i + + + + + + 4 4 4 + + + + + + ",
"F 1 4 + + + + + + + 4 R ~ ^ / ( W u + + + + + + + + + + + + + + ",
"F 1 4 + + + + + + + ) o f         i 4 + + + + + + + + + + + + + ",
"F u H + + + + + + + z o _   `   ' ! 4 + + + + + + + + + + + - O ",
"S o ] [ + + + + + + z o {   }   F ! 4 + + + + + + + + + + 4 = o ",
"> |  .! n + + + + u ..] X.  }   F u c + + + + + + + + + 4 3 * X ",
"    p o c + + + u h s o o.  }   S o o n u + + + + + + + O 2     ",
",   O.v k u + + h A U +.@.  .   #.$.M b y + + + + + + u 0 1 &   ",
".   f o g h u + %.o &.    ,         p o c + + + + + u y 9 o %   ",
"    *.< =.! d u ) o -.  ;.      .   :.9 @ + + + + u d 1 8 < $   ",
"  .     >.o ! h z o V   ,.      .   <.= G + + + u h s o 7     . ",
"    . . 1.>.=.g 2.o 3.  ,.      .   4.A k G G G k g a t 6 , .   ",
"      . .   < o Q o 5.  ,.      .   e o A = = = v o 5   . .     ",
"        .   *.f 6.f F   .           ;.e 4.<.<.<.4.f p   .       ",
"          .           .                               .         ",
"              . . .                   . . . . . . .             "
};
