/* XPM */
static char *_8bc15e7905b427fd6ada349d4ade351PE8qKNmHcKZtBpgB[] = {
/* columns rows colors chars-per-pixel */
"32 32 90 1 ",
"  c black",
". c #010100",
"X c #A99C00",
"o c yellow",
"O c #FBE800",
"+ c #FFEC00",
"@ c #FAE700",
"# c #978C00",
"$ c #0B0A00",
"% c #1A1800",
"& c #1E1C00",
"* c #B3A600",
"= c #FFFE00",
"- c #FBE900",
"; c #A39700",
": c #1E1B00",
"> c #090800",
", c #020100",
"< c #625B00",
"1 c #FFF100",
"2 c #FFFA00",
"3 c #FFF000",
"4 c #FEEB00",
"5 c #4F4900",
"6 c #141300",
"7 c #262300",
"8 c #817800",
"9 c #FFFD00",
"0 c #F6E300",
"q c #F5E300",
"w c #FFFC00",
"e c #746B00",
"r c #282500",
"t c #110F00",
"y c #3A3600",
"u c #FCEA00",
"i c #FFED00",
"p c #FFEF00",
"a c #FFF800",
"s c #FDEA00",
"d c #FFF300",
"f c #0E0D00",
"g c #7E7400",
"h c #FFF500",
"j c #F6E400",
"k c #F3E100",
"l c #A59800",
"z c #AFA200",
"x c #CCBD00",
"c c #FFF400",
"v c #292600",
"b c #FFF900",
"n c #FCE900",
"m c #FFF700",
"M c #D6C600",
"N c #544E00",
"B c #F7E500",
"V c #242200",
"C c #FFF600",
"Z c #F4E200",
"A c #DCCC00",
"S c #181700",
"D c #6E6600",
"F c #F8E600",
"G c #252200",
"H c #F9E700",
"J c #F0DE00",
"K c #928700",
"L c #9E9200",
"P c #918600",
"I c #C2B400",
"U c #FAE800",
"Y c #100F00",
"T c #8A8000",
"R c #FFF200",
"E c #393500",
"W c #191700",
"Q c #F9E600",
"! c #FDEB00",
"~ c #2B2700",
"^ c #B6A900",
"/ c #FFFB00",
"( c #A89B00",
") c #2A2700",
"_ c #AB9E00",
"` c #998E00",
"' c #0D0C00",
"] c #0C0B00",
"[ c #080700",
"{ c white",
/* pixels */
"     .    XoO+++++++@o#    .    ",
"    . $%& *=-+++++++Oo; :%> .   ",
"   ., <o1234+++++++++4121o5 ..  ",
"  ..67890O4+++++++4OOOO-qwert.. ",
" .  yo1ui++++++++4poooasiudor  .",
"  f5ghji+++++++++pklz;xcuijde5> ",
". vobni+++++++++4mM   NoB+iuwo% ",
". VCZi++++++++++4CA S DoF++i01: ",
". G=H+++++++++++4mM   NoB+++O2  ",
". G=H++++++++++++3JKLPICn+++41;#",
". G=H++++++++++++4pooobui++++4oo",
". G=H+++++++++++++4@U@n+++++++O@",
". G=H+++++++++++++++++++++++++++",
". G=H+++++++++++++++++++++++++++",
". G=H+++++++++++++++++++++++++++",
". G=H+++++++++++++++++++++++++++",
". G=H+++++++++++++++++++++++++++",
". G=H+++++++++++++++++++++++++++",
". G=H+++++++++++++++++++++++++++",
". G=H+++++++++++++++++++++++++-O",
". G=H++++++++++++++++++++++++4=o",
". G=H+++++++++++++++++++++++43*X",
". G=H+++++++++++++++++++++++O2  ",
". VCZi+++++++++++++++++++++i01& ",
". vobni+++++++++++++++++++iu9o% ",
"  Y<TRji+++++++++++++++++ij18<$ ",
" .  EoRni+++++++++++++++inho7  .",
"  ..WETbZQs+++++++++++sQZbgy6,. ",
"   .. <oCoR!+++++++++sdoho5 ..  ",
"    . Yv~f^/U4444444H9(f)vf .   ",
"     .    _oi1111111+o`    .    ",
"       ., >']]]]]]]]]'[ ..      "
};
