/* XPM */
static char *_ef35e1878824238cd59dcfceaf4aa91ihJoVZS0nijL3gYY[] = {
/* columns rows colors chars-per-pixel */
"32 32 117 2 ",
"   c black",
".  c #010100",
"X  c #A99C00",
"o  c yellow",
"O  c #FBE800",
"+  c #FFEC00",
"@  c #FAE700",
"#  c #978C00",
"$  c #0B0A00",
"%  c #1A1800",
"&  c #1E1C00",
"*  c #B3A600",
"=  c #FFFE00",
"-  c #FBE900",
";  c #A39700",
":  c #1E1B00",
">  c #090800",
",  c #020100",
"<  c #625B00",
"1  c #FFF100",
"2  c #FFFA00",
"3  c #FFF000",
"4  c #FEEB00",
"5  c #4F4900",
"6  c #141300",
"7  c #262300",
"8  c #817800",
"9  c #FFFD00",
"0  c #F6E300",
"q  c #F5E300",
"w  c #FFFC00",
"e  c #746B00",
"r  c #282500",
"t  c #110F00",
"y  c #3A3600",
"u  c #FCEA00",
"i  c #FFED00",
"p  c #FFEF00",
"a  c #FFF800",
"s  c #FDEA00",
"d  c #FFF300",
"f  c #0E0D00",
"g  c #7E7400",
"h  c #FFF500",
"j  c #F6E400",
"k  c #F3E100",
"l  c #A59800",
"z  c #AFA200",
"x  c #CCBD00",
"c  c #FFF400",
"v  c #292600",
"b  c #FFF900",
"n  c #FCE900",
"m  c #FFF700",
"M  c #D6C600",
"N  c #544E00",
"B  c #F7E500",
"V  c #242200",
"C  c #FFF600",
"Z  c #F4E200",
"A  c #DCCC00",
"S  c #181700",
"D  c #6E6600",
"F  c #F8E600",
"G  c #252200",
"H  c #F9E700",
"J  c #F0DE00",
"K  c #928700",
"L  c #9E9200",
"P  c #918600",
"I  c #C2B400",
"U  c #FAE800",
"Y  c #272400",
"T  c #FFF200",
"R  c #030300",
"E  c #171600",
"W  c #181600",
"Q  c #948900",
"!  c #847A00",
"~  c #020200",
"^  c #F2E000",
"/  c #040400",
"(  c #050500",
")  c #1D1B00",
"_  c #393400",
"`  c #332F00",
"'  c #343000",
"]  c #353100",
"[  c #2E2B00",
"{  c #8B8100",
"}  c #FFFB00",
"|  c #0C0B00",
" . c #5A5400",
".. c #524C00",
"X. c #585200",
"o. c #423D00",
"O. c #AC9F00",
"+. c #F5E200",
"@. c #232100",
"#. c #EDDB00",
"$. c #F8E500",
"%. c #F7E400",
"&. c #100F00",
"*. c #8A8000",
"=. c #393500",
"-. c #191700",
";. c #F9E600",
":. c #FDEB00",
">. c #2B2700",
",. c #B6A900",
"<. c #A89B00",
"1. c #2A2700",
"2. c #AB9E00",
"3. c #998E00",
"4. c #0D0C00",
"5. c #080700",
"6. c white",
/* pixels */
"          .         X o O + + + + + + + @ o #         .         ",
"        .   $ % &   * = - + + + + + + + O o ;   : % >   .       ",
"      . ,   < o 1 2 3 4 + + + + + + + + + 4 1 2 1 o 5   . .     ",
"    . . 6 7 8 9 0 O 4 + + + + + + + 4 O O O O - q w e r t . .   ",
"  .     y o 1 u i + + + + + + + + 4 p o o o a s i u d o r     . ",
"    f 5 g h j i + + + + + + + + + p k l z ; x c u i j d e 5 >   ",
".   v o b n i + + + + + + + + + 4 m M       N o B + i u w o %   ",
".   V C Z i + + + + + + + + + + 4 C A   S   D o F + + i 0 1 :   ",
".   G = H + + + + + + + + + + + 4 m M       N o B + + + O 2     ",
".   G = H + + + + + + + + + + + + 3 J K L P I C n + + + 4 1 ; # ",
".   G = H + + + + + + + + + + + + 4 p o o o b u i + + + + 4 o o ",
".   G = H + + + + + + + + + + + + + 4 @ U @ n + + + + + + + O @ ",
".   G 2 j - - O s + + + + + + + + + + + + + + + + + + + + + + + ",
".   Y o c b b 2 T 4 + + + + + + + + + + + + + + + + + + + + + + ",
"    R % E W &   Q o O i i i i + + + + + + + + + + + + + + + + + ",
"                ! o B s s s s + + + + + + + + + + + + + + + + + ",
"      . . . .   . ~ ~ ~ ~ R   k 3 + + + + + + + + + + + + + + + ",
"                  . . . . ~   k 3 + + + + + + + + + + + + + + + ",
"              ,               ^ 3 + + + + + + + + + + + + + + + ",
"    . / / / (   ) _ ` ' ' ] [ q p + + + + + + + + + + + + + - O ",
"  .             { o } o o o o i + + + + + + + + + + + + + 4 = o ",
"    |  ...N X.o.O.h +.F F F F + + + + + + + + + + + + + 4 3 * X ",
".   v o o o o o a n i + + + + + + + + + + + + + + + + + O 2     ",
".   @.p #.F $.%.n i + + + + + + + + + + + + + + + + + i 0 1 &   ",
".   v o b n i + + + + + + + + + + + + + + + + + + + i u 9 o %   ",
"    &.< *.T j i + + + + + + + + + + + + + + + + + i j 1 8 < $   ",
"  .     =.o T n i + + + + + + + + + + + + + + + i n h o 7     . ",
"    . . -.=.*.b Z ;.s + + + + + + + + + + + s ;.Z b g y 6 , .   ",
"      . .   < o C o T :.+ + + + + + + + + s d o h o 5   . .     ",
"        .   &.v >.f ,.} U 4 4 4 4 4 4 4 H 9 <.f 1.v f   .       ",
"          .         2.o i 1 1 1 1 1 1 1 + o 3.        .         ",
"              . ,   > 4.| | | | | | | | | 4.5.  . .             "
};
