/* XPM */
static char *_a5d98248fe04223b856b2527423332bDcuLsk4F8PCujmN6[] = {
/* columns rows colors chars-per-pixel */
"32 32 122 2 ",
"   c black",
".  c #010100",
"X  c #0B0A00",
"o  c #1A1800",
"O  c #171500",
"+  c #181600",
"@  c #181700",
"#  c #090900",
"$  c #161500",
"%  c #090800",
"&  c #020100",
"*  c #625B00",
"=  c yellow",
"-  c #FFF200",
";  c #FFF900",
":  c #FFF800",
">  c #0D0C00",
",  c #050500",
"<  c #6B6300",
"1  c #FDEA00",
"2  c #4F4900",
"3  c #141300",
"4  c #262300",
"5  c #817800",
"6  c #FFFD00",
"7  c #F6E300",
"8  c #FBE900",
"9  c #FAE700",
"0  c #FFEF00",
"q  c #0C0B00",
"w  c #050400",
"e  c #645C00",
"r  c #EEDD00",
"t  c #FFFC00",
"y  c #746B00",
"u  c #282500",
"i  c #110F00",
"p  c #3A3600",
"a  c #FFF100",
"s  c #FCEA00",
"d  c #FFED00",
"f  c #FFEC00",
"g  c #FEEB00",
"h  c #655E00",
"j  c #F8E600",
"k  c #FFF300",
"l  c #0E0D00",
"z  c #7E7400",
"x  c #FFF500",
"c  c #F6E400",
"v  c #121000",
"b  c #060600",
"n  c #686100",
"m  c #F8E500",
"M  c #292600",
"N  c #FCE900",
"B  c #FDEB00",
"V  c #020200",
"C  c #565000",
"Z  c #F7E500",
"A  c #2A2700",
"S  c #F4E200",
"D  c #7F7600",
"F  c #6F6600",
"G  c #221F00",
"H  c #766D00",
"J  c #A99D00",
"K  c #FFFA00",
"L  c #FBE800",
"P  c #1E1B00",
"I  c #F9E600",
"U  c #4A4500",
"Y  c #FFF400",
"T  c #080700",
"R  c #998E00",
"E  c #A89B00",
"W  c #ECDB00",
"Q  c #040400",
"!  c #423D00",
"~  c #A39700",
"^  c #978C00",
"/  c #FFF000",
"(  c #F3E100",
")  c #433E00",
"_  c #F9E700",
"`  c #464100",
"'  c #F2E000",
"]  c #393500",
"[  c #E6D500",
"{  c #E7D600",
"}  c #E5D400",
"|  c #EDDC00",
" . c #FFEE00",
".. c #E4D300",
"X. c #E8D700",
"o. c #948900",
"O. c #A69A00",
"+. c #FAE800",
"@. c #9D9100",
"#. c #161400",
"$. c #AEA100",
"%. c #FFFB00",
"&. c #928700",
"*. c #A49800",
"=. c #FFFE00",
"-. c #AB9E00",
";. c #B6A900",
":. c #BBAD00",
">. c #413C00",
",. c #5E5700",
"<. c #413D00",
"1. c #C7B800",
"2. c #B3A600",
"3. c #A99C00",
"4. c #FFF600",
"5. c #2B2700",
"6. c #F7E400",
"7. c #1E1C00",
"8. c #100F00",
"9. c #8A8000",
"0. c #191700",
"q. c white",
/* pixels */
"          .                               .           .         ",
"        .   X o O + + + + + @ .             # o $ o %   .       ",
"      . &   * = - ; ; ; ; : = >         ,   < = 1 = 2   . .     ",
"    . . 3 4 5 6 7 8 8 8 8 9 0 q         w   e = r t y u i . .   ",
"  .     p = a s d f f f f g - q         ,   h = j s k = u     . ",
"    l 2 z x c d f f f f f g - v .       b   n = m d c k y 2 %   ",
".   M = ; N d f f f f f f B k     .   V     C = Z f d s t = o   ",
".   A x S d f f f f f f f g 0 D F   V   G H J K L f f d 7 a P   ",
"    l = I f f f f f f f f f g = ;   w   U = Y N d f f f L K     ",
"T R E k 1 f f f f f f f f f f 1 W   Q   ! 6 S d f f f f g a ~ ^ ",
"> = 6 1 f f f f f f f f f f f / (   Q   ) = m f f f f f f g = = ",
"q f _ f f f f f f f f f f f f / (   Q   ) = m f f f f f f f L 9 ",
"q a g f f f f f f f f f f f f / (   T   ` = m f f f f f f f f f ",
"q a g f f f f f f f f f f f f / '       ] = Z f f f f f f f f f ",
"q a g f f f f f f f f f f f f f g [ { } |  .g f f f f f f f f f ",
"q a g f f f f g g g f f f f f f f k k Y a g f f f f f f f f f f ",
"q a g f f g 0 Y k Y  .g f f f f f g g g f f f f f f f f f f f f ",
"q a g f f  .7 ..X...Z  .f f f f f f f f f f f f f f f f f f f f ",
"q a g f 9 = o.  &   O.= L f f f f f f f f f f f f f f f f f f f ",
"q d +.f +.= @.  #.  $.= 8 f f f f f f f f f f f f f f f f f 8 L ",
"> = %.B +.= &.      *.= L f f f f f f f f f f f f f f f f g =.= ",
"% -.;.- 9 %.:.>.,.<.1.; s f f f f f f f f f f f f f f f g / 2.3.",
"    l = _ s 4.= = = Y 1 f f f f f f f f f f f f f f f f L K     ",
"&   5.4.S d N 6.m 6.1 d f f f f f f f f f f f f f f f d 7 a 7.  ",
".   M = ; N d f f f f f f f f f f f f f f f f f f f d s 6 = o   ",
"    8.* 9.- c d f f f f f f f f f f f f f f f f f d c a 5 * X   ",
"  .     ] = - N d f f f f f f f f f f f f f f f d N x = 4     . ",
"    . . 0.] 9.; S I 1 f f f f f f f f f f f 1 I S ; z p 3 & .   ",
"      . .   * = 4.= - B f f f f f f f f f 1 k = x = 2   . .     ",
"        .   8.M 5.l ;.%.+.g g g g g g g _ 6 E l A M l   .       ",
"          .         -.= d a a a a a a a f = R         .         ",
"              . &   % > q q q q q q q q q > T   . .             "
};
