/* XPM */
static char *_3aed01aa45e4953f2af77244665c464SOij1lAd7fBUzOcR[] = {
/* columns rows colors chars-per-pixel */
"32 32 127 2 ",
"   c black",
".  c #010100",
"X  c #0B0A00",
"o  c #1A1800",
"O  c #161500",
"+  c #080700",
"@  c #090900",
"#  c #090800",
"$  c #020100",
"%  c #625B00",
"&  c yellow",
"*  c #FDEA00",
"=  c #595200",
"-  c #040400",
";  c #050500",
":  c #6B6300",
">  c #4F4900",
",  c #141300",
"<  c #262300",
"1  c #817800",
"2  c #FFFD00",
"3  c #EEDC00",
"4  c #534D00",
"5  c #050400",
"6  c #645C00",
"7  c #EEDD00",
"8  c #FFFC00",
"9  c #746B00",
"0  c #282500",
"q  c #110F00",
"w  c #3A3600",
"e  c #FFF100",
"r  c #FCEA00",
"t  c #F8E600",
"y  c #544E00",
"u  c #655E00",
"i  c #FFF300",
"p  c #0E0D00",
"a  c #7E7400",
"s  c #FFF500",
"d  c #F6E400",
"f  c #FFED00",
"g  c #F8E500",
"h  c #585100",
"j  c #060600",
"k  c #686100",
"l  c #292600",
"z  c #FFF900",
"x  c #FCE900",
"c  c #FFEC00",
"v  c #F7E400",
"b  c #433E00",
"n  c #020200",
"m  c #565000",
"M  c #F7E500",
"N  c #2A2700",
"B  c #F4E200",
"V  c #FBE800",
"C  c #FFFA00",
"Z  c #A09400",
"A  c #766D00",
"S  c #221F00",
"D  c #A99D00",
"F  c #F6E300",
"G  c #1E1B00",
"H  c #F9E600",
"J  c #FFF600",
"K  c #393500",
"L  c #030300",
"P  c #4A4500",
"I  c #FFF400",
"U  c #998E00",
"Y  c #A89B00",
"T  c #332F00",
"R  c #423D00",
"E  c #FEEB00",
"W  c #A39700",
"Q  c #978C00",
"!  c #0D0C00",
"~  c #343000",
"^  c #0C0B00",
"/  c #F9E700",
"(  c #FAE700",
")  c #373300",
"_  c #060500",
"`  c #464100",
"'  c #FFEE00",
"]  c #ECDA00",
"[  c #E4D300",
"{  c #E8D700",
"}  c #FFF200",
"|  c #272400",
" . c #FFEF00",
".. c #1F1C00",
"X. c #FFFE00",
"o. c #232000",
"O. c #151300",
"+. c #3A3500",
"@. c #948900",
"#. c #A69A00",
"$. c #FFF800",
"%. c #FFF700",
"&. c #FAE800",
"*. c #9D9100",
"=. c #161400",
"-. c #AEA100",
";. c #FBE900",
":. c #FFFB00",
">. c #FDEB00",
",. c #928700",
"<. c #A49800",
"1. c #AB9E00",
"2. c #B6A900",
"3. c #BBAD00",
"4. c #413C00",
"5. c #5E5700",
"6. c #413D00",
"7. c #C7B800",
"8. c #FFF000",
"9. c #B3A600",
"0. c #A99C00",
"q. c #2B2700",
"w. c #1E1C00",
"e. c #100F00",
"r. c #8A8000",
"t. c #191700",
"y. c white",
/* pixels */
"          .           .                   .           .         ",
"        .   X o O o +                       @ o O o #   .       ",
"      . $   % & * & =   -               ;   : & * & >   . .     ",
"    . . , < 1 2 3 & 4   -               5   6 & 7 8 9 0 q . .   ",
"  .     w & e r t & y   -               ;   u & t r i & 0     . ",
"    p > a s d f g & h   ;               j   k & g f d i 9 > #   ",
".   l & z x f c v & b     .           n     m & M c f r 8 & o   ",
".   N s B f c c V C Z A o   .       .   S A D C V c c f F e G   ",
"    p & H c c c f x J & K   n       L   P & I x f c c c V C     ",
"+ U Y i * c c c c f B C T   n       L   R 2 B f c c c c E e W Q ",
"! & 2 * c c c c c c t & ~   n       L   b & g c c c c c c E & & ",
"^ c / c c c c c c c t & ~   n       L   b & g c c c c c c c V ( ",
"^ e E c c c c c c c t & )   _       L   ` & g c c c c c c c c c ",
"^ e E c c c c c c c g & l         . .   K & M c c c c c c c c c ",
"^ e E c c c c c c c E ' ] [ 3 X     S M { ' E c c c c c c c c c ",
"^ e E c c c c E E E c E } } C !     | & c E c c c c c c c c c c ",
"^ e E c c E  .I i I ' E c * } 5     ..X.H c c c c c c c c c c c ",
"^ e E c c ' F [ { [ M ' c E } o.O.p +.8 ( c c c c c c c c c c c ",
"^ e E c ( & @.  $   #.& V c c $.z z %.E c c c c c c c c c c c c ",
"^ f &.c &.& *.  =.  -.& ;.c c ;.V V x c c c c c c c c c c c ;.V ",
"! & :.>.&.& ,.      <.& V c c c c c c c c c c c c c c c c E X.& ",
"# 1.2.} ( :.3.4.5.6.7.z r c c c c c c c c c c c c c c c E 8.9.0.",
"    p & / r J & & & I * c c c c c c c c c c c c c c c c V C     ",
"$   q.J B f x v g v * f c c c c c c c c c c c c c c c f F e w.  ",
".   l & z x f c c c c c c c c c c c c c c c c c c c f r 2 & o   ",
"    e.% r.} d f c c c c c c c c c c c c c c c c c f d e 1 % X   ",
"  .     K & } x f c c c c c c c c c c c c c c c f x s & <     . ",
"    . . t.K r.z B H * c c c c c c c c c c c * H B z a w , $ .   ",
"      . .   % & J & } >.c c c c c c c c c * i & s & >   . .     ",
"        .   e.l q.p 2.:.&.E E E E E E E / 2 Y p N l p   .       ",
"          .         1.& f e e e e e e e c & U         .         ",
"              . $   # ! ^ ^ ^ ^ ^ ^ ^ ^ ^ ! +   . .             "
};
