/* XPM */
static char *_edf1f27640a407cde2133db17adf695BJjCdTgMqfePKV3z[] = {
/* columns rows colors chars-per-pixel */
"32 32 130 2 ",
"   c black",
".  c #010100",
"X  c #A99C00",
"o  c yellow",
"O  c #FBE800",
"+  c #FFEC00",
"@  c #FAE700",
"#  c #978C00",
"$  c #0B0A00",
"%  c #1A1800",
"&  c #1E1C00",
"*  c #B3A600",
"=  c #FFFE00",
"-  c #FBE900",
";  c #A39700",
":  c #1E1B00",
">  c #090800",
",  c #020100",
"<  c #625B00",
"1  c #FFF100",
"2  c #FFFA00",
"3  c #FFF000",
"4  c #FEEB00",
"5  c #4F4900",
"6  c #141300",
"7  c #262300",
"8  c #817800",
"9  c #FFFD00",
"0  c #F6E300",
"q  c #FFFC00",
"w  c #746B00",
"e  c #282500",
"r  c #110F00",
"t  c #3A3600",
"y  c #FCEA00",
"u  c #FFED00",
"i  c #FDEA00",
"p  c #FFF900",
"a  c #FFF300",
"s  c #0E0D00",
"d  c #7E7400",
"f  c #FFF500",
"g  c #F6E400",
"h  c #FFF400",
"j  c #C7B800",
"k  c #A49800",
"l  c #ACA000",
"z  c #AC9F00",
"x  c #292600",
"c  c #FCE900",
"v  c #F7E400",
"b  c #413D00",
"n  c #F2E000",
"m  c #2A2700",
"M  c #F4E200",
"N  c #F8E500",
"B  c #5E5700",
"V  c #121100",
"C  c #100F00",
"Z  c #080800",
"A  c #F4E100",
"S  c #F7E500",
"D  c #F8E600",
"F  c #EEDD00",
"G  c #161500",
"H  c #F9E600",
"J  c #413C00",
"K  c #080700",
"L  c #998E00",
"P  c #A89B00",
"I  c #FFF600",
"U  c #BBAD00",
"Y  c #928700",
"T  c #9B9000",
"R  c #9A8F00",
"E  c #FAE800",
"W  c #FFEE00",
"Q  c #A99D00",
"!  c #565000",
"~  c #686100",
"^  c #655E00",
"/  c #645C00",
"(  c #6B6300",
")  c #090900",
"_  c #0D0C00",
"`  c #FFFB00",
"'  c #766D00",
"]  c #0C0B00",
"[  c #F9E700",
"{  c #E4D300",
"}  c #353100",
"|  c #474200",
" . c #433E00",
".. c #423D00",
"X. c #4A4500",
"o. c #221F00",
"O. c #060600",
"+. c #050500",
"@. c #050400",
"#. c #D4C400",
"$. c #020200",
"%. c #FFF800",
"&. c #E6D500",
"*. c #030300",
"=. c #FFF200",
"-. c #232000",
";. c #141200",
":. c #191700",
">. c #010000",
",. c #151300",
"<. c #DECE00",
"1. c #252200",
"2. c #383400",
"3. c #343000",
"4. c #332F00",
"5. c #393500",
"6. c #040400",
"7. c #FDEB00",
"8. c #FFEF00",
"9. c #AB9E00",
"0. c #B6A900",
"q. c #A09400",
"w. c #585100",
"e. c #544E00",
"r. c #534D00",
"t. c #595200",
"y. c #2B2700",
"u. c #EEDC00",
"i. c #8A8000",
"p. c white",
/* pixels */
"          .         X o O + + + + + + + @ o #         .         ",
"        .   $ % &   * = - + + + + + + + O o ;   : % >   .       ",
"      . ,   < o 1 2 3 4 + + + + + + + + + 4 1 2 1 o 5   . .     ",
"    . . 6 7 8 9 0 - O O O O O + + + + + + + 4 O 0 q w e r . .   ",
"  .     t o 1 y u i p o o o o u + + + + + + + + u y a o e     . ",
"    s 5 d f g u y h j k l z X O u + + + + + + + + u g a w 5 >   ",
".   x o p c u + v o b         n 3 + + + + + + + + + u y q o %   ",
".   m f M u + + N o B   V C Z A 3 + + + + + + u O S N D F i G   ",
"    s o H + + + v o J         n 3 + + + + + u c 2 o o o o o %   ",
"K L P a i + + + c I U Y T R # E W + 4 S N N M h Q ! ~ ^ / ( )   ",
"_ o 9 i + + + + u y ` o o o o u + 4 3 o o o 9 o '             . ",
"] + [ + + + + + + + c @ E @ @ + 4 h { } |  ...X.o.  O.+.@.+.    ",
"] 1 4 + + + + + + + + + + + + - @ a #.            $.            ",
"] 1 4 + + + + + + + + + + + + %.%.o &.  > *.*.*..               ",
"] 1 4 + + + + + + + + + + 4 =.-.;.:.6   >.                      ",
"] 1 4 + + + + + + + + + + 4 a +.      >.                        ",
"] 1 4 + + + + + + + + + + 4 a +.      >.                        ",
"] 1 4 + + + + + + + + + + 4 =.-.;.:.,.  $.$.$.$..               ",
"] 1 4 + + + + + + + + + + + + %.%.o {             .             ",
"] u E + + + + + + + + + + + + - E 1 <.1.2.3.4.5.%   +.6.6.6.    ",
"_ o ` 7.+ + + + + + + + + + + + + 4 8.o o o 2 o '             . ",
"> 9.0.=.i + + + + + + + + + + + + + 4 N D D M I q. .w.e.r.t.K   ",
"    s o H + + + + + + + + + + + + + + + + + u c 2 o o o o o %   ",
",   y.I M u + + + + + + + + + + + + + + + + + u O v N D u.i G   ",
".   x o p c u + + + + + + + + + + + + + + + + + + + u y 9 o %   ",
"    C < i.=.g u + + + + + + + + + + + + + + + + + u g 1 8 < $   ",
"  .     5.o =.c u + + + + + + + + + + + + + + + u c f o 7     . ",
"    . . :.5.i.p M H i + + + + + + + + + + + i H M p d t 6 , .   ",
"      . .   < o I o =.7.+ + + + + + + + + i a o f o 5   . .     ",
"        .   C x y.s 0.` E 4 4 4 4 4 4 4 [ 9 P s m x s   .       ",
"          .         9.o u 1 1 1 1 1 1 1 + o L         .         ",
"              . ,   > _ ] ] ] ] ] ] ] ] ] _ K   . .             "
};
