/* XPM */
static char *_a55fd627ed14d28b52bdb6a078114d0wuO3pdcAfMEme3pw[] = {
/* columns rows colors chars-per-pixel */
"32 32 89 1 ",
"  c black",
". c #010100",
"X c #A99C00",
"o c yellow",
"O c #FBE800",
"+ c #FFEC00",
"@ c #FAE700",
"# c #978C00",
"$ c #0B0A00",
"% c #1A1800",
"& c #1E1C00",
"* c #B3A600",
"= c #FFFE00",
"- c #FBE900",
"; c #A39700",
": c #1E1B00",
"> c #090800",
", c #020100",
"< c #625B00",
"1 c #FFF100",
"2 c #FFFA00",
"3 c #FFF000",
"4 c #FEEB00",
"5 c #4F4900",
"6 c #141300",
"7 c #262300",
"8 c #817800",
"9 c #FFFD00",
"0 c #F6E300",
"q c #FFFC00",
"w c #746B00",
"e c #282500",
"r c #110F00",
"t c #3A3600",
"y c #FCEA00",
"u c #FFED00",
"i c #FDEA00",
"p c #FFF900",
"a c #FFF300",
"s c #0E0D00",
"d c #7E7400",
"f c #FFF500",
"g c #F6E400",
"h c #FFF400",
"j c #C7B800",
"k c #A49800",
"l c #ACA000",
"z c #AC9F00",
"x c #292600",
"c c #FCE900",
"v c #F7E400",
"b c #413D00",
"n c #F2E000",
"m c #2A2700",
"M c #F4E200",
"N c #F8E500",
"B c #5E5700",
"V c #121100",
"C c #100F00",
"Z c #080800",
"A c #F4E100",
"S c #F5E300",
"D c #171500",
"F c #F9E600",
"G c #413C00",
"H c #181600",
"J c #080700",
"K c #998E00",
"L c #A89B00",
"P c #FFF600",
"I c #BBAD00",
"U c #928700",
"Y c #9B9000",
"T c #9A8F00",
"R c #FAE800",
"E c #FFEE00",
"W c #0D0C00",
"Q c #FFFB00",
"! c #0C0B00",
"~ c #F9E700",
"^ c #FDEB00",
"/ c #AB9E00",
"( c #B6A900",
") c #FFF200",
"_ c #2B2700",
"` c #8A8000",
"' c #393500",
"] c #191700",
"[ c white",
/* pixels */
"     .    XoO+++++++@o#    .    ",
"    . $%& *=-+++++++Oo; :%> .   ",
"   ., <o1234+++++++++4121o5 ..  ",
"  ..67890-OOOOO+++++++4O0qwer.. ",
" .  to1yuipoooou++++++++uyaoe  .",
"  s5dfguyhjklzXOu++++++++ugaw5> ",
". xopcu+vob    n3+++++++++uyqo% ",
". mfMu++NoB VCZA3++++++++++uS1D ",
"  soF+++voG    n3+++++++++++-pH ",
"JKLai+++cPIUYT#RE+++++++++++-pH ",
"Wo9i++++uyQoooou++++++++++++-pH ",
"!+~+++++++c@R@@+++++++++++++-pH ",
"!14+++++++++++++++++++++++++-pH ",
"!14+++++++++++++++++++++++++-pH ",
"!14+++++++++++++++++++++++++-pH ",
"!14+++++++++++++++++++++++++-pH ",
"!14+++++++++++++++++++++++++-pH ",
"!14+++++++++++++++++++++++++-pH ",
"!14+++++++++++++++++++++++++-pH ",
"!uR+++++++++++++++++++++++++-pH ",
"WoQ^++++++++++++++++++++++++-pH ",
">/()i+++++++++++++++++++++++-pH ",
"  soF+++++++++++++++++++++++-pH ",
", _PMu+++++++++++++++++++++u0)D ",
". xopcu+++++++++++++++++++uy9o% ",
"  C<`)gu+++++++++++++++++ug18<$ ",
" .  'o)cu+++++++++++++++ucfo7  .",
"  ..]'`pMFi+++++++++++iFMpdt6,. ",
"   .. <oPo)^+++++++++iaofo5 ..  ",
"    . Cx_s(QR4444444~9Lsmxs .   ",
"     .    /ou1111111+oK    .    ",
"       ., >W!!!!!!!!!WJ ..      "
};
