/* XPM */
static char *_a1b2c2568384cd2a67ef6e5cd154047yqWUIigPKom1gzk7[] = {
/* columns rows colors chars-per-pixel */
"32 32 91 1 ",
"  c black",
". c #010100",
"X c #A99C00",
"o c yellow",
"O c #FBE800",
"+ c #FFEC00",
"@ c #FAE700",
"# c #978C00",
"$ c #0B0A00",
"% c #1A1800",
"& c #1E1C00",
"* c #B3A600",
"= c #FFFE00",
"- c #FBE900",
"; c #A39700",
": c #1E1B00",
"> c #090800",
", c #020100",
"< c #625B00",
"1 c #FFF100",
"2 c #FFFA00",
"3 c #FFF000",
"4 c #FEEB00",
"5 c #4F4900",
"6 c #141300",
"7 c #262300",
"8 c #817800",
"9 c #FFFD00",
"0 c #F6E300",
"q c #FFFC00",
"w c #746B00",
"e c #282500",
"r c #110F00",
"t c #3A3600",
"y c #FCEA00",
"u c #FFED00",
"i c #FFF300",
"p c #0E0D00",
"a c #7E7400",
"s c #FFF500",
"d c #F6E400",
"f c #292600",
"g c #FFF900",
"h c #FCE900",
"j c #2A2700",
"k c #F4E200",
"l c #F7E500",
"z c #F8E600",
"x c #F5E300",
"c c #F9E600",
"v c #FFF600",
"b c #FFF400",
"n c #FDEA00",
"m c #080700",
"M c #998E00",
"N c #A89B00",
"B c #C2B400",
"V c #544E00",
"C c #6E6600",
"Z c #CCBD00",
"A c #FFF800",
"S c #0D0C00",
"D c #918600",
"F c #0C0B00",
"G c #F9E700",
"H c #FAE800",
"J c #9C9000",
"K c #131200",
"L c #ADA000",
"P c #9B9000",
"I c #121100",
"U c #AC9F00",
"Y c #948900",
"T c #A69A00",
"R c #FFEE00",
"E c #E4D300",
"W c #E8D700",
"Q c #FFEF00",
"! c #FFFB00",
"~ c #FDEB00",
"^ c #AB9E00",
"/ c #B6A900",
"( c #FFF200",
") c #2B2700",
"_ c #100F00",
"` c #8A8000",
"' c #393500",
"] c #191700",
"[ c #242200",
"{ c #252200",
"} c white",
/* pixels */
"     .    XoO+++++++@o#    .    ",
"    . $%& *=-+++++++Oo; :%> .   ",
"   ., <o1234+++++++++4121o5 ..  ",
"  ..67890O4+++++++++++4O0qwer.. ",
" .  to1yu+++++++++++++++uyioe  .",
"  p5asdu+++++++++++++++++udiw5> ",
". foghu+++++++++++++++++++uyqo% ",
". jsku+++++++++++++++uhlzlyux1: ",
"  poc++++++++++++++++yvooobn-2  ",
"mMNin+++++++++++++++hgBVCVZAO1;#",
"So9n++++++++++++++++@oD   ;oO4oo",
"F+G+++++++++++++++++HoJ K LoO+O@",
"F14+++++++++++++++++HoP I UoO+++",
"F14+++++++++++++++++@oY , ToO+++",
"F14++++++++++++++++++R0EWElR++++",
"F14++++++++++++++++++4QbibR4++++",
"F14++++++++++++++++++++444++++++",
"F14+++++++++++++++++++++++++++++",
"F14+++++++++++++++++++++++++++++",
"FuH+++++++++++++++++++++++++++-O",
"So!~+++++++++++++++++++++++++4=o",
">^/(n+++++++++++++++++++++++43*X",
"  poc+++++++++++++++++++++++O2  ",
", )vku+++++++++++++++++++++u01& ",
". foghu+++++++++++++++++++uy9o% ",
"  _<`(du+++++++++++++++++ud18<$ ",
" .  'o(hu+++++++++++++++uhso7  .",
"  ..]'`gkGGGGGGGGGGGGGGGkgat6,. ",
"   .. <ov===============vo5 ..  ",
"    . _f[{{{{{{{{{{{{{{{[fp .   ",
"     .                     .    ",
"       ...................      "
};
