/* XPM */
static char *result[] = {
/* columns rows colors chars-per-pixel */
"32 32 159 2 ",
"   c black",
".  c #181800",
"X  c #595900",
"o  c #A5A500",
"O  c #E7E700",
"+  c yellow",
"@  c #DBDB00",
"#  c #9C9C00",
"$  c #535300",
"%  c #161600",
"&  c #010100",
"*  c #030300",
"=  c #242400",
"-  c #5E5E00",
";  c #A1A100",
":  c #FCFC00",
">  c #FDFD00",
",  c #DDDD00",
"<  c #A2A200",
"1  c #070700",
"2  c #0F0F00",
"3  c #1F1F00",
"4  c #3B3B00",
"5  c #686800",
"6  c #999900",
"7  c #C4C400",
"8  c #E2E200",
"9  c #E0E000",
"0  c #EFEF00",
"q  c #FBFB00",
"w  c #FAFA00",
"e  c #B1B100",
"r  c #767600",
"t  c #404000",
"y  c #0D0D00",
"u  c #060600",
"i  c #1B1B00",
"p  c #343400",
"a  c #4E4E00",
"s  c #646400",
"d  c #797900",
"f  c #8C8C00",
"g  c #9B9B00",
"h  c #A4A400",
"j  c #A3A300",
"k  c #A6A600",
"l  c #B3B300",
"z  c #CDCD00",
"x  c #E8E800",
"c  c #F8F800",
"v  c #EEEE00",
"b  c #9F9F00",
"n  c #717100",
"m  c #2F2F00",
"M  c #171700",
"N  c #0E0E00",
"B  c #353500",
"V  c #636300",
"C  c #878700",
"Z  c #959500",
"A  c #8D8D00",
"S  c #7C7C00",
"D  c #6A6A00",
"F  c #616100",
"G  c #5B5B00",
"H  c #5A5A00",
"J  c #626200",
"K  c #787800",
"L  c #CFCF00",
"P  c #F1F100",
"I  c #F9F900",
"U  c #EBEB00",
"Y  c #ACAC00",
"T  c #020200",
"R  c #202000",
"E  c #565600",
"W  c #929200",
"Q  c #BDBD00",
"!  c #C2C200",
"~  c #A0A000",
"^  c #6D6D00",
"/  c #3D3D00",
"(  c #232300",
")  c #414100",
"_  c #747400",
"`  c #AFAF00",
"'  c #F6F600",
"]  c #BEBE00",
"[  c #040400",
"{  c #7B7B00",
"}  c #B7B700",
"|  c #DFDF00",
" . c #DADA00",
".. c #A9A900",
"X. c #515100",
"o. c #8B8B00",
"O. c #BFBF00",
"+. c #E1E100",
"@. c #ABAB00",
"#. c #0C0C00",
"$. c #1D1D00",
"%. c #757500",
"&. c #D6D600",
"*. c #F0F000",
"=. c #AAAA00",
"-. c #5F5F00",
";. c #333300",
":. c #606000",
">. c #D2D200",
",. c #EDED00",
"<. c #CACA00",
"1. c #545400",
"2. c #151500",
"3. c #373700",
"4. c #D3D300",
"5. c #A7A700",
"6. c #1E1E00",
"7. c #191900",
"8. c #CECE00",
"9. c #F7F700",
"0. c #E5E500",
"q. c #C9C900",
"w. c #B0B000",
"e. c #4D4D00",
"r. c #222200",
"t. c #9D9D00",
"y. c #FEFE00",
"u. c #5D5D00",
"i. c #E3E300",
"p. c #575700",
"a. c #9E9E00",
"s. c #DCDC00",
"d. c #212100",
"f. c #D0D000",
"g. c #E9E900",
"h. c #CCCC00",
"j. c #DEDE00",
"k. c #B2B200",
"l. c #C3C300",
"z. c #8F8F00",
"x. c #323200",
"c. c #D4D400",
"v. c #656500",
"b. c #5C5C00",
"n. c #7F7F00",
"m. c #919100",
"M. c #989800",
"N. c #8A8A00",
"B. c #B9B900",
"V. c #7D7D00",
"C. c #676700",
"Z. c #505000",
"A. c #D9D900",
"S. c #ADAD00",
"D. c #666600",
"F. c #1C1C00",
"G. c #363600",
"H. c #252500",
"J. c white",
/* pixels */
"                    . X o O + + + + + + + + @ # $ %           & ",
"                  * = - ; @ : + + + + + + > , < - = *           ",
"            * 1 2 3 4 5 6 7 @ 8 9 , 8 0 q w 8 e r t 3 y u *     ",
"            u i p a s d f g h o j k l z x c v z b n a m M u     ",
"            N B V C Z A S D F G H J K ; L P I U L Y C H m y     ",
"          T R E W Q ! ~ ^ / ( M M = ) _ ` 9 I + ' 9 ] C a 3 *   ",
"    [ 1 N 3 ) { } |  ...s = T     & 3 X.o.O.+.' + I | @.n t = % ",
"  & #.$.p X.%.k &.*.8 =.-.$.        N ;.:.o.` >.,.w *.<.# %.- 1.",
"  & 2.3.:.f ` 4.0 c +.5.- 6.        u 7.;.X._ ; 8.0 9.0.q.w.< # ",
"  & 6.e.C ] +.c + q , j - r.        * u N 3 t r e 8 w w 0 8 , @ ",
"  T r.H t. .y.+ + + , < u.r.&             * = - < , > + + + y.y.",
"  T = - j i.+ + + + , ; u.r.&               i p.a.@ + + + + + + ",
"  T ( u.< +.+ + + + , ; u.r.&               $.X b s.+ + + + + + ",
"  T ( G a., + + + + , < u.r.&               d.u.; s.y.+ + + + + ",
"  T ( G a., + + + + s.; u.d.              & r.u.< , y.+ + + + + ",
"  T ( u.< +.+ + + + s.b X $.              & r.u.; , + + + + + + ",
"  T = - j i.+ + + + @ a.p.i               & r.u.; , + + + + + + ",
"  T r.H t. .y.+ + + , < - = *             & r.u.< , > + + + y.y.",
"  & 6.e.C ] +.9.+ q 8 e r t 3 N u *         r.- j , w q *.i., @ ",
"  & 2.3.:.f ` f.U c 0 8.; _ X.;.7.u         6.- 5.+.' g.h.w.< # ",
"  & #.$.p X._ < f.P w ,.>.` o.:.;.N         $.-.=.8 0 f.; r - 1.",
"    [ 1 N 3 t %.` 9 I + ' +.O.o.X.3 &     T = s .. .j.k.r ) = % ",
"          T 3 X.o.O.+.9.+ w +.w.%.) = M M = / ^ ; l.Q z.1.R *   ",
"&           N x.-.o.w.c.P + 9.c.o S v.b.u.s ^ n.m.M.N.V B N     ",
"            u 7.x.X.%.h c.9.+ *.c.B.Y ..@.=.; m.V.C.Z.p i u     ",
"            * u N 3 t %.w.+.I w v +.s.| +. .l.6 C.4 6.N 1 *     ",
"                  T 3 X.f ]  .i.+.@ @ 9 8 A.Q o.X.3 T           ",
"                    N p :.C a.5.5.k 5.@.S.o z.D.3.2             ",
"                    1 F.G.e.G :.F :.F s s :.$ 4 3 1             ",
"                    [ #.2.6.( = = = = H.H.( 3 % #.[             ",
"                      & & & T T T T T T T T & & &               ",
"                &                                               "
};
