/* XPM */
static char *result[] = {
/* columns rows colors chars-per-pixel */
"32 32 114 2 ",
"   c black",
".  c #010100",
"X  c #161600",
"o  c #545400",
"O  c #9C9C00",
"+  c #DBDB00",
"@  c yellow",
"#  c #DDDD00",
"$  c #A2A200",
"%  c #5D5D00",
"&  c #222200",
"*  c #030300",
"=  c #242400",
"-  c #5E5E00",
";  c #040400",
":  c #070700",
">  c #0F0F00",
",  c #202000",
"<  c #414100",
"1  c #757500",
"2  c #B0B000",
"3  c #E2E200",
"4  c #0C0C00",
"5  c #1F1F00",
"6  c #383800",
"7  c #9E9E00",
"8  c #C8C800",
"9  c #EAEA00",
"0  c #FEFE00",
"q  c #3B3B00",
"w  c #666600",
"e  c #909000",
"r  c #B1B100",
"t  c #CDCD00",
"y  c #E3E300",
"u  c #F4F400",
"i  c #1D1D00",
"p  c #4F4F00",
"a  c #898900",
"s  c #BDBD00",
"d  c #DEDE00",
"f  c #EFEF00",
"g  c #F7F700",
"h  c #FBFB00",
"j  c #8A8A00",
"k  c #BEBE00",
"l  c #DFDF00",
"z  c #F0F000",
"x  c #F8F800",
"c  c #171700",
"v  c #3C3C00",
"b  c #696900",
"n  c #949400",
"m  c #B5B500",
"M  c #D0D000",
"N  c #E5E500",
"B  c #0D0D00",
"V  c #212100",
"C  c #3A3A00",
"Z  c #575700",
"A  c #787800",
"S  c #A0A000",
"D  c #C9C900",
"F  c #EBEB00",
"G  c #1B1B00",
"H  c #595900",
"J  c #9F9F00",
"K  c #DCDC00",
"L  c #A1A100",
"P  c #585800",
"I  c #050500",
"U  c #252500",
"Y  c #747400",
"T  c #AFAF00",
"R  c #1C1C00",
"E  c #1E1E00",
"W  c #232300",
"Q  c #3F3F00",
"!  c #636300",
"~  c #616100",
"^  c #656500",
"/  c #7A7A00",
"(  c #CBCB00",
")  c #5F5F00",
"_  c #606000",
"`  c #646400",
"'  c #3E3E00",
"]  c #6C6C00",
"[  c #A9A900",
"{  c #AEAE00",
"}  c #ACAC00",
"|  c #B7B700",
" . c #E6E600",
".. c #ABAB00",
"X. c #A7A700",
"o. c #A8A800",
"O. c #AAAA00",
"+. c #505000",
"@. c #8B8B00",
"#. c #DADA00",
"$. c #E0E000",
"%. c #E8E800",
"&. c #F1F100",
"*. c #F9F900",
"=. c #D9D900",
"-. c #3D3D00",
";. c #A5A500",
":. c #A3A300",
">. c #9D9D00",
",. c #A6A600",
"<. c #5B5B00",
"1. c #5A5A00",
"2. c #020200",
"3. c white",
/* pixels */
"                .           X o O + @ @ @ @ # $ % & .           ",
"                          * = - $ # @ @ @ @ # $ % & .           ",
"                    ; : > , < 1 2 3 @ @ @ @ # $ % & .           ",
"                  . 4 5 6 o 1 7 8 9 @ @ @ 0 # $ % & .           ",
"                  . X q w e r t y u @ @ @ 0 # $ % & .           ",
"                  . i p a s d f g h @ @ @ 0 # $ % & .           ",
"                  . i p j k l z x h @ @ @ 0 # $ % & .           ",
"                  . c v b n m M N u @ @ @ 0 # $ % & .           ",
"                  . B V C Z A S D F @ @ @ 0 # $ % & .           ",
"                    ; : > , < 1 2 3 @ @ @ @ # $ % & .           ",
"                          * = - $ # @ @ @ @ # $ % & .           ",
"                            G Z 7 + @ @ @ @ # $ % & .           ",
"                            i H J K @ @ @ @ # $ % & .           ",
"                            V % L K @ @ @ @ # $ % & .           ",
"                          . & % $ # @ @ @ @ # $ % & .           ",
"                          . & % $ # @ @ @ @ # $ % & .           ",
"                          . & % $ # @ @ @ @ # $ % & .           ",
"                          . & % $ # @ @ @ @ # $ % & .           ",
"                            V % L K @ @ @ @ K L % V             ",
"                            i H J K @ @ @ @ K J H i             ",
"                            G P 7 + @ @ @ @ + 7 P G             ",
"                . .       * = - $ # @ @ @ @ # $ - = *       . . ",
"            I B c 5 & 5 i U < Y T 3 @ @ @ @ 3 T Y < U R E W W W ",
"          . B U Q Z ! ! ~ ^ / J ( z @ @ @ @ z ( J / ^ ) _ ! ` ` ",
"          . c ' ] n [ { } } | t  .h @ @ @ @ h  .t | ..X.o.O.....",
"          . E +.@.k #.3 $.K $.%.&.*.0 @ @ 0 *.&.%.$.+ #.#.+ + + ",
"          . i +.j s =.3 $.+ #.+ + + K K K K + + + #.#.#.#.#.#.#.",
"          . X -.b e ;.} ..X.;.:.L J >.>.>.>.J L :.;.,.X.,.,.,.,.",
"          . B W -.o _ ` ! ~ _ - % <.1.1.1.1.<.% - _ ~ ~ ~ ~ ~ ~ ",
"            I B c 5 = U U = = W W W W & & W W W W = = = = = = = ",
"              . . . 2.2.2.2.2.2.2.2.2.2.2.2.2.2.2.2.2.2.2.2.2.2.",
"                                                                "
};
