/* XPM */
static char *result[] = {
/* columns rows colors chars-per-pixel */
"32 32 170 2 ",
"   c #010100",
".  c black",
"X  c #161600",
"o  c #535300",
"O  c #9C9C00",
"+  c #DBDB00",
"@  c yellow",
"#  c #DADA00",
"$  c #989800",
"%  c #515100",
"&  c #030300",
"*  c #242400",
"=  c #5E5E00",
"-  c #A2A200",
";  c #DDDD00",
":  c #FDFD00",
">  c #DCDC00",
",  c #9E9E00",
"<  c #5B5B00",
"1  c #040400",
"2  c #070700",
"3  c #0E0E00",
"4  c #202000",
"5  c #414100",
"6  c #777700",
"7  c #B2B200",
"8  c #E2E200",
"9  c #FAFA00",
"0  c #FBFB00",
"q  c #EFEF00",
"w  c #E1E100",
"e  c #EEEE00",
"r  c #F9F900",
"t  c #E0E000",
"y  c #ACAC00",
"u  c #717100",
"i  c #0C0C00",
"p  c #1E1E00",
"a  c #363600",
"s  c #545400",
"d  c #A3A300",
"f  c #CFCF00",
"g  c #F8F800",
"h  c #E8E800",
"j  c #CDCD00",
"k  c #B3B300",
"l  c #A5A500",
"z  c #A4A400",
"x  c #A0A000",
"c  c #9D9D00",
"v  c #C6C600",
"b  c #F1F100",
"n  c #C3C300",
"m  c #979700",
"M  c #383800",
"N  c #636300",
"B  c #909000",
"V  c #D4D400",
"C  c #CECE00",
"Z  c #A1A100",
"A  c #787800",
"S  c #626200",
"D  c #5C5C00",
"F  c #5D5D00",
"G  c #616100",
"H  c #606000",
"J  c #5A5A00",
"K  c #565600",
"L  c #707000",
"P  c #C5C500",
"I  c #DFDF00",
"U  c #C4C400",
"Y  c #ABAB00",
"T  c #1D1D00",
"R  c #4C4C00",
"E  c #868600",
"W  c #BCBC00",
"Q  c #F5F500",
"!  c #FEFE00",
"~  c #AFAF00",
"^  c #747400",
"/  c #1C1C00",
"(  c #222200",
")  c #232300",
"_  c #262600",
"`  c #424200",
"'  c #767600",
"]  c #B0B000",
"[  c #4E4E00",
"{  c #878700",
"}  c #BDBD00",
"|  c #E9E900",
" . c #EAEA00",
".. c #BFBF00",
"X. c #8C8C00",
"o. c #0F0F00",
"O. c #757500",
"+. c #171700",
"@. c #3D3D00",
"#. c #6A6A00",
"$. c #939300",
"%. c #A9A900",
"&. c #8A8A00",
"*. c #313100",
"=. c #080800",
"-. c #101000",
";. c #2A2A00",
":. c #484800",
">. c #6B6B00",
",. c #969600",
"<. c #3E3E00",
"1. c #686800",
"2. c #666600",
"3. c #4F4F00",
"4. c #353500",
"5. c #181800",
"6. c #2C2C00",
"7. c #595900",
"8. c #848400",
"9. c #A7A700",
"0. c #DEDE00",
"q. c #F2F200",
"w. c #050500",
"e. c #0D0D00",
"r. c #1F1F00",
"t. c #252500",
"y. c #505000",
"u. c #BEBE00",
"i. c #F0F000",
"p. c #212100",
"a. c #404000",
"s. c #737300",
"d. c #ADAD00",
"f. c #F3F300",
"g. c #5F5F00",
"h. c #CACA00",
"j. c #C7C700",
"k. c #9A9A00",
"l. c #E3E300",
"z. c #AAAA00",
"x. c #060600",
"c. c #AEAE00",
"v. c #FCFC00",
"b. c #888800",
"n. c #191900",
"m. c #333300",
"M. c #9F9F00",
"N. c #CCCC00",
"B. c #E5E500",
"V. c #8B8B00",
"C. c #020200",
"Z. c #343400",
"A. c #A8A800",
"S. c #2E2E00",
"D. c #151500",
"F. c #373700",
"G. c #E6E600",
"H. c #C0C000",
"J. c #474700",
"K. c #303000",
"L. c #4D4D00",
"P. c #727200",
"I. c #555500",
"U. c #646400",
"Y. c #C9C900",
"T. c #B1B100",
"R. c #A6A600",
"E. c #E7E700",
"W. c #D9D900",
"Q. c white",
/* pixels */
"  . . . . . X o O + @ @ @ @ @ @ @ @ @ @ @ @ @ @ @ @ # $ % X . . ",
". . . . . & * = - ; : @ @ @ : : : : : : : : @ @ @ : > , < * & . ",
". . 1 2 3 4 5 6 7 8 9 0 q 8 ; + > > > + # > w e 9 r t y u 5 * X ",
".   i p a s 6 d f q g h j k l - d z z x c x y v w b h n m u < % ",
".   X M N B k V e 9 b C Z A S D F G H J K < L $ P h b I U Y , $ ",
".   T R E W I Q ! r t ~ ^ 5 * / p ( ) p / _ ` ' ] w r r e w > # ",
".   p [ { } + |  .> ..X.% p   . . . 1 2 o.4 5 O.] 8 ! @ @ @ @ @ ",
".   +.@.#.$.%.7 ] d &.H *.=.. . . . . -.;.:.>.,.n | @ @ @ @ @ @ ",
".   3 * <.K N 1.2.= 3.4.5.. . . . . 2 6.7.8.9.P 0.q.@ @ @ @ @ @ ",
". . w.e.X r.) t.t.( p X e.w.. . .   p y.&.u.I i.g 0 @ @ @ @ @ @ ",
". . .         . .   w.e.X p p.p / * a.s.d.t : @ @ @ 0 f.| w ; + ",
"  . . . . . . . . . . 5.4.3.D F J g.^ O h.b @ @ @ @ g I P ~ - O ",
". . . . . . . . . . =.*.H &.x l d d ~ v w g @ @ @ @ i.j.k.^ = s ",
". . . . . . . . .   p % X...+ l.w 0.w  .f.0 @ @ @ : I z.L a.* X ",
". . . . . . & x.3 r.a.^ c.t : @ @ @ @ @ @ @ v.r b t u.b.[ r.& . ",
". . . . . . x.n.m.% ^ M.N.b @ @ @ @ @ @ @ @ r B.N.c.V.F *.3 . . ",
"  . . . . . 3 m.g.V.c.N.B.r @ @ @ @ @ @ @ @ b N.M.^ y.*.5.x.. . ",
". . . . . C.r.% V...t b r v.@ @ @ @ @ @ @ : t c.^ a.r.e.x.& . . ",
". . 1 2 3 r.a.^ c.t : @ @ @ 9 q.| t ; t 8 # u.V.% p   . . . . . ",
".   i T Z.% ^ M.N.b @ @ @ @ q.# ..A.O O , k.8.D S.2 . . . . . . ",
".   D.F.H X.c.N.G.r @ @ @ @ h H.$.>.K % o o J.K.D.. . . . . . . ",
".   p L.{ u.t b r v.@ @ @ ! w ~ ^ 5 t.T r.) r.+.e.w.  . .       ",
". C.) J c + ! @ @ @ @ @ @ @ l.] O.` _ T r.* t.* * * * ) ) ) ) ) ",
". C.t.H A.| @ @ @ @ @ @ @ @ q j.k.P.D I.K J D = G N U.U.U.U.U.U.",
". C.t.H 9.| @ @ @ @ @ @ @ @ 0 l.Y.T.z x Z z l R.A.z.Y Y Y Y Y Y ",
". C.) J c + : @ @ @ ! @ @ : r b E.I # W.W.# # + + + + + + + + + ",
".   p [ b.} # l.w ; > > > > + + + # # # # # # # # # # # # # # # ",
".   D.M G b.c d - , c c c , M.Z d l R.9.R.R.R.R.R.R.R.R.R.R.R.R.",
".   i 4 M [ J F F < J J J J < F = H G G G G G G G G G G G G G G ",
". . w.i D.p ( * ) ) ) ) ) ) ) ) ) * * * * * * * * * * * * * * * ",
". . .       C.C.C.C.C.C.C.C.C.C.C.C.C.C.C.C.C.C.C.C.C.C.C.C.C.C.",
"  . . . . . . . . . . . . . . . . . . . . . . . . . . . . . . . "
};
