/* XPM */
static char *result[] = {
/* columns rows colors chars-per-pixel */
"8 8 3 1 ",
"  c black",
". c yellow",
"X c white",
/* pixels */
"  ......",
"     .. ",
"    ..  ",
"   .... ",
"      ..",
" ..   ..",
"  ..... ",
"        "
};
