/* XPM */
static char *result[] = {
/* columns rows colors chars-per-pixel */
"32 32 179 2 ",
"   c black",
".  c #010100",
"X  c #242400",
"o  c #636300",
"O  c #ABAB00",
"+  c #E9E900",
"@  c yellow",
"#  c #FEFE00",
"$  c #222200",
"%  c #5D5D00",
"&  c #A1A100",
"*  c #DBDB00",
"=  c #FCFC00",
"-  c #FDFD00",
";  c #1E1E00",
":  c #515100",
">  c #8C8C00",
",  c #BFBF00",
"<  c #E4E400",
"1  c #E2E200",
"2  c #DDDD00",
"3  c #DCDC00",
"4  c #DADA00",
"5  c #E0E000",
"6  c #E8E800",
"7  c #F2F200",
"8  c #FAFA00",
"9  c #FBFB00",
"0  c #F3F300",
"q  c #E1E100",
"w  c #161600",
"e  c #3C3C00",
"r  c #686800",
"t  c #8F8F00",
"y  c #A4A400",
"u  c #A9A900",
"i  c #A6A600",
"p  c #A0A000",
"a  c #9D9D00",
"s  c #C1C100",
"d  c #F8F800",
"f  c #C7C700",
"g  c #B2B200",
"h  c #A5A500",
"j  c #9F9F00",
"k  c #0D0D00",
"l  c #3E3E00",
"z  c #545400",
"x  c #616100",
"c  c #656500",
"v  c #646400",
"b  c #626200",
"n  c #606000",
"m  c #5A5A00",
"M  c #565600",
"N  c #5B5B00",
"B  c #6F6F00",
"V  c #959500",
"C  c #C2C200",
"Z  c #F1F100",
"A  c #C8C800",
"S  c #787800",
"D  c #585800",
"F  c #050500",
"G  c #1F1F00",
"H  c #232300",
"J  c #252500",
"K  c #1C1C00",
"L  c #262600",
"P  c #424200",
"I  c #757500",
"U  c #AFAF00",
"Y  c #DFDF00",
"T  c #AAAA00",
"R  c #717100",
"E  c #414100",
"W  c #171700",
"Q  c #040400",
"!  c #070700",
"~  c #0F0F00",
"^  c #202000",
"/  c #767600",
"(  c #B1B100",
")  c #F6F600",
"_  c #BDBD00",
"`  c #878700",
"'  c #4E4E00",
"]  c #030300",
"[  c #101000",
"{  c #2A2A00",
"}  c #484800",
"|  c #6B6B00",
" . c #999900",
".. c #E5E500",
"X. c #CACA00",
"o. c #A8A800",
"O. c #858500",
"+. c #595900",
"@. c #2E2E00",
"#. c #2C2C00",
"$. c #848400",
"%. c #C6C600",
"&. c #494900",
"*. c #151500",
"=. c #505000",
"-. c #8A8A00",
";. c #BEBE00",
":. c #0E0E00",
">. c #060600",
",. c #E3E300",
"<. c #B0B000",
"1. c #393900",
"2. c #575700",
"3. c #7B7B00",
"4. c #D3D300",
"5. c #EEEE00",
"6. c #989800",
"7. c #6C6C00",
"8. c #2B2B00",
"9. c #696900",
"0. c #949400",
"q. c #B7B700",
"w. c #D5D500",
"e. c #EFEF00",
"r. c #1D1D00",
"t. c #4F4F00",
"y. c #F0F000",
"u. c #F7F700",
"i. c #8B8B00",
"p. c #F9F900",
"a. c #404000",
"s. c #111100",
"d. c #3A3A00",
"f. c #6A6A00",
"g. c #939300",
"h. c #AEAE00",
"j. c #9E9E00",
"k. c #A2A200",
"l. c #CCCC00",
"z. c #9C9C00",
"x. c #5E5E00",
"c. c #555500",
"v. c #5F5F00",
"b. c #747400",
"n. c #C9C900",
"m. c #020200",
"M. c #212100",
"N. c #1B1B00",
"B. c #666600",
"V. c #353500",
"C. c #181800",
"Z. c #535300",
"A. c #9B9B00",
"S. c #3D3D00",
"D. c #A3A300",
"F. c #313100",
"G. c #080800",
"H. c #EAEA00",
"J. c #4D4D00",
"K. c #868600",
"L. c #B8B800",
"P. c #F5F500",
"I. c #D4D400",
"U. c #7C7C00",
"Y. c #7A7A00",
"T. c #CECE00",
"R. c #383800",
"E. c #D6D600",
"W. c #B9B900",
"Q. c #A7A700",
"!. c #D1D100",
"~. c #ECEC00",
"^. c #888800",
"/. c #343400",
"(. c #323200",
"). c #363600",
"_. c #0C0C00",
"`. c #0B0B00",
"'. c white",
/* pixels */
"          . X o O + @ @ @ @ @ @ @ @ @ @ @ @ @ # # @ @ @ @ @ @ @ ",
"          . $ % & * = @ @ @ - - - - # # # @ @ @ @ @ @ # # # - - ",
"          . ; : > , * < 1 2 3 * 4 3 5 6 7 8 @ @ @ @ 9 0 + q 2 4 ",
"          . w e r t y O u i y p a p O s * 7 @ @ @ @ d q f g h j ",
"          . k X l z x c v b n m M N B V C + @ @ @ @ Z A a S o D ",
"            F k w G H J X X H ; K L P I U 1 @ @ @ # Y T R E J W ",
"              . . . .     . Q ! ~ ^ E / ( q 8 @ ) 5 _ ` ' G ]   ",
"                              [ { } |  .f 6 Z ..X.o.O.+.@.k     ",
"                            ! #.+.$.o.X...Z 6 %. .| &.#.*.F     ",
"                          . ; =.-.;.5 ) @ 8 q ( / E ^ :.>.]     ",
"                    Q ! ~ ^ E I U q @ @ @ @ ,.<./ E ^ :.>.]     ",
"                  . k ^ 1.2.3.i 4.d @ @ @ @ 5.f 6.7.&.8.*.F     ",
"                  . W e 9.0.q.w.e.@ @ @ @ @ 8 < A u O.D @.k     ",
"                  . r.t.-.;.Y y.d 9 @ @ @ # 8 u.y.Y _ ` ' G ]   ",
"                    r.=.i.;.4 < 1 2 3 3 3 2 1 e.p.d Y O R a.X w ",
"                    s.d.f.g.o.h.T y & j j.k.<.l.+ p.y.X.z.I x.z ",
".                   >.G e c.o c o v.% +.2.x.b.j.l.e.u...n.<.k.z.",
"        . . . .   m.>.:.W G H X X H M.K N.X a.b.<.1 8 8 e.1 2 * ",
"    F k w G H J J $ ; w k F               m.H x.k.2 # @ @ @ @ @ ",
"  . :.X l M o r B.x.t.V.C.                  *.Z.A.* @ @ @ @ @ @ ",
"  . W S.f.g.u g <.D.-.n F.G.                *.Z.A.* @ @ @ @ @ @ ",
"  . ; ' ` _ * + H.3 , > : ; .             m.H x.k.2 # @ @ @ @ @ ",
"  . ; J.K._ 5 ) @ 8 q <.I E J K ; H H ; K J E I ( 1 8 8 e.1 2 * ",
"  . W d.B.0.L.4 P.@ u.I.h U.c x.n o o n x.c Y.k.T.e.u...n.<.k.z.",
"  . k G R.2.3.u E.d @ y.I.W.O Q.o.T T o.Q.O L.!.~.9 y.X.z.I x.z ",
"    Q ! :.^ E / ( q p.8 5.q * 4 4 * * 4 4 * q 5.p.d Y O R a.X w ",
"          m.G : > ;.4 ,.q * 4 4 4 4 4 4 4 4 * q ,.4 _ ^.t.G ]   ",
"            :./.n ` j.Q.Q.i i Q.i i i i Q.i i Q.Q.j.K.x.(.:.    ",
"            ! K ).J.N n x n x x x x x x x x n x n N J.V.K !     ",
"            Q _.*.; H X X X X X X X X X X X X X X H ; *.`.Q     ",
"              . . . m.m.m.m.m.m.m.m.m.m.m.m.m.m.m.m.. . .       ",
"                                                              . "
};
