/* XPM */
static char *result[] = {
/* columns rows colors chars-per-pixel */
"32 32 148 2 ",
"   c black",
".  c #010100",
"X  c #161600",
"o  c #545400",
"O  c #9C9C00",
"+  c #DBDB00",
"@  c #FEFE00",
"#  c yellow",
"$  c #DCDC00",
"%  c #9D9D00",
"&  c #5A5A00",
"*  c #232300",
"=  c #020200",
"-  c #030300",
";  c #242400",
":  c #5E5E00",
">  c #A2A200",
",  c #DDDD00",
"<  c #060600",
"1  c #0E0E00",
"2  c #1F1F00",
"3  c #404000",
"4  c #757500",
"5  c #B0B000",
"6  c #E2E200",
"7  c #181800",
"8  c #313100",
"9  c #4E4E00",
"0  c #717100",
"q  c #CACA00",
"w  c #EFEF00",
"e  c #0D0D00",
"r  c #5D5D00",
"t  c #888800",
"y  c #ABAB00",
"u  c #E6E600",
"i  c #FAFA00",
"p  c #505000",
"a  c #8B8B00",
"s  c #BEBE00",
"d  c #DFDF00",
"f  c #F0F000",
"g  c #F7F700",
"h  c #E1E100",
"j  c #F9F900",
"k  c #EEEE00",
"l  c #E8E800",
"z  c #F2F200",
"x  c #191900",
"c  c #323200",
"v  c #515100",
"b  c #A5A500",
"n  c #D4D400",
"m  c #EBEB00",
"M  c #CBCB00",
"N  c #B2B200",
"B  c #AFAF00",
"V  c #C0C000",
"C  c #DADA00",
"Z  c #5F5F00",
"A  c #F6F600",
"S  c #CDCD00",
"D  c #9B9B00",
"F  c #777700",
"G  c #747400",
"H  c #929200",
"J  c #BFBF00",
"K  c #E0E000",
"L  c #A9A900",
"P  c #6C6C00",
"I  c #414100",
"U  c #6B6B00",
"Y  c #A8A800",
"T  c #040400",
"R  c #070700",
"E  c #BDBD00",
"W  c #838300",
"Q  c #474700",
"!  c #565600",
"~  c #595900",
"^  c #222200",
"/  c #0C0C00",
"(  c #1D1D00",
")  c #343400",
"_  c #D0D000",
"`  c #F1F100",
"'  c #080800",
"]  c #4D4D00",
"[  c #979700",
"{  c #151500",
"}  c #373700",
"|  c #606000",
" . c #8C8C00",
".. c #D1D100",
"X. c #ECEC00",
"o. c #F8F800",
"O. c #999900",
"+. c #9A9A00",
"@. c #1B1B00",
"#. c #1E1E00",
"$. c #878700",
"%. c #FBFB00",
"&. c #050500",
"*. c #5C5C00",
"=. c #A1A100",
"-. c #9E9E00",
";. c #5B5B00",
":. c #E3E300",
">. c #424200",
",. c #252500",
"<. c #171700",
"1. c #E9E900",
"2. c #C7C700",
"3. c #727200",
"4. c #575700",
"5. c #636300",
"6. c #797900",
"7. c #EAEA00",
"8. c #C4C400",
"9. c #656500",
"0. c #A7A700",
"q. c #C8C800",
"w. c #B1B100",
"e. c #A3A300",
"r. c #AAAA00",
"t. c #B6B600",
"y. c #F4F400",
"u. c #F3F300",
"i. c #A6A600",
"p. c #FDFD00",
"a. c #E7E700",
"s. c #D8D800",
"d. c #D9D900",
"f. c #E4E400",
"g. c #DEDE00",
"h. c #393900",
"j. c #646400",
"k. c #212100",
"l. c #3A3A00",
"z. c #626200",
"x. c #C6C600",
"c. c #1C1C00",
"v. c #9F9F00",
"b. c #A0A000",
"n. c #616100",
"m. c #383800",
"M. c #202000",
"N. c white",
/* pixels */
"                .           X o O + @ # # # # # # @ $ % & * =   ",
"                          - ; : > , @ # # # # # # @ $ % & * =   ",
"                    - < 1 2 3 4 5 6 # # # # # # # @ $ % & * =   ",
"                    < 7 8 9 0 O q w # # # # # # # @ $ % & * =   ",
"                    e 8 r t y q u i # # # # # # # @ $ % & * =   ",
"                  = 2 p a s d f g i @ # # # # # # @ $ % & * =   ",
"            - < 1 2 3 4 5 h j j k 6 h l z i # # # @ $ % & * =   ",
"            < x c v 4 b n g # m M N B V C z # # # @ $ % & * =   ",
".           1 c Z a 5 n z # A S D F G H J l # # # @ $ % & * =   ",
"          = 2 v a J h g # i K L P I I U Y K # # # # $ % & * =   ",
"    T R 1 2 3 4 B K j # A K E W Q 2 ; ! O $ # # # # $ % ~ ^     ",
"  . / ( ) v G > _ ` j m S L W v ^ ' X ] [ C # # # # + D ! (     ",
"  . { } |  .B ..X.o.k M D P Q ^ R   { p O.C # # # # C +.o @.    ",
"  . #.] $.s h g # %.6 N F I 2 '   &.* *.=., # # # # $ -.;.; -   ",
"  = * & % + # # # # :.5 4 >.,.<.X ; I G B h # # # # h y 0 I ,.<.",
"  = ,.| Y 1.# # # # w 2.O.3.r o 4.5.6.% 2.7.# # # # 7.8.D 6.9.;.",
"  = ,.| 0.1.# # # # %.:.q.w.b =.e.r.t.q K y.# # # # u.d q.t.y i.",
"  = * & % + p.# # # j ` a.d C s.d.+ K l z i # # # # i ` l K + d.",
"  . #.9 t s + f.:.g.$ $ $ + + C C + K l z i # # # # i ` l K + d.",
"  . X h.j.a =.0.i.> e.b 0.L r.L Y y t.q K y.# # # # u.d q.t.y i.",
"  . e k.l.p r | | : : | z.5.5.| Z 9.6.% x.7.# # # # 7.8.D 6.9.;.",
"    &./ { #.^ ; * * * * * * * #.c.,.I G B h # # # # h y 0 I ,.<.",
"        . . . . . . . . . .       - ; Z e.g.# # # # , v.;.; -   ",
".                                   @.& e.h # # # # K -.4.c.    ",
"                                    #.*.b f.# # # # 6 b.~ #.    ",
"                                    k.*.b.+ p.# # p.C O ~ k.    ",
"                                  . #.p a s + 1.1.+ E t 9 #..   ",
"                                  . { l.j.t % 0.0.% t n.m.{ .   ",
"                                    / k.h.9 & | | & 9 m.M./ .   ",
"                                    &.e X #.* ,.,.* #.{ / &.    ",
"                                      . . . = = = = . . .       ",
"                                .                             . "
};
