/* XPM */
static char *result[] = {
/* columns rows colors chars-per-pixel */
"32 32 159 2 ",
"   c black",
".  c #020200",
"X  c #232300",
"o  c #5A5A00",
"O  c #9D9D00",
"+  c #DCDC00",
"@  c #FEFE00",
"#  c yellow",
"$  c #E8E800",
"%  c #A6A600",
"&  c #5F5F00",
"*  c #242400",
"=  c #FDFD00",
"-  c #FCFC00",
";  c #DADA00",
":  c #222200",
">  c #FAFA00",
",  c #F2F200",
"<  c #E0E000",
"1  c #DBDB00",
"2  c #E1E100",
"3  c #E3E300",
"4  c #BDBD00",
"5  c #878700",
"6  c #4E4E00",
"7  c #1E1E00",
"8  c #010100",
"9  c #C2C200",
"0  c #ABAB00",
"q  c #9F9F00",
"w  c #9B9B00",
"e  c #9C9C00",
"r  c #9E9E00",
"t  c #A3A300",
"y  c #A4A400",
"u  c #888800",
"i  c #626200",
"p  c #383800",
"a  c #151500",
"s  c #E9E900",
"d  c #969600",
"f  c #6F6F00",
"g  c #535300",
"h  c #545400",
"j  c #585800",
"k  c #595900",
"l  c #5B5B00",
"z  c #5C5C00",
"x  c #4C4C00",
"c  c #373700",
"v  c #1F1F00",
"b  c #0C0C00",
"n  c #E2E200",
"m  c #AFAF00",
"M  c #757500",
"N  c #424200",
"B  c #262600",
"V  c #1D1D00",
"C  c #252500",
"Z  c #202000",
"A  c #171700",
"S  c #0D0D00",
"D  c #050500",
"F  c #DDDD00",
"G  c #B0B000",
"H  c #161600",
"J  c #040400",
"K  c #5D5D00",
"L  c #A2A200",
"P  c #EFEF00",
"I  c #C7C700",
"U  c #9A9A00",
"Y  c #727200",
"T  c #555500",
"R  c #575700",
"E  c #484800",
"W  c #313100",
"Q  c #191900",
"!  c #060600",
"~  c #FBFB00",
"^  c #C9C900",
"/  c #B1B100",
"(  c #A0A000",
")  c #A1A100",
"_  c #A5A500",
"`  c #848400",
"'  c #F9F900",
"]  c #F1F100",
"[  c #E7E700",
"{  c #DFDF00",
"}  c #D9D900",
"|  c #4F4F00",
" . c #030300",
".. c #BEBE00",
"X. c #E4E400",
"o. c #DEDE00",
"O. c #EEEE00",
"+. c #F8F800",
"@. c #717100",
"#. c #404000",
"$. c #393900",
"%. c #646400",
"&. c #8B8B00",
"*. c #A7A700",
"=. c #A9A900",
"-. c #AAAA00",
";. c #A8A800",
":. c #B8B800",
">. c #D1D100",
",. c #ECEC00",
"<. c #F0F000",
"1. c #CACA00",
"2. c #5E5E00",
"3. c #212100",
"4. c #3A3A00",
"5. c #505000",
"6. c #606000",
"7. c #636300",
"8. c #656500",
"9. c #7A7A00",
"0. c #CECE00",
"q. c #F7F700",
"w. c #E5E500",
"e. c #1C1C00",
"r. c #414100",
"t. c #1B1B00",
"y. c #0E0E00",
"u. c #3E3E00",
"i. c #565600",
"p. c #686800",
"a. c #666600",
"s. c #070700",
"d. c #3D3D00",
"f. c #6A6A00",
"g. c #939300",
"h. c #B2B200",
"j. c #353500",
"k. c #EAEA00",
"l. c #BFBF00",
"z. c #8C8C00",
"x. c #525200",
"c. c #4D4D00",
"v. c #868600",
"b. c #F6F600",
"n. c #949400",
"m. c #F5F500",
"M. c #D4D400",
"N. c #7C7C00",
"B. c #7B7B00",
"V. c #D6D600",
"C. c #B9B900",
"Z. c #767600",
"A. c #515100",
"S. c #343400",
"D. c #323200",
"F. c #363600",
"G. c #616100",
"H. c #0B0B00",
"J. c white",
/* pixels */
"  . X o O + @ # # # # # # # # # # # # # # # # # # # $ % & * .   ",
"  . X o O + @ # # # # @ @ @ = = = = = = = = # # # - ; O o : .   ",
"  . X o O + @ # # # > , $ < + ; ; 1 1 1 1 1 + 2 3 ; 4 5 6 7 8   ",
"  . X o O + @ # # # , + 9 0 q w e r r r r r q t y O u i p a 8   ",
"  . X o O + @ # # # s 9 d f o g h j k k k k k l z j x c v b 8   ",
"  . X o O + # # # # n m M N B V v * C C C C C B B * Z A S D     ",
"  . X l r F # # # # 3 G M N B V v * C C C C C C C * v H b J     ",
"  . X K L 2 # # # # P I U Y z T R o l l l l l l o T E W Q !     ",
"  . * K t 3 # # # # ~ 3 ^ / y ( ) t y y y y t _ y w ` z W S     ",
"  . : o O ; - # # # ' ] [ { ; } } ; ; ; ; ; 1 < 3 ; 4 u | v  .  ",
"  8 7 6 u ..1 X.3 o.+ + + 1 1 1 1 1 1 ; ; 1 2 O.' +.{ 0 @.#.* H ",
"  8 H $.%.&.) *.% L t _ *.=.0 0 0 0 -.;.*.0 :.>.,.~ <.1.e M 2.h ",
"  8 S 3.4.5.K 6.6.2.2.6.i 7.%.%.%.%.7.6.2.8.9.L 0.P q.w.^ G L e ",
"    D b a 7 : * X X X X X X X * * * X 7 e.C r.M / n > > P n F 1 ",
"                      8 8 8 8 8 8 8        .* 2.L F = # # # @ @ ",
"8                                           t.R r 1 # # # # # # ",
"8                                           V k q + # # # # # # ",
"                                            3.K ) + @ # # # # # ",
"    D S H v X C C : 7 a b J                 3.K ) + @ # # # # # ",
"  8 y.* u.i.7.p.a.2.5.p 7 s.                V k q + # # # # # # ",
"  8 A d.f.g.=.h.m t &.7.j.y.                t.R r 1 # # # # # # ",
"  8 7 6 5 4 1 s k.+ l.z.x.v  .             .* 2.L F = # # # @ @ ",
"  8 7 c.v.4 < b.# > 2 G M r.C e.7 X X 7 e.C r.M / n > > P n F 1 ",
"  8 A 4.a.n.:.; m.# q.M._ N.8.2.6.7.7.6.2.8.9.L 0.P q.w.^ G L e ",
"  8 S v p R B.=.V.+.# <.M.C.0 *.;.-.-.;.*.0 :.>.,.~ <.1.e M 2.h ",
"    J s.y.Z r.Z./ 2 ' > O.2 1 ; ; 1 1 ; ; 1 2 O.' +.{ 0 @.#.* H ",
"          . v A.z...; 3 2 1 ; ; ; ; ; ; ; ; 1 2 3 ; 4 u | v  .  ",
"            y.S.6.5 r *.*.% % *.% % % % *.% % *.*.r v.2.D.y.    ",
"            s.e.F.c.l 6.G.6.G.G.G.G.G.G.G.G.6.G.6.l c.j.e.s.    ",
"            J b a 7 X * * * * * * * * * * * * * * X 7 a H.J     ",
"              8 8 8 . . . . . . . . . . . . . . . . 8 8 8       ",
"                                                              8 "
};
