/* XPM */
static char *result[] = {
/* columns rows colors chars-per-pixel */
"32 32 154 2 ",
"   c black",
".  c #161600",
"X  c #535300",
"o  c #9C9C00",
"O  c #DBDB00",
"+  c yellow",
"@  c #E8E800",
"#  c #A6A600",
"$  c #5F5F00",
"%  c #242400",
"&  c #020200",
"*  c #030300",
"=  c #5E5E00",
"-  c #A2A200",
";  c #DDDD00",
":  c #FDFD00",
">  c #FCFC00",
",  c #DADA00",
"<  c #9D9D00",
"1  c #5A5A00",
"2  c #222200",
"3  c #060600",
"4  c #0E0E00",
"5  c #1F1F00",
"6  c #404000",
"7  c #767600",
"8  c #B1B100",
"9  c #E2E200",
"0  c #FAFA00",
"q  c #FBFB00",
"w  c #EFEF00",
"e  c #DCDC00",
"r  c #E4E400",
"t  c #BEBE00",
"y  c #888800",
"u  c #4E4E00",
"i  c #1E1E00",
"p  c #010100",
"a  c #181800",
"s  c #313100",
"d  c #717100",
"f  c #9F9F00",
"g  c #CDCD00",
"h  c #EEEE00",
"j  c #F8F800",
"k  c #B3B300",
"l  c #A5A500",
"z  c #A1A100",
"x  c #A4A400",
"c  c #A9A900",
"v  c #ABAB00",
"b  c #8E8E00",
"n  c #666600",
"m  c #3A3A00",
"M  c #0D0D00",
"N  c #5D5D00",
"B  c #ACAC00",
"V  c #CFCF00",
"C  c #EBEB00",
"Z  c #F9F900",
"A  c #F1F100",
"S  c #787800",
"D  c #626200",
"F  c #5C5C00",
"G  c #616100",
"H  c #646400",
"J  c #656500",
"K  c #545400",
"L  c #3C3C00",
"P  c #505000",
"I  c #8B8B00",
"U  c #E0E000",
"Y  c #F6F600",
"T  c #AFAF00",
"R  c #747400",
"E  c #414100",
"W  c #252500",
"Q  c #1C1C00",
"!  c #232300",
"~  c #0C0C00",
"^  c #050500",
"/  c #040400",
"(  c #070700",
")  c #757500",
"_  c #8A8A00",
"`  c #1D1D00",
"'  c #343400",
"]  c #515100",
"[  c #D0D000",
"{  c #858500",
"}  c #595900",
"|  c #2C2C00",
" . c #151500",
".. c #373700",
"X. c #606000",
"o. c #8C8C00",
"O. c #D1D100",
"+. c #ECEC00",
"@. c #CBCB00",
"#. c #9B9B00",
"$. c #6C6C00",
"%. c #484800",
"&. c #292900",
"*. c #101000",
"=. c #4D4D00",
"-. c #878700",
";. c #E1E100",
":. c #F7F700",
">. c #B2B200",
",. c #777700",
"<. c #202000",
"1. c #0F0F00",
"2. c #424200",
"3. c #262600",
"4. c #0B0B00",
"5. c #A3A300",
"6. c #E3E300",
"7. c #E9E900",
"8. c #C2C200",
"9. c #979700",
"0. c #636300",
"q. c #F3F300",
"w. c #C5C500",
"e. c #B0B000",
"r. c #AAAA00",
"t. c #333300",
"y. c #5B5B00",
"u. c #9E9E00",
"i. c #DFDF00",
"p. c #D9D900",
"a. c #898900",
"s. c #4F4F00",
"d. c #FEFE00",
"f. c #F2F200",
"g. c #F4F400",
"h. c #CACA00",
"j. c #B6B600",
"k. c #A8A800",
"l. c #A7A700",
"z. c #B8B800",
"x. c #F0F000",
"c. c #EAEA00",
"v. c #C6C600",
"b. c #797900",
"n. c #7A7A00",
"m. c #CECE00",
"M. c #E5E500",
"N. c #C9C900",
"B. c #BDBD00",
"V. c #868600",
"C. c #323200",
"Z. c #363600",
"A. c #353500",
"S. c white",
/* pixels */
"                    . X o O + + + + + + + + + + + + @ # $ % &   ",
"                  * % = - ; : + + + : : : : + + + > , < 1 2 &   ",
"            * 3 4 5 6 7 8 9 0 q w 9 ; O e e ; 9 r O t y u i p   ",
"            3 a s u d f g h j @ g k l z - x # c v x b n m . p   ",
"            M s N y B V C Z A V z S D F N G D H J G K L 2 M p   ",
"          & 5 P I t U Y + Z U T R E W Q i 2 ! % W ! i . ~ ^     ",
"    / ( 4 5 6 ) T U Z + Y U t _ P i p                           ",
"  p ~ ` ' ] R - [ A Z C g c { } | (                           p ",
"  p  ...X.o.T O.+.j h @.#.$.%.&.*.                            p ",
"  p i =.-.t ;.:.+ q 9 >.,.E <.1.( /                             ",
"  & 2 1 < , : + + + 9 T ) 2.3.` i ! % ! % ! % % % 2 `  .4./     ",
"  & % = 5.6.+ + + + 7.8.9.d N } F D H J J H H H 0.= P ..Q (     ",
"  & ! N - ;.+ + + + q.; w.e.l 5.# c v v v v r.B v - _ X.t.4     ",
"  & ! y.u.; + + + + 0 A @ i., p., O O O O O e 9 r O t a.s.5 *   ",
"  & ! 1 < e d.+ + + 0 f.@ U O , , O O , , O ;.h Z j i.v d 6 % . ",
"  & ! 1 < e d.+ + + g.U h.j.v k.k.r.r.k.l.v z.O.+.q x.h.o ) = K ",
"  & ! 1 < e d.+ + + c.v.< b.J $ X.0.0.X.= J n.- m.w :.M.N.e.- o ",
"  & ! 1 < e + + + + ;.T R E W Q i ! ! i Q W E ) 8 9 0 0 w 9 ; O ",
"  & ! y.u.; + + + + ; - N ! &             & ! = - ; d.+ + + + + ",
"  & ! N - ;.+ + + + O o X  .                 .X #.O + + + + + + ",
"  & % = 5.6.+ + + + O o X  .                 .X #.O + + + + + + ",
"  & 2 1 < , d.+ + + ; - = ! &             & ! = - ; d.+ + + + + ",
"  p i =.-.t ;.:.+ q 9 8 ) E W Q i ! ! i Q W E ) 8 9 0 0 w 9 ; O ",
"  p  ...X.o.T [ C j w m.- n.J = X.0.0.X.= J n.- m.w :.M.N.e.- o ",
"  p ~ ` ' ] R - V A q +.O.z.v l.k.r.r.k.l.v z.O.+.q x.h.o ) = K ",
"    / ( 4 5 6 ) T U j Z h ;.O , , O O , , O ;.h Z j i.v d 6 % . ",
"          & 5 ] o.t , 6.;.O , , , , , , , , O ;.6., B.y s.5 *   ",
"            4 ' X.-.u.l.l.# # l.# # # # l.# # l.l.u.V.= C.4     ",
"            ( Q Z.=.y.X.G X.G G G G G G G G X.G X.y.=.A.Q (     ",
"            / ~  .i ! % % % % % % % % % % % % % % ! i  .4./     ",
"              p p p & & & & & & & & & & & & & & & & p p p       ",
"                                                              p "
};
