/* XPM */
static char *result[] = {
/* columns rows colors chars-per-pixel */
"32 32 144 2 ",
"   c black",
".  c #020200",
"X  c #232300",
"o  c #5A5A00",
"O  c #9D9D00",
"+  c #DCDC00",
"@  c #FEFE00",
"#  c yellow",
"$  c #FDFD00",
"%  c #5B5B00",
"&  c #9E9E00",
"*  c #DDDD00",
"=  c #FBFB00",
"-  c #F3F300",
";  c #EAEA00",
":  c #E1E100",
">  c #DBDB00",
",  c #DADA00",
"<  c #E0E000",
"1  c #E8E800",
"2  c #F2F200",
"3  c #FAFA00",
"4  c #5C5C00",
"5  c #A2A200",
"6  c #F8F800",
"7  c #E2E200",
"8  c #C8C800",
"9  c #B2B200",
"0  c #A5A500",
"q  c #A3A300",
"w  c #A4A400",
"e  c #A0A000",
"r  c #ABAB00",
"t  c #C1C100",
"y  c #242400",
"u  c #5D5D00",
"i  c #E3E300",
"p  c #F1F100",
"a  c #CBCB00",
"s  c #787800",
"d  c #626200",
"f  c #616100",
"g  c #606000",
"h  c #565600",
"j  c #6F6F00",
"k  c #959500",
"l  c #C2C200",
"z  c #E9E900",
"x  c #222200",
"c  c #AEAE00",
"v  c #737300",
"b  c #414100",
"n  c #1C1C00",
"m  c #1E1E00",
"M  c #262600",
"N  c #424200",
"B  c #757500",
"V  c #AFAF00",
"C  c #010100",
"Z  c #4E4E00",
"A  c #888800",
"S  c #BEBE00",
"D  c #BFBF00",
"F  c #8C8C00",
"G  c #525200",
"H  c #1F1F00",
"J  c #040400",
"K  c #070700",
"L  c #0F0F00",
"P  c #202000",
"I  c #777700",
"U  c #EFEF00",
"Y  c #161600",
"T  c #393900",
"R  c #646400",
"E  c #8B8B00",
"W  c #ACAC00",
"Q  c #A1A100",
"!  c #636300",
"~  c #363600",
"^  c #0E0E00",
"/  c #101000",
"(  c #292900",
")  c #484800",
"_  c #6C6C00",
"`  c #9B9B00",
"'  c #EEEE00",
"]  c #F7F700",
"[  c #E6E600",
"{  c #CACA00",
"}  c #B0B000",
"|  c #9C9C00",
" . c #0D0D00",
".. c #212100",
"X. c #3A3A00",
"o. c #505000",
"O. c #2C2C00",
"+. c #585800",
"@. c #848400",
"#. c #A9A900",
"$. c #CDCD00",
"%. c #EBEB00",
"&. c #F9F900",
"*. c #F0F000",
"=. c #5E5E00",
"-. c #545400",
";. c #050500",
":. c #0C0C00",
">. c #151500",
",. c #252500",
"<. c #8A8A00",
"1. c #F6F600",
"2. c #DFDF00",
"3. c #717100",
"4. c #404000",
"5. c #030300",
"6. c #060600",
"7. c #191900",
"8. c #333300",
"9. c #515100",
"0. c #D4D400",
"q. c #313100",
"w. c #5F5F00",
"e. c #181800",
"r. c #353500",
"t. c #747400",
"y. c #D0D000",
"u. c #EDED00",
"i. c #D2D200",
"p. c #323200",
"a. c #CECE00",
"s. c #B1B100",
"d. c #767600",
"f. c #A8A800",
"g. c #E4E400",
"h. c #575700",
"j. c #1B1B00",
"k. c #A6A600",
"l. c #9F9F00",
"z. c #595900",
"x. c #1D1D00",
"c. c #DEDE00",
"v. c #A7A700",
"b. c white",
/* pixels */
"  . X o O + @ # # # # # # # # # # # # # # # # # # # # # # # # # ",
"  . X o O + @ # # # # @ @ @ $ $ $ $ $ $ $ $ @ @ @ # # # # # # # ",
"  . X % & * # # # # = - ; : * > + + + > , + < 1 2 3 # # # # # # ",
"  . X 4 5 : # # # # 6 7 8 9 0 5 q w w e O e r t > 2 # # # # # # ",
"  . y u q i # # # # p a & s d 4 u f g o h % j k l z # # # # # # ",
"  . x o O , $ # # @ < c v b y n m x X m n M N B V 7 @ # # # @ @ ",
"  C m Z A S + ; ; + D F G H .       J K L P b I 9 7 3 3 U 7 * > ",
"  C Y T R E 5 W W Q E ! ~ ^           / ( ) _ ` a ' ] [ { } 5 | ",
"  C  ...X.o.u ! ! u o.T m K         K O.+.@.#.$.%.&.*.{ | B =.-.",
"    ;.:.>.m x ,.,.x m >.:.J       C m o.<.S < 1.# &.2.r 3.4.y Y ",
"        C C C C C C C       5.6.^ H 4.B } : 3 # ] : S A Z H 5.  ",
"C                           6.7.8.9.B 0 0.] # 2 0.} E u q.^     ",
"                            ^ 8.w.E } 0.2 # ] 0.0 B o.q.e.6.    ",
"                          . H 9.E D : ] # 3 : } B 4.H  .6.5.    ",
"                    J K ^ H 4.B V < &.# 1.: D E 9.H .           ",
"                    :.m r.G t.5 y.p 3 u.i.V E w.p.^           C ",
"                  C >.T ! F V y.%.6 U a.Q t.9.8.7.6.            ",
"                  C m o.E D : ] # = 7 s.d.4.H ^ 6.5.            ",
"                  C x u Q > @ # # # * 5 =.y 5.                  ",
"                  C y f f.g.# # # # > & h.j.                    ",
"                  C X g k.7 # # # # + l.z.x.                    ",
"                  C X =.5 c.# # # # + Q u ..                    ",
"                  C X =.5 c.# # # # c.5 =.X C                   ",
"                  C X g k.7 # # # # 7 k.g X C                   ",
"                  C y f v.g.# # # # g.v.f y C                   ",
"                  C x u Q > $ # # $ > Q u x C                   ",
"                  C m o.E S > z z > S E o.m C                   ",
"                  C >.X.R A O v.v.O A R X.>.C                   ",
"                    :...T Z o g g o Z T ..:.                    ",
"                    ;. .Y m X ,.,.X m Y  .;.                    ",
"                      C C C . . . . C C C                       ",
"                C                             C                 "
};
