/* XPM */
static char *result[] = {
/* columns rows colors chars-per-pixel */
"32 32 186 2 ",
"   c #010100",
".  c black",
"X  c #161600",
"o  c #535300",
"O  c #9C9C00",
"+  c #DBDB00",
"@  c yellow",
"#  c #E7E700",
"$  c #A5A500",
"%  c #595900",
"&  c #181800",
"*  c #030300",
"=  c #242400",
"-  c #5E5E00",
";  c #A2A200",
":  c #DDDD00",
">  c #FDFD00",
",  c #FCFC00",
"<  c #A1A100",
"1  c #040400",
"2  c #070700",
"3  c #0E0E00",
"4  c #1F1F00",
"5  c #404000",
"6  c #757500",
"7  c #B0B000",
"8  c #E1E100",
"9  c #F9F900",
"0  c #FAFA00",
"q  c #EEEE00",
"w  c #DCDC00",
"e  c #DADA00",
"r  c #E3E300",
"t  c #C4C400",
"y  c #999900",
"u  c #686800",
"i  c #3B3B00",
"p  c #0F0F00",
"a  c #0B0B00",
"s  c #1C1C00",
"d  c #323200",
"f  c #4F4F00",
"g  c #707000",
"h  c #C8C800",
"j  c #E9E900",
"k  c #F1F100",
"l  c #C6C600",
"z  c #ACAC00",
"x  c #A0A000",
"c  c #9D9D00",
"v  c #A4A400",
"b  c #A7A700",
"n  c #A8A800",
"m  c #9B9B00",
"M  c #8C8C00",
"N  c #797900",
"B  c #646400",
"V  c #4E4E00",
"C  c #353500",
"Z  c #1E1E00",
"A  c #0C0C00",
"S  c #151500",
"D  c #888800",
"F  c #ABAB00",
"G  c #CBCB00",
"H  c #E5E500",
"J  c #F2F200",
"K  c #E8E800",
"L  c #C5C500",
"P  c #989800",
"I  c #5B5B00",
"U  c #565600",
"Y  c #5A5A00",
"T  c #606000",
"R  c #616100",
"E  c #626200",
"W  c #6A6A00",
"Q  c #7C7C00",
"!  c #8D8D00",
"~  c #959500",
"^  c #878700",
"/  c #636300",
"(  c #393900",
")  c #4D4D00",
"_  c #868600",
"`  c #BDBD00",
"'  c #E0E000",
"]  c #F6F600",
"[  c #767600",
"{  c #424200",
"}  c #262600",
"|  c #232300",
" . c #1D1D00",
".. c #3D3D00",
"X. c #6D6D00",
"o. c #C2C200",
"O. c #BCBC00",
"+. c #8E8E00",
"@. c #525200",
"#. c #020200",
"$. c #FEFE00",
"%. c #E2E200",
"&. c #414100",
"*. c #202000",
"=. c #A6A600",
"-. c #252500",
";. c #C3C300",
":. c #969600",
">. c #6B6B00",
",. c #484800",
"<. c #2A2A00",
"1. c #101000",
"2. c #AFAF00",
"3. c #B1B100",
"4. c #676700",
"5. c #DEDE00",
"6. c #848400",
"7. c #2C2C00",
"8. c #FBFB00",
"9. c #F8F800",
"0. c #F0F000",
"q. c #DFDF00",
"w. c #BEBE00",
"e. c #8A8A00",
"r. c #505000",
"t. c #AEAE00",
"y. c #737300",
"u. c #222200",
"i. c #3C3C00",
"p. c #6C6C00",
"a. c #C1C100",
"s. c #343400",
"d. c #5C5C00",
"f. c #C7C700",
"g. c #F7F700",
"h. c #CECE00",
"j. c #9F9F00",
"k. c #555500",
"l. c #575700",
"z. c #5D5D00",
"x. c #666600",
"c. c #787800",
"v. c #929200",
"b. c #5F5F00",
"n. c #191900",
"m. c #2E2E00",
"M. c #4A4A00",
"N. c #CACA00",
"B. c #A3A300",
"V. c #747400",
"C. c #9A9A00",
"Z. c #696900",
"A. c #090900",
"S. c #050500",
"D. c #080800",
"F. c #313100",
"G. c #494900",
"H. c #6E6E00",
"J. c #515100",
"K. c #383800",
"L. c #858500",
"P. c #9E9E00",
"I. c #E4E400",
"U. c #8B8B00",
"Y. c #2F2F00",
"T. c #AAAA00",
"R. c #303000",
"E. c #474700",
"W. c #0D0D00",
"Q. c #171700",
"!. c #8F8F00",
"~. c #434300",
"^. c #EFEF00",
"/. c #919100",
"(. c #7F7F00",
"). c #C9C900",
"_. c #373700",
"`. c #7D7D00",
"'. c #ADAD00",
"]. c #B2B200",
"[. c #CDCD00",
"{. c #545400",
"}. c #D9D900",
"|. c #EDED00",
" X c #717100",
".X c white",
/* pixels */
"  . . . . . X o O + @ @ @ @ @ @ @ @ @ @ @ @ # $ % & . . . . .   ",
". . . . . * = - ; : > @ @ @ > > > > @ @ @ , + < - = * . . . . . ",
". . 1 2 3 4 5 6 7 8 9 0 q 8 w e + w : 8 r + t y u i 4 p 2 1 . . ",
".   a s d f g O h j k 8 l z x c x v $ b n v m M N B V C Z A   . ",
".   S C - D F G H J K L P g I U Y T R T T E W Q ! ~ ^ / ( X   . ",
".   Z ) _ ` ' ] @ 0 8 7 [ { } s Z | | Z  .= ..X.x o.O.+.@.4   . ",
". #.| Y c + $.@ @ @ %.7 6 &.*.p 2 1 . . .   = B F + e =.R = #.. ",
". #.-.T n j @ @ @ @ j ;.:.>.,.<.1.. . . . . & T 2.# K 3.4.} #.. ",
". #.-.T n j @ @ @ @ J 5.L b 6.% 7.2 . . . . & T 2.# K 3.4.} #.. ",
". #.| Y c + $.@ @ @ 8.9.0.q.w.e.r.Z . . .   = B F + e =.R = #.. ",
".   Z ) _ ` q.k 9 , @ @ @ $.8 t.y.5 | X X u.i.p.x a.O.! @.Z . . ",
".   S s.d._ n f.%.9.@ @ @ @ g.h.j.6 - k.l.z.x.c.e.v.6.b.s.p . . ",
".   a n.m.M.p.y h 0.@ @ @ @ @ # N.7 B.x < < P D V.- ,.m.X * . . ",
". . 1 2 p *.&.6 2.' > @ @ @ 0 J j 8 5.' %.+ t C.Z.i.*.1.A.S.#.. ",
". . 1 D.1.*.i.Z.C.t + %.' 5.8 j J 0 @ @ @ $.8 2.V.&.-.s  .u.u.u.",
".   a s F.G.- V.D P < < x B.7 N.# @ @ @ @ @ ] N.P H.l.J.k.I z.- ",
".   S K.E L.v.e.c.x.z.l.k.- 6 P.h.g.@ @ @ @ @ I.L F O C.O x ; ; ",
".   4 @.+.O.a.j.p.i.u.X X | 5 y.t.8 $.@ @ @ 0 J K ' w + + w : : ",
". #.= R =.e + F B =   . . . Z r.U.w.e %.' : ' K k 9 $.@ @ @ @ @ ",
". #.} 4.3.K # 2.T & . . . . 2 Y.d.6.C.P.O O T.;.' 9 @ @ @ @ @ @ ",
". #.} 4.3.K # 2.T & . . . . . S R.E.o o J.U p.~ t q @ @ @ @ @ @ ",
". #.= R =.e + F B =   . . . S.W.Q.4 | 4  .-.&.V.2.%.@ @ @ @ @ @ ",
".   4 o !.` ;.< X...=  .4 | = = = -.= 4  .} ~.[ 3.%.0 0 ^.%.: + ",
".   X i x.U.P /.(.X.B E / B / R - d.Y U k.d.y.O G q g.H ).7 ; O ",
".   A 4 _.J.4.`./.< T.t.'.F T.n =.$ v < x v ].[.j 0 0.N.O 6 - {.",
". . 1 2 p 4 i 4.P ;.e %.' w + + + e e }.}.e ' |.9.9.q.F  X5 = X ",
". . . . . #.4 J.U.` }.%.' + e e e e e e e e + 8 r e ` D f 4 * . ",
". . . . . . p _.x.!.$ z F b =.=.=.=.=.=.b =.=.b b P._ - d 3 . . ",
". . . . . . 2 4 i o T B / R R R R R R R R R T R T I ) C s 2 . . ",
". . . . . . 1 A X 4 | -.-.= = = = = = = = = = = = | Z S a 1 . . ",
". . . . . . .       #.#.#.#.#.#.#.#.#.#.#.#.#.#.#.#.      . . . ",
". . . . . . . . . . . . . . . . . . . . . . . . . . . . . . .   "
};
