/* XPM */
static char *result[] = {
/* columns rows colors chars-per-pixel */
"32 32 164 2 ",
"   c #010100",
".  c black",
"X  c #161600",
"o  c #535300",
"O  c #9C9C00",
"+  c #DBDB00",
"@  c yellow",
"#  c #DADA00",
"$  c #989800",
"%  c #515100",
"&  c #030300",
"*  c #242400",
"=  c #5E5E00",
"-  c #A2A200",
";  c #DDDD00",
":  c #FDFD00",
">  c #DCDC00",
",  c #9E9E00",
"<  c #5B5B00",
"1  c #040400",
"2  c #070700",
"3  c #0E0E00",
"4  c #1F1F00",
"5  c #404000",
"6  c #757500",
"7  c #B0B000",
"8  c #E1E100",
"9  c #F9F900",
"0  c #FAFA00",
"q  c #EFEF00",
"w  c #E2E200",
"e  c #E0E000",
"r  c #ACAC00",
"t  c #717100",
"y  c #414100",
"u  c #0B0B00",
"i  c #1C1C00",
"p  c #323200",
"a  c #4F4F00",
"s  c #707000",
"d  c #C8C800",
"f  c #E9E900",
"g  c #F2F200",
"h  c #E4E400",
"j  c #CACA00",
"k  c #B2B200",
"l  c #A5A500",
"z  c #A4A400",
"x  c #E8E800",
"c  c #C3C300",
"v  c #979700",
"b  c #151500",
"n  c #353500",
"m  c #888800",
"M  c #AAAA00",
"N  c #CBCB00",
"B  c #E5E500",
"V  c #C9C900",
"C  c #777700",
"Z  c #626200",
"A  c #5C5C00",
"S  c #5D5D00",
"D  c #616100",
"F  c #F1F100",
"G  c #DFDF00",
"H  c #C4C400",
"J  c #ABAB00",
"K  c #1E1E00",
"L  c #4D4D00",
"P  c #868600",
"I  c #BDBD00",
"U  c #F6F600",
"Y  c #252500",
"T  c #222200",
"R  c #EEEE00",
"E  c #020200",
"W  c #232300",
"Q  c #5A5A00",
"!  c #9D9D00",
"~  c #FEFE00",
"^  c #606000",
"/  c #A8A800",
"(  c #9B9B00",
")  c #878700",
"_  c #BEBE00",
"`  c #F7F700",
"'  c #FBFB00",
"]  c #B1B100",
"[  c #747400",
"{  c #AFAF00",
"}  c #373700",
"|  c #8C8C00",
" . c #D0D000",
".. c #EBEB00",
"X. c #F8F800",
"o. c #CECE00",
"O. c #7A7A00",
"+. c #656500",
"@. c #636300",
"#. c #5F5F00",
"$. c #797900",
"%. c #C6C600",
"&. c #EAEA00",
"*. c #0C0C00",
"=. c #1D1D00",
"-. c #343400",
";. c #CFCF00",
":. c #ECEC00",
">. c #D1D100",
",. c #B8B800",
"<. c #A7A700",
"1. c #B6B600",
"2. c #F4F400",
"3. c #525200",
"4. c #BFBF00",
"5. c #D9D900",
"6. c #8B8B00",
"7. c #A9A900",
"8. c #A6A600",
"9. c #A3A300",
"0. c #C5C500",
"q. c #F3F300",
"w. c #383800",
"e. c #505000",
"r. c #646400",
"t. c #595900",
"y. c #C2C200",
"u. c #262600",
"i. c #424200",
"p. c #0F0F00",
"a. c #202000",
"s. c #101000",
"d. c #292900",
"f. c #484800",
"g. c #6C6C00",
"h. c #E6E600",
"j. c #2C2C00",
"k. c #858500",
"l. c #CDCD00",
"z. c #F0F000",
"x. c #545400",
"c. c #8A8A00",
"v. c #050500",
"b. c #0D0D00",
"n. c #171700",
"m. c #4E4E00",
"M. c #3F3F00",
"N. c #575700",
"B. c #686800",
"V. c #676700",
"C. c #7C7C00",
"Z. c #D4D400",
"A. c #313100",
"S. c #3E3E00",
"D. c #949400",
"F. c #B9B900",
"G. c #181800",
"H. c #060600",
"J. c #E3E300",
"K. c #3D3D00",
"L. c #696900",
"P. c #909000",
"I. c #363600",
"U. c white",
/* pixels */
"  . . . . . X o O + @ @ @ @ @ @ @ @ @ @ @ @ @ @ @ @ # $ % X . . ",
". . . . . & * = - ; : @ @ @ : : : : : : : : @ @ @ : > , < * & . ",
". . 1 2 3 4 5 6 7 8 9 0 q w ; + > > > > + ; w q 0 9 e r t y * X ",
".   u i p a s O d f g h j k l - - z z - - l k j h g x c v t < % ",
".   b n = m M N B g f V , C Z A S D D S A Z C , V f F G H J , $ ",
".   K L P I e U @ 0 8 7 6 y Y i K T T K i Y y 6 7 8 9 9 R 8 > # ",
". E W Q ! + @ @ @ @ ; - = W E . . . . . . E W = - ; : @ @ @ ~ ~ ",
". E Y ^ / f @ @ @ @ + ( o b . . . . . . . . b o O + @ @ @ @ @ @ ",
". E Y ^ / f @ @ @ @ + ( o b . . . . . . . . b o O + ~ @ @ @ @ @ ",
". E W Q ! + @ @ @ @ ; - = W E . . . . . . E W S - ; ~ @ @ @ @ @ ",
".   K L ) _ 8 ` @ ' w ] 6 y Y i K W W K i Y y [ { 8 ~ @ @ @ @ @ ",
".   b } ^ | {  ...X.q o.- O.+.= ^ @.@.^ #.+.$.! %.&.~ @ @ @ @ @ ",
".   *.=.-.% [ - ;.F ' :.>.,.J <./ M M / / J 1.j e 2.@ @ @ @ @ @ ",
". . 1 2 3 4 5 6 { e X.9 R 8 + # # + + # # + e x g 0 @ @ @ @ @ @ ",
". . . . . E 4 3.| 4.+ h w > + + + + + # 5.# G x F 0 @ @ @ @ @ @ ",
"  . . . . . 3 n @.6.- J r M J J J J 7.8.9.l 7 0.; q.@ @ @ @ @ @ ",
". . . . . . 2 K w.e.= @.r.r.r.+.+.r.Z A t.S t v y.f @ @ @ @ @ @ ",
". . . . . . 1 *.b K T * * * W * W * W K =.u.i.6 { w ~ @ @ @ ~ ~ ",
". . . . . . . . . . . . . . . . . . 1 2 p.a.y C k w 0 0 q w ; + ",
". . . .   . . . . . . . . . . . . . . s.d.f.g.( N R ` h.j 7 - O ",
". . . .   . . . . . . . . . . . . . 2 j.t.k.7.l...9 z.j O 6 = x.",
". . . . . . . . . . . . . . . . .   K e.c._ e U @ 9 G J t 5 * X ",
". . . . . . v.b.n.4 W Y * * W K i Y y 6 7 8 0 @ ` 8 _ m m.4 & . ",
". . . . .   b.Y M.N.r.B.V.+.@.^ = +.C.l Z.` @ F Z.7 6.S A.3 . . ",
". . . . .   n.S.g.D.M ] { J M / <.J F.Z.z.@ ` Z.z 6 e.A.G.H.. . ",
". . . . .   K e.6._ # J.8 > + # # + 8 R 0 9 8 7 6 5 4 b.H.& . . ",
". . . . .   =.e.c.I 5.w e + # # # # + 8 J.# _ | % 4 E . . . . . ",
". . . . .   X K.L.P.l r J <.8.8.<.8.8.<.<., ) ^ -.3 . . . . . . ",
". . . . .   b.W K.x.^ r.@.D D D D D ^ D ^ < L I.i 2 . . . . . . ",
". . . . . . v.b.n.4 W Y Y * * * * * * * * W K b *.1 . . . . . . ",
". . . . . . .       E E E E E E E E E E E E       . . . . . . . ",
". . . . . . . . . . . . . . . . . . . . . . . . . . . . . . . . "
};
