/* XPM */
static char *result[] = {
/* columns rows colors chars-per-pixel */
"32 32 134 2 ",
"   c black",
".  c #161600",
"X  c #535300",
"o  c #9C9C00",
"O  c #DBDB00",
"+  c yellow",
"@  c #010100",
"#  c #030300",
"$  c #242400",
"%  c #5E5E00",
"&  c #A2A200",
"*  c #DDDD00",
"=  c #FDFD00",
"-  c #060600",
";  c #0E0E00",
":  c #1F1F00",
">  c #404000",
",  c #767600",
"<  c #B1B100",
"1  c #E2E200",
"2  c #FAFA00",
"3  c #EEEE00",
"4  c #0D0D00",
"5  c #181800",
"6  c #313100",
"7  c #4E4E00",
"8  c #717100",
"9  c #9F9F00",
"0  c #CDCD00",
"q  c #F7F700",
"w  c #E6E600",
"e  c #C9C900",
"r  c #B3B300",
"t  c #2F2F00",
"y  c #171700",
"u  c #5D5D00",
"i  c #888800",
"p  c #ACAC00",
"a  c #CFCF00",
"s  c #EBEB00",
"d  c #F9F900",
"f  c #F0F000",
"g  c #CACA00",
"h  c #9B9B00",
"j  c #797900",
"k  c #878700",
"l  c #5A5A00",
"z  c #020200",
"x  c #505000",
"c  c #8B8B00",
"v  c #BEBE00",
"b  c #E0E000",
"n  c #F6F600",
"m  c #DFDF00",
"M  c #A9A900",
"N  c #6C6C00",
"B  c #424200",
"V  c #040400",
"C  c #070700",
"Z  c #757500",
"A  c #AFAF00",
"S  c #E1E100",
"D  c #858500",
"F  c #494900",
"G  c #202000",
"H  c #ABAB00",
"J  c #0C0C00",
"K  c #1D1D00",
"L  c #343400",
"P  c #515100",
"I  c #747400",
"U  c #D0D000",
"Y  c #F1F100",
"T  c #EDED00",
"R  c #D2D200",
"E  c #8A8A00",
"W  c #5B5B00",
"Q  c #2D2D00",
"!  c #545400",
"~  c #151500",
"^  c #373700",
"/  c #606000",
"(  c #8C8C00",
")  c #F8F800",
"_  c #EFEF00",
"`  c #CECE00",
"'  c #A1A100",
"]  c #303000",
"[  c #E5E500",
"{  c #B0B000",
"}  c #1E1E00",
"|  c #4D4D00",
" . c #FBFB00",
".. c #050500",
"X. c #222200",
"o. c #9D9D00",
"O. c #DADA00",
"+. c #FEFE00",
"@. c #232300",
"#. c #A3A300",
"$. c #E3E300",
"%. c #9E9E00",
"&. c #DCDC00",
"*. c #414100",
"=. c #252500",
"-. c #1C1C00",
";. c #EAEA00",
":. c #C6C600",
">. c #656500",
",. c #5F5F00",
"<. c #636300",
"1. c #F4F400",
"2. c #B6B600",
"3. c #A8A800",
"4. c #AAAA00",
"5. c #F2F200",
"6. c #E8E800",
"7. c #DEDE00",
"8. c #1B1B00",
"9. c #E4E400",
"0. c #A5A500",
"q. c #5C5C00",
"w. c #A0A000",
"e. c #212100",
"r. c #FCFC00",
"t. c #BDBD00",
"y. c #E9E900",
"u. c #383800",
"i. c #616100",
"p. c #A7A700",
"a. c #646400",
"s. c #3A3A00",
"d. c #393900",
"f. c white",
/* pixels */
"                    . X o O + + + + + + + + O o X .           @ ",
"                  # $ % & * = + + + + + + = * & % $ #           ",
"            # - ; : > , < 1 2 2 3 1 1 3 2 2 1 < , > : 4 - #     ",
"            - 5 6 7 8 9 0 3 q w e r r e w q 3 0 9 8 7 t y -     ",
"            4 6 u i p a s d f g h j j h g f d s a p k l t 4     ",
"          z : x c v b n + d m M N B B N M m d + n b v k 7 : #   ",
"    V C ; : > Z A b d + n S v D F G G F D v S n + d m H 8 > $ . ",
"  @ J K L P I & U Y 2 T R A E W Q ; ; Q W E A R T 2 f g o Z % ! ",
"  @ ~ ^ / ( A U s ) _ ` ' I x ] . C C . ] x I ' ` _ q [ e { & o ",
"  @ } | k v S q +  .1 < , > : 4 ..# # ..4 : > , < 1 2 2 _ 1 * O ",
"  z X.l o.O.+.+ + + * & % @.@             @ @.% & * = + + + +.+.",
"  z $ % #.$.+ + + + O h X ~                 ~ X h O + + + + + + ",
"  z @.u & S + + + + O h X ~                 ~ X h O +.+ + + + + ",
"  z @.W %.* + + + + * & u @.z             z @.u & * +.+ + + + + ",
"  z @.l o.&.+ + + + S A I *.=.-.} @.@.} -.=.*.I A S +.+ + + + + ",
"  z @.l o.&.+.+ + + ;.:.o.j >.,./ <.<./ ,.>.j o.:.;.+.+ + + + + ",
"  z @.l o.&.+.+ + + 1.b g 2.H 3.3.4.4.3.3.H 2.g b 1.+ + + + + + ",
"  z @.l o.&.+.+ + + 2 5.6.b O O.O.O O O.O.O b 6.5.2 + + + + + + ",
"  z @.l o.&.+.+ + + 2 5.6.b O O.O.O O O.O.O b 6.5.2 + + + + + + ",
"  z @.l o.&.+.+ + + 1.b g 2.H 3.3.4.4.3.3.H 2.g b 1.+ + + + + + ",
"  z @.l o.&.+.+ + + ;.:.o.j >.,./ <.<./ ,.>.j o.:.;.+.+ + + + + ",
"  z @.l o.&.+ + + + S A I *.=.-.} @.@.} -.=.*.I A S +.+ + + + + ",
"  z @.W %.* + + + + 7.#.,.$ #             # $ ,.#.7.+ + + + + + ",
"  z @.u & S + + + + S #.l 8.                8.l #.S + + + + + + ",
"  z $ u #.$.+ + + + 9.0.q.}                 } q.0.9.+ + + + + + ",
"  z X.l o.O.= + + = O w.q.e.                e.q.w.O r.+ + + +.+.",
"  @ } 7 i t.O y.y.O v c x } @             @ } x c v O.$.S * &.&.",
"  @ ~ u.i.i o.p.p.o.i a.s.~ @             @ ~ s.a.i o.#.& %.o.o.",
"  @ J G u.7 l / / l 7 d.e.J                 J e.d.7 l u q.W l l ",
"    ..J ~ } @.=.=.@.} . 4 ..                ..4 . } X.$ @.@.@.@.",
"      @ @ @ z z z z @ @ @                     @ @ @ z z z z z z ",
"@                             @         @                       "
};
