/* XPM */
static char *result[] = {
/* columns rows colors chars-per-pixel */
"32 32 96 2 ",
"   c black",
".  c #010100",
"X  c #010000",
"o  c #020000",
"O  c #020101",
"+  c #030201",
"@  c #17140C",
"#  c #131009",
"$  c #FFFF9A",
"%  c #EECE7A",
"&  c #000503",
"*  c #170000",
"=  c #390000",
"-  c #320000",
";  c #340000",
":  c #330000",
">  c #380000",
",  c #0E0000",
"<  c #030000",
"1  c #2F2818",
"2  c #3B321E",
"3  c #D6B56B",
"4  c #B49156",
"5  c #280000",
"6  c #370402",
"7  c #1A0000",
"8  c #620000",
"9  c red",
"0  c #000101",
"q  c #FFE789",
"w  c #FFE688",
"e  c #050000",
"r  c #FF0201",
"t  c #770000",
"y  c #1E0000",
"u  c #4D0000",
"i  c #930000",
"p  c #F40000",
"a  c #F80000",
"s  c #750000",
"d  c #4B0101",
"f  c #510000",
"g  c #F3C977",
"h  c #F4C977",
"j  c #4F0000",
"k  c #720604",
"l  c #F50000",
"z  c #9E0000",
"x  c #4C0000",
"c  c #230000",
"v  c #FC0000",
"b  c #FF0101",
"n  c #FFE98A",
"m  c #FD0000",
"M  c #130000",
"N  c #960000",
"B  c #F70000",
"V  c #F90000",
"C  c #F70100",
"Z  c #FF7143",
"A  c #F90100",
"S  c #290000",
"D  c #FF0100",
"F  c #240000",
"G  c #FF0603",
"H  c #250000",
"J  c #270000",
"K  c #FE0000",
"L  c #360000",
"P  c #D70000",
"I  c #D50000",
"U  c #DA0000",
"Y  c #2A0000",
"T  c #450000",
"R  c #040000",
"E  c #470000",
"W  c #560000",
"Q  c #4A0000",
"!  c #5C0000",
"~  c #260000",
"^  c #8C0000",
"/  c #B10000",
"(  c #B80000",
")  c #2F0000",
"_  c #600000",
"`  c #300000",
"'  c #690000",
"]  c #BB0000",
"[  c #5F0000",
"{  c #370000",
"}  c #A10000",
"|  c #420000",
" . c #430000",
".. c #070000",
"X. c #490000",
"o. c white",
/* pixels */
"                                      .                         ",
"            X o o o o o       O + @ #   o o o o X               ",
"          X               X .     $ %   &         X             ",
"        o   * = - ; : > , X < 1 2 3 4 5 6 ; : = 7   o           ",
"      X     8 9 9 9 9 9 5 0   q w   e r 9 9 9 9 t     o         ",
"    o X y u i 9 p a p 9 s d f g h j k 9 l a p 9 z x c   o       ",
"  X     > 9 9 v 9 9 9 v 9 b 9 n n 9 b m 9 9 9 v 9 9 x     X     ",
"X   M t N 9 B 9 9 9 9 9 V C B Z Z B A 9 9 9 9 9 B 9 z t 7   X   ",
"X   S 9 9 v 9 9 9 9 9 9 9 9 D 9 9 D 9 9 9 9 9 9 9 v 9 9 =   o   ",
"X   F 9 l 9 9 9 9 9 9 9 9 9 9 G G 9 9 9 9 9 9 9 9 9 p 9 :   o   ",
"X   H 9 V 9 9 9 9 9 9 9 9 9 9 9 9 9 9 9 9 9 9 9 9 9 a 9 ;   o   ",
"X   H 9 V 9 9 9 9 9 9 9 9 9 9 9 9 9 9 9 9 9 9 9 9 9 a 9 ;   o   ",
"X   H 9 V 9 9 9 9 9 9 9 9 9 9 9 9 9 9 9 9 9 9 9 9 9 a 9 ;   o   ",
"X   H 9 V 9 9 9 9 9 9 9 9 9 9 9 9 9 9 9 9 9 9 9 9 9 a 9 ;   o   ",
"X   H 9 V 9 9 9 9 9 9 9 9 9 9 9 9 9 9 9 9 9 9 9 9 9 a 9 ;   o   ",
"X   H 9 V 9 9 9 9 9 9 9 9 9 9 9 9 9 9 9 9 9 9 9 9 9 a 9 ;   o   ",
"X   H 9 V 9 9 9 9 9 9 9 9 9 9 9 9 9 9 9 9 9 9 9 9 9 a 9 ;   o   ",
"X   H 9 a 9 9 9 9 9 9 9 9 9 9 9 9 9 9 9 9 9 9 9 9 9 B 9 :   o   ",
"X   J 9 9 K 9 9 9 9 9 9 9 9 9 9 9 9 9 9 9 9 9 9 9 m 9 9 L   o   ",
"X   y P I 9 K 9 9 9 9 9 9 9 9 9 9 9 9 9 9 9 9 9 m 9 P U Y   o   ",
"  X     : 9 B 9 9 9 9 9 9 9 9 9 9 9 9 9 9 9 9 9 B 9 T     X     ",
"    R   E 9 l 9 9 9 9 9 9 9 9 9 9 9 9 9 9 9 9 9 l 9 W   e       ",
"    <   Q 9 9 v 9 9 9 9 9 9 9 9 9 9 9 9 9 9 9 v 9 9 !   R       ",
"    o   ~ ^ / 9 a 9 9 9 9 9 9 a a 9 9 9 9 9 V 9 ( ^ )   o       ",
"      o     _ 9 9 v 9 9 9 9 K 9 9 K 9 9 9 v 9 9 s     o         ",
"        R   ` _ / 9 p a a B v ' ' v B a l 9 ] [ {   R           ",
"          o     ^ 9 9 9 9 9 9     9 9 9 9 9 }     o             ",
"            R   ~ Q |  . . .T ....T  . .| X.Y   R               ",
"              o                               o                 ",
"                o < < < < < <     < < < < < o                   ",
"                                                                ",
"                                                                "
};
