/* XPM */
static char *result[] = {
/* columns rows colors chars-per-pixel */
"32 32 132 2 ",
"   c black",
".  c #020200",
"X  c #232300",
"o  c #5A5A00",
"O  c #9D9D00",
"+  c #DCDC00",
"@  c #FEFE00",
"#  c yellow",
"$  c #DADA00",
"%  c #989800",
"&  c #515100",
"*  c #161600",
"=  c #FDFD00",
"-  c #9E9E00",
";  c #5B5B00",
":  c #242400",
">  c #030300",
",  c #FAFA00",
"<  c #F2F200",
"1  c #E9E900",
"2  c #E1E100",
"3  c #DDDD00",
"4  c #DBDB00",
"5  c #E2E200",
"6  c #EFEF00",
"7  c #F9F900",
"8  c #E0E000",
"9  c #ACAC00",
"0  c #717100",
"q  c #414100",
"w  c #F3F300",
"e  c #DEDE00",
"r  c #C6C600",
"t  c #B1B100",
"y  c #A5A500",
"u  c #A2A200",
"i  c #A4A400",
"p  c #B2B200",
"a  c #CACA00",
"s  c #E4E400",
"d  c #E8E800",
"f  c #C3C300",
"g  c #979700",
"h  c #EAEA00",
"j  c #C5C500",
"k  c #9B9B00",
"l  c #777700",
"z  c #626200",
"x  c #5C5C00",
"c  c #5D5D00",
"v  c #616100",
"b  c #C9C900",
"n  c #F1F100",
"m  c #DFDF00",
"M  c #C4C400",
"N  c #ABAB00",
"B  c #AFAF00",
"V  c #747400",
"C  c #252500",
"Z  c #1C1C00",
"A  c #1E1E00",
"S  c #222200",
"D  c #757500",
"F  c #B0B000",
"G  c #EEEE00",
"H  c #5E5E00",
"J  c #9C9C00",
"K  c #535300",
"L  c #151500",
"P  c #797900",
"I  c #656500",
"U  c #5F5F00",
"Y  c #606000",
"T  c #636300",
"R  c #9F9F00",
"E  c #F0F000",
"W  c #C2C200",
"Q  c #A9A900",
"!  c #959500",
"~  c #F4F400",
"^  c #B6B600",
"/  c #A8A800",
"(  c #AAAA00",
")  c #B7B700",
"_  c #CECE00",
"`  c #E6E600",
"'  c #E7E700",
"]  c #C1C100",
"[  c #939300",
"{  c #6C6C00",
"}  c #555500",
"|  c #4B4B00",
" . c #727200",
".. c #424200",
"X. c #181800",
"o. c #CBCB00",
"O. c #7A7A00",
"+. c #F7F700",
"@. c #E5E500",
"#. c #A3A300",
"$. c #E3E300",
"%. c #FBFB00",
"&. c #CDCD00",
"*. c #A7A700",
"=. c #B8B800",
"-. c #D1D100",
";. c #ECEC00",
":. c #545400",
">. c #FCFC00",
",. c #F8F800",
"<. c #404000",
"1. c #010100",
"2. c #4E4E00",
"3. c #888800",
"4. c #BDBD00",
"5. c #4F4F00",
"6. c #1F1F00",
"7. c #383800",
"8. c #A1A100",
"9. c #A6A600",
"0. c #868600",
"q. c #323200",
"w. c #0E0E00",
"e. c #0C0C00",
"r. c #202000",
"t. c #4D4D00",
"y. c #353500",
"u. c #070700",
"i. c #050500",
"p. c #0B0B00",
"a. c #040400",
"s. c white",
/* pixels */
"  . X o O + @ # # # # # # # # # # # # # # # # # # # $ % & *     ",
"  . X o O + @ # # # # @ @ @ = = = = = = = = # # # = + - ; : >   ",
"  . X o O + @ # # # , < 1 2 3 4 + + + + 4 3 5 6 , 7 8 9 0 q : * ",
"  . X o O + @ # # # w e r t y u u i i u u y p a s < d f g 0 ; & ",
"  . X o O + @ # # # h j k l z x c v v c x z l - b 1 n m M N - % ",
"  . X o O + # # # # 2 B V q C Z A S S A Z C q D F 2 7 7 G 2 + $ ",
"  . X o O + # # # # 3 u c X .             . X H u 3 @ # # # # # ",
"  . X o O + # # # # 4 J K L                 L K k 4 # # # # # # ",
"  . X o O + # # # # 4 J K L                 L K k 4 # # # # # # ",
"  . X o O + # # # # 3 u c X .             . X H u 3 @ # # # # # ",
"  . X o O + # # # # 2 B V q C Z A X X A Z C q D F 2 7 7 G 2 + $ ",
"  . X o O + @ # # # h r O P I U Y T T Y U I P R a h E e W Q J ! ",
"  . X o O + @ # # # ~ 8 a ^ N / / ( ( / / N ) _ ` w ' ] [ { } | ",
"  . X o O + @ # # # , < d 8 4 $ $ 4 4 $ $ 4 2 G , 7 8 9  ...C X.",
"  . X o O + @ # # # , < d 8 4 $ $ 4 4 $ $ 4 2 G , 7 8 9  ...C X.",
"  . X o O + @ # # # ~ 8 a ^ N / / ( ( / / N ) _ ` w ' ] [ { } | ",
"  . X o O + @ # # # h r O P I U Y T T Y U I P R a h E e W Q J ! ",
"  . X o O + # # # # 2 B V q C Z A X X A Z C q D F 2 7 7 G 2 + $ ",
"  . X o O + # # # # 3 u c X .             . X H u 3 @ # # # # # ",
"  . X o O + # # # # 4 J K L                 L K k 4 # # # # # # ",
"  . X o O + # # # # 4 J K L                 L K k 4 # # # # # # ",
"  . X o O + # # # # 3 u c X .             . X H u 3 @ # # # # # ",
"  . X ; - 3 # # # # 5 B V q C Z A X X A Z C q D t 5 , , 6 5 3 4 ",
"  . X c u 2 # # # # E o.R O.I H Y T T Y H I O.u _ 6 +.@.b F u J ",
"  . : c #.$.# # # # %.` &.) N *./ ( ( / *.N =.-.;.%.E a J D H :.",
"  . S o O $ >.# # # 7 n d 8 4 $ $ 4 4 $ $ 4 2 G 7 ,.m N 0 <.: * ",
"  1.A 2.3.4.$ $.2 3 4 4 4 $ $ $ $ $ $ $ $ $ 4 2 $.$ 4.3.5.6.>   ",
"  1.L 7.v 3.O #.8.- R 8.#.y 9.*.9.9.9.9.*.9.9.*.*.- 0.H q.w.    ",
"  1.e.r.7.2.o c x ; ; c H Y v v v v v v v v Y v Y ; t.y.Z u.    ",
"    i.e.L A S : X X X X X : : : : : : : : : : : : X A L p.a.    ",
"      1.1.1.. . . . . . . . . . . . . . . . . . . . 1.1.1.      ",
"1.                                                            1."
};
