/* XPM */
static char *result[] = {
/* columns rows colors chars-per-pixel */
"32 32 134 2 ",
"   c black",
".  c #161600",
"X  c #535300",
"o  c #9C9C00",
"O  c #DBDB00",
"+  c yellow",
"@  c #DADA00",
"#  c #989800",
"$  c #515100",
"%  c #030300",
"&  c #242400",
"*  c #5E5E00",
"=  c #A2A200",
"-  c #DDDD00",
";  c #FDFD00",
":  c #DCDC00",
">  c #9E9E00",
",  c #5B5B00",
"<  c #060600",
"1  c #0E0E00",
"2  c #1F1F00",
"3  c #404000",
"4  c #767600",
"5  c #B1B100",
"6  c #E2E200",
"7  c #FAFA00",
"8  c #FBFB00",
"9  c #EFEF00",
"0  c #E1E100",
"q  c #ADAD00",
"w  c #737300",
"e  c #424200",
"r  c #252500",
"t  c #171700",
"y  c #181800",
"u  c #313100",
"i  c #4E4E00",
"p  c #717100",
"a  c #9F9F00",
"s  c #CDCD00",
"d  c #EEEE00",
"f  c #F8F800",
"g  c #E8E800",
"h  c #B3B300",
"j  c #A5A500",
"k  c #CACA00",
"l  c #9D9D00",
"z  c #777700",
"x  c #626200",
"c  c #585800",
"v  c #0D0D00",
"b  c #5D5D00",
"n  c #888800",
"m  c #ACAC00",
"M  c #CFCF00",
"N  c #EBEB00",
"B  c #F9F900",
"V  c #F1F100",
"C  c #A1A100",
"Z  c #787800",
"A  c #575700",
"S  c #CECE00",
"D  c #B4B400",
"F  c #A7A700",
"G  c #020200",
"H  c #505000",
"J  c #8B8B00",
"K  c #BEBE00",
"L  c #E0E000",
"P  c #F6F600",
"I  c #AFAF00",
"U  c #747400",
"Y  c #414100",
"T  c #ECEC00",
"R  c #D8D800",
"E  c #040400",
"W  c #070700",
"Q  c #757500",
"!  c #BFBF00",
"~  c #525200",
"^  c #8C8C00",
"/  c #E4E400",
"(  c #010100",
")  c #0C0C00",
"_  c #1D1D00",
"`  c #343400",
"'  c #D0D000",
"]  c #EDED00",
"[  c #D2D200",
"{  c #606000",
"}  c #333300",
"|  c #353500",
" . c #636300",
".. c #ABAB00",
"X. c #AAAA00",
"o. c #151500",
"O. c #373700",
"+. c #191900",
"@. c #1E1E00",
"#. c #383800",
"$. c #646400",
"%. c #4D4D00",
"&. c #878700",
"*. c #F7F700",
"=. c #222200",
"-. c #232300",
";. c #5A5A00",
":. c #FEFE00",
">. c #A3A300",
",. c #E3E300",
"<. c #1B1B00",
"1. c #595900",
"2. c #212100",
"3. c #B0B000",
"4. c #D9D900",
"5. c #323200",
"6. c #5F5F00",
"7. c #D4D400",
"8. c #7C7C00",
"9. c #B9B900",
"0. c #A4A400",
"q. c #F0F000",
"w. c #D1D100",
"e. c #656500",
"r. c #727200",
"t. c #BDBD00",
"y. c #4F4F00",
"u. c #A6A600",
"i. c #868600",
"p. c #1C1C00",
"a. c #363600",
"s. c #616100",
"d. c #0B0B00",
"f. c white",
/* pixels */
"                    . X o O + + + + + + + + + + + + @ # $ .     ",
"                  % & * = - ; + + + ; ; ; ; + + + ; : > , & %   ",
"            % < 1 2 3 4 5 6 7 8 9 6 : @ @ : 6 9 8 7 0 q w e r t ",
"            < y u i p a s d f g s h j a a j h s g f d k l z x c ",
"            v u b n m M N B V M C Z x A A x Z C S V B g s D F C ",
"          G 2 H J K L P + B L I U Y & . . & Y U I L f f T L O R ",
"    E W 1 2 3 Q I L B + P 0 ! J $ 2 G     G 2 ~ ^ ! O / 0 : O O ",
"  ( ) _ ` $ U = ' V 7 ] [ I J { } 1         1 |  .J = ..m X.....",
"  ( o.O.{ ^ I ' N f 9 S C U $ } +.<         W @.#.H *  .$.$.$.$.",
"  ( @.%.&.K 0 *.+ 8 6 5 4 3 2 1 < %         E ) o.@.=.& & & -.& ",
"  G =.;.l @ :.+ + + - = * & %                   ( ( ( ( ( ( ( ( ",
"  G & * >.,.+ + + + O > A <.          ( (                       ",
"  G -.b = 0 + + + + : a 1._                                     ",
"  G -., > - + + + + : C b 2.                                    ",
"  G -., > - + + + + : C b 2.                                    ",
"  G -.b = 0 + + + + : a 1._                                     ",
"  G & * >.,.+ + + + O > A <.          ( (                       ",
"  G =.;.l @ :.+ + + - = * & %                   ( ( ( ( ( ( ( ( ",
"  ( @.%.&.K 0 *.+ 8 6 5 4 3 2 1 < %         E ) o.@.=.& & & -.& ",
"  ( o.O.{ ^ I ' N f 9 S C U $ } +.<         W @.#.H *  .$.$.$.$.",
"  ( ) _ ` $ U = ' V 7 ] [ I J { } 1         1 |  .J = ..m X.....",
"    E W 1 2 3 Q I L B + P 0 ! J $ 2 G     G 2 ~ ^ ! O / 0 : O O ",
"          G 2 $ J ! 0 *.+ 7 0 3.Q Y & . . & Y Q 3.0 B B ] 0 O 4.",
"(           1 5.6.J 3.7.V + *.7.j 8.$.;.;.$.8.j 7.*.+ d [ 9...j ",
"            < +.5.$ Q 0.7.*.+ q.7.9...0.0...9.7.q.+ *.w.>.8.e., ",
"            % < 1 2 3 Q 3.0 B 7 d 0 O 4.4.O 0 d 7 B L m r.Y r t ",
"                  G 2 $ ^ K @ ,.0 O @ @ @ @ O 0 ,.@ t.n y.2 %   ",
"                    1 ` { &.> F F u.u.F F u.u.F F > i.* 5.1     ",
"                    W p.a.%., { s.{ s.s.s.s.{ s.{ , %.| p.W     ",
"                    E ) o.@.-.& & & & & & & & & & -.@.o.d.E     ",
"                      ( ( ( G G G G G G G G G G G G ( ( (       ",
"                (                                             ( "
};
