/* XPM */
static char *result[] = {
/* columns rows colors chars-per-pixel */
"32 32 103 2 ",
"   c black",
".  c #010100",
"X  c #222200",
"o  c #5D5D00",
"O  c #A2A200",
"+  c #DDDD00",
"@  c #FEFE00",
"#  c yellow",
"$  c #FDFD00",
"%  c #FAFA00",
"&  c #F2F200",
"*  c #E9E900",
"=  c #E1E100",
"-  c #DBDB00",
";  c #DCDC00",
":  c #F3F300",
">  c #DEDE00",
",  c #C6C600",
"<  c #B1B100",
"1  c #A5A500",
"2  c #A4A400",
"3  c #EAEA00",
"4  c #C5C500",
"5  c #9B9B00",
"6  c #777700",
"7  c #626200",
"8  c #5C5C00",
"9  c #616100",
"0  c #AFAF00",
"q  c #747400",
"w  c #414100",
"e  c #252500",
"r  c #1C1C00",
"t  c #1E1E00",
"y  c #232300",
"u  c #020200",
"i  c #9C9C00",
"p  c #535300",
"a  c #151500",
"s  c #242400",
"d  c #1F1F00",
"f  c #161600",
"g  c #0D0D00",
"h  c #050500",
"j  c #9D9D00",
"k  c #797900",
"l  c #656500",
"z  c #5F5F00",
"x  c #606000",
"c  c #636300",
"v  c #676700",
"b  c #686800",
"n  c #646400",
"m  c #565600",
"M  c #3E3E00",
"N  c #0E0E00",
"B  c #F4F400",
"V  c #E0E000",
"C  c #CACA00",
"Z  c #B6B600",
"A  c #ABAB00",
"S  c #A8A800",
"D  c #AAAA00",
"F  c #939300",
"G  c #696900",
"H  c #3C3C00",
"J  c #171700",
"K  c #E8E800",
"L  c #DADA00",
"P  c #E3E300",
"I  c #BDBD00",
"U  c #878700",
"Y  c #4E4E00",
"T  c #5E5E00",
"R  c #E2E200",
"E  c #A6A600",
"W  c #F0F000",
"Q  c #CBCB00",
"!  c #9F9F00",
"~  c #7A7A00",
"^  c #A7A700",
"/  c #E4E400",
"(  c #FBFB00",
")  c #E6E600",
"_  c #CDCD00",
"`  c #B7B700",
"'  c #A1A100",
"]  c #FCFC00",
"[  c #F9F900",
"{  c #F1F100",
"}  c #505000",
"|  c #8B8B00",
" . c #BEBE00",
".. c #3A3A00",
"X. c #888800",
"o. c #A3A300",
"O. c #9E9E00",
"+. c #0C0C00",
"@. c #212100",
"#. c #393900",
"$. c #5A5A00",
"%. c #5B5B00",
"&. c white",
/* pixels */
"          . X o O + @ # # # # # # # # # # # # # # # # # # # # # ",
"          . X o O + @ # # # # @ @ @ $ $ $ $ $ $ $ $ $ $ $ $ $ $ ",
"          . X o O + @ # # # % & * = + - ; ; ; ; ; ; ; ; ; ; ; ; ",
"          . X o O + @ # # # : > , < 1 O O 2 1 1 1 1 1 1 1 1 1 1 ",
"          . X o O + @ # # # 3 4 5 6 7 8 o 9 7 7 7 7 7 7 7 7 7 7 ",
"          . X o O + # # # # = 0 q w e r t X y y y y y y y y y y ",
"          . X o O + # # # # + O o y u                 . . . . . ",
"          . X o O + # # # # - i p a                             ",
"          . X o O + # # # # - i p a                             ",
"          . X o O + # # # # + O o y u                           ",
"          . X o O + # # # # = 0 q w e r t y s s e y d f g h     ",
"          . X o O + @ # # # 3 , j k l z x c l v b n m M y N .   ",
"          . X o O + @ # # # B V C Z A S S D A 0 < D F G H J .   ",
"          . X o O + @ # # # % & K V - L L - ; = P L I U Y t .   ",
"          . X o O + @ # # # % & K V - L L - ; = P L I U Y t .   ",
"          . X o O + @ # # # B V C Z A S S D A 0 < D F G H J .   ",
"          . X o O + @ # # # 3 , j k l z x c l v b n m M y N .   ",
"          . X o O + # # # # = 0 q w e r t y s s e y d f g h     ",
"          . X o O + # # # # + O o y u                           ",
"          . X o O + # # # # - i p a                             ",
"          . X o O + # # # # - i p a                             ",
"          . X o O + # # # # + O o y u                 . . . . . ",
"          . y T O > # # # # R 0 q w e r t y y y y y y y y y y y ",
"          . y x E R # # # # W Q ! ~ l T x c n n n n n n n n n n ",
"          . s 9 ^ / # # # # ( ) _ ` A ^ S D A A A A A A A A A A ",
"          . X o ' - ] # # # [ { K V - L L - - - - - - - - - - - ",
"          . t } |  .L P = + - - - L L L L L L L L L L L L L L L ",
"          . a ..n X.j o.' O.! ' o.1 E ^ E E E E E E E E E E E E ",
"            +.@.#.Y $.o 8 %.%.o T x 9 9 9 9 9 9 9 9 9 9 9 9 9 9 ",
"            h g f t X s y y y y y s s s s s s s s s s s s s s s ",
"              . . . u u u u u u u u u u u u u u u u u u u u u u ",
"                                                                "
};
