/* XPM */
static char *result[] = {
/* columns rows colors chars-per-pixel */
"32 32 139 2 ",
"   c black",
".  c #161600",
"X  c #535300",
"o  c #9C9C00",
"O  c #DBDB00",
"+  c yellow",
"@  c #030300",
"#  c #242400",
"$  c #5E5E00",
"%  c #A2A200",
"&  c #DDDD00",
"*  c #FDFD00",
"=  c #060600",
"-  c #0E0E00",
";  c #1F1F00",
":  c #404000",
">  c #767600",
",  c #B1B100",
"<  c #E2E200",
"1  c #FAFA00",
"2  c #FBFB00",
"3  c #EFEF00",
"4  c #DCDC00",
"5  c #181800",
"6  c #313100",
"7  c #4E4E00",
"8  c #717100",
"9  c #9F9F00",
"0  c #CDCD00",
"q  c #EEEE00",
"w  c #F8F800",
"e  c #E8E800",
"r  c #B3B300",
"t  c #A5A500",
"y  c #A1A100",
"u  c #A4A400",
"i  c #0D0D00",
"p  c #5D5D00",
"a  c #888800",
"s  c #ACAC00",
"d  c #CFCF00",
"f  c #EBEB00",
"g  c #F9F900",
"h  c #F1F100",
"j  c #787800",
"k  c #626200",
"l  c #5C5C00",
"z  c #616100",
"x  c #020200",
"c  c #505000",
"v  c #8B8B00",
"b  c #BEBE00",
"n  c #E0E000",
"m  c #F6F600",
"M  c #AFAF00",
"N  c #747400",
"B  c #414100",
"V  c #252500",
"C  c #1C1C00",
"Z  c #1E1E00",
"A  c #222200",
"S  c #232300",
"D  c #040400",
"F  c #070700",
"G  c #757500",
"H  c #E1E100",
"J  c #BFBF00",
"K  c #515100",
"L  c #010100",
"P  c #0C0C00",
"I  c #1D1D00",
"U  c #343400",
"Y  c #D0D000",
"T  c #EDED00",
"R  c #D2D200",
"E  c #606000",
"W  c #333300",
"Q  c #151500",
"!  c #373700",
"~  c #8C8C00",
"^  c #CECE00",
"/  c #1A1A00",
"(  c #4D4D00",
")  c #878700",
"_  c #F7F700",
"`  c #5A5A00",
"'  c #9D9D00",
"]  c #DADA00",
"[  c #FEFE00",
"{  c #050500",
"}  c #171700",
"|  c #A3A300",
" . c #E3E300",
".. c #9E9E00",
"X. c #575700",
"o. c #1B1B00",
"O. c #636300",
"+. c #656500",
"@. c #5F5F00",
"#. c #595900",
"$. c #3F3F00",
"%. c #6D6D00",
"&. c #949400",
"*. c #A9A900",
"=. c #ADAD00",
"-. c #5B5B00",
";. c #212100",
":. c #E4E400",
">. c #4F4F00",
",. c #8A8A00",
"<. c #DFDF00",
"1. c #F0F000",
"2. c #3C3C00",
"3. c #696900",
"4. c #B6B600",
"5. c #D3D300",
"6. c #EAEA00",
"7. c #FCFC00",
"8. c #3A3A00",
"9. c #797900",
"0. c #0F0F00",
"q. c #202000",
"w. c #B0B000",
"e. c #323200",
"r. c #D4D400",
"t. c #7C7C00",
"y. c #646400",
"u. c #7A7A00",
"i. c #CBCB00",
"p. c #191900",
"a. c #B9B900",
"s. c #ABAB00",
"d. c #B7B700",
"f. c #E6E600",
"g. c #D9D900",
"h. c #A7A700",
"j. c #A6A600",
"k. c #363600",
"l. c white",
/* pixels */
"                    . X o O + + + + + + + + + + + + + + + + + + ",
"                  @ # $ % & * + + + * * * * * * * * * * * * * * ",
"            @ = - ; : > , < 1 2 3 < & O 4 4 4 4 4 4 4 4 4 4 4 4 ",
"            = 5 6 7 8 9 0 q w e 0 r t y % u t t t t t t t t t t ",
"            i 6 p a s d f g h d y j k l p z k k k k k k k k k k ",
"          x ; c v b n m + g n M N B V C Z A S S S S S S S S S S ",
"    D F - ; : G M n g + m H J v K ; x                           ",
"  L P I U K N % Y h 1 T R M v E W -                             ",
"  L Q ! E ~ M Y f w 3 ^ y N K W / =                             ",
"  L Z ( ) b H _ + 2 < , > : ; - = @                             ",
"  x A ` ' ] [ + + + & % $ # x       { i } ; S # # S A A A A A A ",
"  x # $ |  .+ + + + O ..X.o.        i V : X.O.+.k @.p p p p p p ",
"  x S p % H + + + + 4 9 #.I         } $.%.&.*.=.*.u % y y % % % ",
"  x S -...& + + + + 4 y p ;.        Z c v b ] :.< & & & & & & & ",
"  x S -...& + + + + 4 y p ;.        I >.,.b <.1._ 1 * + + [ [ [ ",
"  x S p % H + + + + 4 9 #.I         } 2.3.&.4.5.6.7.+ + + + + + ",
"  x # $ |  .+ + + + O ..X.o.        i ;.8.X.9.| 0 1.+ + + + + + ",
"  x A ` ' ] [ + + + & % $ # x       D F 0.q.B > w. .+ + + + + + ",
"  L Z ( ) b H _ + 2 < , > : ; - = @       L S $ % & [ + + + + + ",
"  L Q ! E ~ M Y f w 3 ^ y N K W / =         Q X o ] [ + + + + + ",
"  L P I U K N % Y h 1 T R M v E W -         Q X o ] [ + + + + + ",
"    D F - ; : G M n g + m H J v K ; L     L S p % & [ + + + + + ",
"          x ; K v J H _ + 1 H w.G B # . . # B N M < + + + + + + ",
"L           - e.@.v w.r.h + _ r.t t.y.` ` y.u.9 i.1.+ + + + + + ",
"            = p.e.K G u r._ + 1.r.a.s.t t s.d.0 f.2 + + + + + + ",
"            @ = - ; : G w.H g 1 q H O g.g.O n e h g * + + [ [ [ ",
"                  x ; K ~ b ]  .H O ] ] ] ] ] O O O 4 4 4 4 4 4 ",
"                    - U E ) ..h.h.j.j.h.h.j.t | y 9 ..' ' ' ' ' ",
"                    F C k.( -.E z E z z z z E $ p -.` ` ` ` ` ` ",
"                    D P Q Z S # # # # # # # # S S S S S S S S S ",
"                      L L L x x x x x x x x x x x x x x x x x x ",
"                L                                               "
};
