/* XPM */
static char *result[] = {
/* columns rows colors chars-per-pixel */
"32 32 106 2 ",
"   c black",
".  c #010100",
"X  c #242400",
"o  c #636300",
"O  c #ABAB00",
"+  c #E9E900",
"@  c yellow",
"#  c #FEFE00",
"$  c #222200",
"%  c #5D5D00",
"&  c #A1A100",
"*  c #DBDB00",
"=  c #FCFC00",
"-  c #FDFD00",
";  c #1E1E00",
":  c #515100",
">  c #8C8C00",
",  c #BFBF00",
"<  c #E3E300",
"1  c #E1E100",
"2  c #DEDE00",
"3  c #F2F200",
"4  c #FAFA00",
"5  c #DDDD00",
"6  c #DCDC00",
"7  c #161600",
"8  c #3C3C00",
"9  c #686800",
"0  c #8F8F00",
"q  c #A4A400",
"w  c #A8A800",
"e  c #A6A600",
"r  c #B1B100",
"t  c #C6C600",
"y  c #F3F300",
"u  c #A5A500",
"i  c #A2A200",
"p  c #A3A300",
"a  c #0D0D00",
"s  c #3E3E00",
"d  c #545400",
"f  c #606000",
"g  c #616100",
"h  c #5F5F00",
"j  c #777700",
"k  c #9B9B00",
"l  c #C5C500",
"z  c #EAEA00",
"x  c #626200",
"c  c #5C5C00",
"v  c #050500",
"b  c #1F1F00",
"n  c #1D1D00",
"m  c #252500",
"M  c #414100",
"N  c #747400",
"B  c #AFAF00",
"V  c #1C1C00",
"C  c #232300",
"Z  c #030300",
"A  c #5E5E00",
"S  c #1B1B00",
"D  c #585800",
"F  c #9E9E00",
"G  c #595900",
"H  c #9F9F00",
"J  c #212100",
"K  c #171700",
"L  c #E2E200",
"P  c #3F3F00",
"I  c #575700",
"U  c #656500",
"Y  c #7A7A00",
"T  c #CBCB00",
"R  c #F0F000",
"E  c #646400",
"W  c #6C6C00",
"Q  c #949400",
"!  c #A9A900",
"~  c #AEAE00",
"^  c #ACAC00",
"/  c #B7B700",
"(  c #CDCD00",
")  c #E6E600",
"_  c #FBFB00",
"`  c #A7A700",
"'  c #AAAA00",
"]  c #505000",
"[  c #8B8B00",
"{  c #BEBE00",
"}  c #DADA00",
"|  c #E0E000",
" . c #E8E800",
".. c #F1F100",
"X. c #F9F900",
"o. c #8A8A00",
"O. c #BDBD00",
"+. c #D9D900",
"@. c #3D3D00",
"#. c #696900",
"$. c #909000",
"%. c #9D9D00",
"&. c #5B5B00",
"*. c #5A5A00",
"=. c #020200",
"-. c white",
/* pixels */
"          . X o O + @ @ @ @ @ @ @ @ @ # # @ @ @ @ @ @ @ @ @ @ @ ",
"          . $ % & * = @ @ @ # # # @ @ @ @ @ @ # # # - - - - - - ",
"          . ; : > , * < 1 2 1 + 3 4 @ @ @ @ 4 3 + 1 5 * 6 6 6 6 ",
"          . 7 8 9 0 q w e e r t 2 y @ @ @ @ y 2 t r u i p q u u ",
"          . a X s d f g h o j k l z @ @ @ @ z l k j x c % g x x ",
"            v a 7 b $ b n m M N B 1 @ @ @ @ 1 B N M m V ; $ C C ",
"                . .       Z X A i 5 @ @ @ @ 5 i A X Z       . . ",
"                            S D F * @ @ @ @ * F D S             ",
"                            n G H 6 @ @ @ @ 6 H G n             ",
"                            J % & 6 @ @ @ @ 6 & % J             ",
"                          . $ % i 5 @ @ @ @ 5 i % $ .           ",
"                          . $ % i 5 @ @ @ @ 5 i % $ .           ",
"                          . $ % i 5 @ @ @ @ 5 i % $ .           ",
"                          . $ % i 5 @ @ @ @ 5 i % $ .           ",
"                          . $ % i 5 @ @ @ @ 5 i % $ .           ",
"                          . $ % i 5 @ @ @ @ 5 i % $ .           ",
"                          . $ % i 5 @ @ @ @ 5 i % $ .           ",
"                          . $ % i 5 @ @ @ @ 5 i % $ .           ",
"                            J % & 6 @ @ @ @ 6 & % J             ",
"                            n G H 6 @ @ @ @ 6 H G n             ",
"                            S D F * @ @ @ @ * F D S             ",
"                . .       Z X A i 5 @ @ @ @ 5 i A X Z       . . ",
"            v a K b $ b n m M N B L @ @ @ @ L B N M m V ; C C C ",
"          . a m P I o o g U Y H T R @ @ @ @ R T H Y U h f o E E ",
"          . K s W Q ! ~ ^ ^ / ( ) _ @ @ @ @ _ ) ( / O ` w ' O O ",
"          . ; ] [ { } L | 6 |  ...X.# @ @ # X... .| * } } * * * ",
"          . n ] o.O.+.L | * } * * * 6 6 6 6 * * * } } } } } } } ",
"          . 7 @.#.$.u ^ O ` u p & H %.%.%.%.H & p u e ` e e e e ",
"          . a C @.d f E o g f A % &.*.*.*.*.&.% A f g g g g g g ",
"            v a K b X m m X X C C C C $ $ C C C C X X X X X X X ",
"              . . . =.=.=.=.=.=.=.=.=.=.=.=.=.=.=.=.=.=.=.=.=.=.",
"                                                                "
};
