/* XPM */
static char *result[] = {
/* columns rows colors chars-per-pixel */
"32 32 75 1 ",
"  c black",
". c #010100",
"X c #222200",
"o c #5D5D00",
"O c #A2A200",
"+ c #DDDD00",
"@ c yellow",
"# c #DCDC00",
"$ c #A1A100",
"% c #212100",
"& c #9F9F00",
"* c #595900",
"= c #1D1D00",
"- c #DBDB00",
"; c #9E9E00",
": c #585800",
"> c #1B1B00",
", c #5E5E00",
"< c #242400",
"1 c #030300",
"2 c #232300",
"3 c #DEDE00",
"4 c #E2E200",
"5 c #AFAF00",
"6 c #747400",
"7 c #414100",
"8 c #252500",
"9 c #1C1C00",
"0 c #1E1E00",
"q c #606000",
"w c #A6A600",
"e c #F0F000",
"r c #CBCB00",
"t c #7A7A00",
"y c #656500",
"u c #636300",
"i c #646400",
"p c #616100",
"a c #A7A700",
"s c #E4E400",
"d c #FBFB00",
"f c #E6E600",
"g c #CDCD00",
"h c #B7B700",
"j c #ABAB00",
"k c #A8A800",
"l c #AAAA00",
"z c #FCFC00",
"x c #F9F900",
"c c #F1F100",
"v c #E8E800",
"b c #E0E000",
"n c #DADA00",
"m c #505000",
"M c #8B8B00",
"N c #BEBE00",
"B c #E3E300",
"V c #E1E100",
"C c #151500",
"Z c #3A3A00",
"A c #888800",
"S c #9D9D00",
"D c #A3A300",
"F c #A5A500",
"G c #0C0C00",
"H c #393900",
"J c #4E4E00",
"K c #5A5A00",
"L c #5C5C00",
"P c #5B5B00",
"I c #050500",
"U c #0D0D00",
"Y c #161600",
"T c #020200",
"R c white",
/* pixels */
"     .XoO+@@@@+OoX.             ",
"     .XoO+@@@@+OoX.             ",
"     .XoO+@@@@+OoX.             ",
"     .XoO+@@@@+OoX.             ",
"     .XoO+@@@@+OoX.             ",
"     .XoO+@@@@+OoX.             ",
"     .XoO+@@@@+OoX.             ",
"     .XoO+@@@@+OoX.             ",
"     .XoO+@@@@+OoX.             ",
"     .XoO+@@@@+OoX.             ",
"     .XoO+@@@@+OoX.             ",
"     .XoO+@@@@+OoX.             ",
"     .XoO+@@@@+OoX.             ",
"     .XoO+@@@@+OoX.             ",
"     .XoO+@@@@+OoX.             ",
"     .XoO+@@@@+OoX.             ",
"     .XoO+@@@@+OoX.             ",
"     .XoO+@@@@+OoX.             ",
"     .XoO+@@@@#$o%              ",
"     .XoO+@@@@#&*=              ",
"     .XoO+@@@@-;:>              ",
"     .XoO+@@@@+O,<1   ..........",
"     .2,O3@@@@456789022222222222",
"     .2qw4@@@@er&ty,quiiiiiiiiii",
"     .<pas@@@@dfghjakljjjjjjjjjj",
"     .Xo$-z@@@xcvb-nn-----------",
"     .0mMNnBV+---nnnnnnnnnnnnnnn",
"     .CZiASD$;&$DFwawwwwwwwwwwww",
"      G%HJKoLPPo,qpppppppppppppp",
"      IUY0X<22222<<<<<<<<<<<<<<<",
"       ...TTTTTTTTTTTTTTTTTTTTTT",
"                                "
};
