/* XPM */
static char *result[] = {
/* columns rows colors chars-per-pixel */
"32 32 117 2 ",
"   c black",
".  c #020200",
"X  c #232300",
"o  c #5A5A00",
"O  c #9D9D00",
"+  c #DCDC00",
"@  c yellow",
"#  c #DBDB00",
"$  c #9C9C00",
"%  c #545400",
"&  c #161600",
"*  c #FEFE00",
"=  c #DDDD00",
"-  c #A2A200",
";  c #5E5E00",
":  c #242400",
">  c #030300",
",  c #E1E100",
"<  c #AFAF00",
"1  c #757500",
"2  c #404000",
"3  c #1F1F00",
"4  c #0D0D00",
"5  c #050500",
"6  c #E9E900",
"7  c #C5C500",
"8  c #9A9A00",
"9  c #707000",
"0  c #4E4E00",
"q  c #2E2E00",
"w  c #151500",
"e  c #060600",
"r  c #F3F300",
"t  c #E0E000",
"y  c #C7C700",
"u  c #AAAA00",
"i  c #878700",
"p  c #595900",
"a  c #2C2C00",
"s  c #0E0E00",
"d  c #FBFB00",
"f  c #F8F800",
"g  c #F0F000",
"h  c #DFDF00",
"j  c #BDBD00",
"k  c #858500",
"l  c #494900",
"z  c #202000",
"x  c #FDFD00",
"c  c #A8A800",
"v  c #6B6B00",
"b  c #414100",
"n  c #969600",
"m  c #C3C300",
"M  c #B0B000",
"N  c #F2F200",
"B  c #E8E800",
"V  c #E2E200",
"C  c #FAFA00",
"Z  c #F1F100",
"A  c #DADA00",
"S  c #C0C000",
"D  c #C6C600",
"F  c #F7F700",
"G  c #BFBF00",
"H  c #939300",
"J  c #747400",
"K  c #767600",
"L  c #9B9B00",
"P  c #CBCB00",
"I  c #EFEF00",
"U  c #424200",
"Y  c #717100",
"T  c #DEDE00",
"R  c #565600",
"E  c #252500",
"W  c #212100",
"Q  c #8D8D00",
"!  c #525200",
"~  c #1B1B00",
"^  c #101000",
"/  c #313100",
"(  c #626200",
")  c #898900",
"_  c #1D1D00",
"`  c #090900",
"'  c #171700",
"]  c #353500",
"[  c #A0A000",
"{  c #5B5B00",
"}  c #222200",
"|  c #040400",
" . c #1C1C00",
".. c #9E9E00",
"X. c #5D5D00",
"o. c #A6A600",
"O. c #606000",
"+. c #A3A300",
"@. c #E3E300",
"#. c #E4E400",
"$. c #616100",
"%. c #A1A100",
"&. c #010100",
"*. c #FCFC00",
"=. c #1E1E00",
"-. c #888800",
";. c #BEBE00",
":. c #8B8B00",
">. c #505000",
",. c #383800",
"<. c #A7A700",
"1. c #646400",
"2. c #3A3A00",
"3. c #0C0C00",
"4. c #393900",
"5. c #5C5C00",
"6. c white",
/* pixels */
"  . X o O + @ @ @ @ # $ % &                 & % $ # * @ @ @ @ @ ",
"  . X o O + @ @ @ @ = - ; : >             > : ; - = * @ @ @ @ @ ",
"  . X o O + @ @ @ @ , < 1 2 3 4 5 > > 5 4 3 2 1 < , * @ @ @ @ @ ",
"  . X o O + * @ @ @ 6 7 8 9 0 q w e e w q 0 9 8 7 6 * @ @ @ @ @ ",
"  . X o O + * @ @ @ r t y u i p a s s a p i u y t r * @ @ @ @ @ ",
"  . X o O + * @ @ @ d f g h j k l z z l k j h g f d @ @ @ @ @ @ ",
"  . X o O + * @ @ @ @ @ @ x h c v b b v c h x @ @ @ @ @ @ @ @ @ ",
"  . X o O + * @ @ @ @ @ @ @ g 7 n 1 1 n 7 g @ @ @ @ @ @ @ @ @ @ ",
"  . X o O + * @ @ @ @ @ @ @ f h m M M m h f @ @ @ @ @ @ @ @ @ @ ",
"  . X o O + * @ @ @ @ @ @ @ d N B V V B N d @ @ @ @ @ @ @ @ @ @ ",
"  . X o O + * @ @ @ @ @ @ @ @ @ * * * * @ @ @ @ @ @ @ @ @ @ @ @ ",
"  . X o O + * @ @ @ @ @ @ @ @ @ @ @ @ @ @ @ @ @ @ @ @ @ @ @ @ @ ",
"  . X o O + * @ @ @ @ @ @ @ @ @ @ @ @ @ @ @ @ @ @ @ @ @ @ @ @ @ ",
"  . X o O + * @ @ @ @ * * * * @ @ @ @ @ @ * * * * @ @ @ @ @ @ @ ",
"  . X o O + * @ @ @ C Z B , V 6 r d d r 6 V , B Z C @ @ @ @ @ @ ",
"  . X o O + * @ @ @ N A S < M D V F F V D M < S A N @ @ @ @ @ @ ",
"  . X o O + * @ @ @ B G H J K L P I I P L K J H G B * @ @ @ @ @ ",
"  . X o O + @ @ @ @ t c v b U Y < T T < Y U b v c t * @ @ @ @ @ ",
"  . X o O + @ @ @ @ + $ R E W 0 Q j j Q 0 W E R $ + * @ @ @ @ @ ",
"  . X o O + @ @ @ @ # 8 ! ~ ^ / ( ) ) ( / ^ ~ ! 8 # * @ @ @ @ @ ",
"  . X o O + @ @ @ @ # O R _ ` ' ] 0 0 ] ' ` _ R O # * @ @ @ @ @ ",
"  . X o O + @ @ @ @ + [ { } 5 | ^  . .^ | 5 } { [ + * @ @ @ @ @ ",
"  . X { ..= @ @ @ @ T - ; X .             . X ; - T @ @ @ @ @ @ ",
"  . X X.- , @ @ @ @ V o.O.X                 X O.o.V @ @ @ @ @ @ ",
"  . : X.+.@.@ @ @ @ #.c $.:                 : $.c #.@ @ @ @ @ @ ",
"  . } o O A x @ @ x # %.X.} &.            &.} X.%.# *.@ @ @ * * ",
"  &.=.0 -.j # 6 6 # ;.:.>.=.&.            &.=.>.:.;.A @., = + + ",
"  &.w ,.$.-.O <.<.O -.1.2.w &.            &.w 2.1.-.O +.- ..O O ",
"  &.3.z ,.0 o O.O.o 0 4.W 3.                3.W 4.0 o X.5.{ o o ",
"    5 3.w =.X E E X =.& 4 5                 5 4 & =.} : X X X X ",
"      &.&.&.. . . . &.&.&.                    &.&.&.. . . . . . ",
"&.                            &.        &.                      "
};
