/* XPM */
static char *result[] = {
/* columns rows colors chars-per-pixel */
"32 32 119 2 ",
"   c #010100",
".  c black",
"X  c #161600",
"o  c #535300",
"O  c #9C9C00",
"+  c #DBDB00",
"@  c yellow",
"#  c #DADA00",
"$  c #989800",
"%  c #515100",
"&  c #030300",
"*  c #242400",
"=  c #5E5E00",
"-  c #A2A200",
";  c #DDDD00",
":  c #FDFD00",
">  c #DCDC00",
",  c #9E9E00",
"<  c #5B5B00",
"1  c #040400",
"2  c #070700",
"3  c #0E0E00",
"4  c #1F1F00",
"5  c #404000",
"6  c #757500",
"7  c #B0B000",
"8  c #E1E100",
"9  c #F9F900",
"0  c #FAFA00",
"q  c #EFEF00",
"w  c #E2E200",
"e  c #E0E000",
"r  c #ACAC00",
"t  c #717100",
"y  c #414100",
"u  c #0B0B00",
"i  c #1C1C00",
"p  c #323200",
"a  c #4F4F00",
"s  c #707000",
"d  c #C8C800",
"f  c #E9E900",
"g  c #F2F200",
"h  c #E4E400",
"j  c #CACA00",
"k  c #B2B200",
"l  c #A5A500",
"z  c #A4A400",
"x  c #E8E800",
"c  c #C3C300",
"v  c #979700",
"b  c #151500",
"n  c #353500",
"m  c #888800",
"M  c #AAAA00",
"N  c #CBCB00",
"B  c #E5E500",
"V  c #C9C900",
"C  c #777700",
"Z  c #626200",
"A  c #5C5C00",
"S  c #5D5D00",
"D  c #616100",
"F  c #F1F100",
"G  c #DFDF00",
"H  c #C4C400",
"J  c #ABAB00",
"K  c #1E1E00",
"L  c #4D4D00",
"P  c #868600",
"I  c #BDBD00",
"U  c #F6F600",
"Y  c #252500",
"T  c #222200",
"R  c #EEEE00",
"E  c #020200",
"W  c #5A5A00",
"Q  c #9D9D00",
"!  c #FEFE00",
"~  c #A3A300",
"^  c #E3E300",
"/  c #575700",
"(  c #1B1B00",
")  c #232300",
"_  c #9F9F00",
"`  c #595900",
"'  c #1D1D00",
"]  c #A1A100",
"[  c #212100",
"{  c #878700",
"}  c #BEBE00",
"|  c #F7F700",
" . c #FBFB00",
".. c #B1B100",
"X. c #373700",
"o. c #606000",
"O. c #8C8C00",
"+. c #AFAF00",
"@. c #D0D000",
"#. c #EBEB00",
"$. c #F8F800",
"%. c #CECE00",
"&. c #7A7A00",
"*. c #656500",
"=. c #636300",
"-. c #0C0C00",
";. c #343400",
":. c #747400",
">. c #CFCF00",
",. c #ECEC00",
"<. c #D1D100",
"1. c #B8B800",
"2. c #A7A700",
"3. c #A8A800",
"4. c #F0F000",
"5. c #545400",
"6. c #A6A600",
"7. c #363600",
"8. c white",
/* pixels */
"  . . . . . X o O + @ @ @ @ @ @ @ @ @ @ @ @ @ @ @ @ # $ % X . . ",
". . . . . & * = - ; : @ @ @ : : : : : : : : @ @ @ : > , < * & . ",
". . 1 2 3 4 5 6 7 8 9 0 q w ; + > > > > + ; w q 0 9 e r t y * X ",
".   u i p a s O d f g h j k l - - z z - - l k j h g x c v t < % ",
".   b n = m M N B g f V , C Z A S D D S A Z C , V f F G H J , $ ",
".   K L P I e U @ 0 8 7 6 y Y i K T T K i Y y 6 7 8 9 9 R 8 > # ",
". E T W Q # ! @ @ @ ; - = * & . . . . . . & * = - ; : @ @ @ ! ! ",
". E * = ~ ^ @ @ @ @ + , / ( . . . . . . . . ( / , + @ @ @ @ @ @ ",
". E ) S - 8 @ @ @ @ > _ ` ' . . . . . . . . ' ` _ > @ @ @ @ @ @ ",
". E ) < , ; @ @ @ @ > ] S [ . . . . . . . . [ S ] > ! @ @ @ @ @ ",
". E ) W Q > @ @ @ @ ; - S T   . . . . . .   T S - ; ! @ @ @ @ @ ",
". E ) W Q > @ @ @ @ ; - S T   . . . . . .   T S - ; ! @ @ @ @ @ ",
". E ) W Q > @ @ @ @ ; - S T   . . . . . .   T S - ; ! @ @ @ @ @ ",
". E ) W Q > @ @ @ @ ; - S T   . . . . . .   T S - ; ! @ @ @ @ @ ",
". E ) W Q > @ @ @ @ ; - S T   . . . . . .   T S - ; ! @ @ @ @ @ ",
". E ) W Q > @ @ @ @ ; - S T   . . . . . .   T S - ; ! @ @ @ @ @ ",
". E ) W Q > @ @ @ @ ; - S T   . . . . . .   T S - ; ! @ @ @ @ @ ",
". E ) W Q > @ @ @ @ ; - S T   . . . . . .   T S - ; ! @ @ @ @ @ ",
". E ) < , ; @ @ @ @ > ] S [ . . . . . . . . [ S ] > ! @ @ @ @ @ ",
". E ) S - 8 @ @ @ @ > _ ` ' . . . . . . . . ' ` _ > @ @ @ @ @ @ ",
". E * = ~ ^ @ @ @ @ + , / ( . . . . . . . . ( / , + @ @ @ @ @ @ ",
". E T W Q # ! @ @ @ ; - = * & . . . . . . & * = - ; : @ @ @ ! ! ",
".   K L { } 8 | @  .w ..6 y Y i K ) ) K i Y y 6 ..w 0 0 q w ; + ",
".   b X.o.O.+.@.#.$.q %.- &.*.= o.=.=.o.= *.&.- %.q | B V 7 - O ",
".   -.' ;.% :.- >.F  .,.<.1.J 2.3.M M 3.2.J 1.<.,. .4.j O 6 = 5.",
". . 1 2 3 4 5 6 +.e $.9 R 8 + # # + + # # + 8 R 9 $.G J t 5 * X ",
". . . . . E 4 % O.} # ^ 8 + # # # # # # # # + 8 ^ # I m a 4 & . ",
". . . . . . 3 ;.o.{ , 2.2.6.6.2.6.6.6.6.2.6.6.2.2., P = p 3 . . ",
". . . . . . 2 i 7.L < o.D o.D D D D D D D D o.D o.< L n i 2 . . ",
". . . . . . 1 -.b K ) * * * * * * * * * * * * * * ) K b u 1 . . ",
". . . . . . .       E E E E E E E E E E E E E E E E       . . . ",
". . . . . . . . . . . . . . . . . . . . . . . . . . . . . . .   "
};
