/* XPM */
static char *result[] = {
/* columns rows colors chars-per-pixel */
"32 32 156 2 ",
"   c #010100",
".  c black",
"X  c #161600",
"o  c #535300",
"O  c #9C9C00",
"+  c #DBDB00",
"@  c yellow",
"#  c #030300",
"$  c #242400",
"%  c #5E5E00",
"&  c #A2A200",
"*  c #DDDD00",
"=  c #FDFD00",
"-  c #040400",
";  c #070700",
":  c #0E0E00",
">  c #1F1F00",
",  c #404000",
"<  c #757500",
"1  c #B0B000",
"2  c #E1E100",
"3  c #F9F900",
"4  c #FAFA00",
"5  c #EFEF00",
"6  c #E2E200",
"7  c #DCDC00",
"8  c #DADA00",
"9  c #FBFB00",
"0  c #B2B200",
"q  c #777700",
"w  c #414100",
"e  c #202000",
"r  c #0B0B00",
"t  c #1C1C00",
"y  c #323200",
"u  c #4F4F00",
"i  c #707000",
"p  c #C8C800",
"a  c #E9E900",
"s  c #F2F200",
"d  c #E4E400",
"f  c #CACA00",
"g  c #A5A500",
"h  c #9F9F00",
"j  c #B3B300",
"k  c #CDCD00",
"l  c #E8E800",
"z  c #F8F800",
"x  c #CFCF00",
"c  c #A3A300",
"v  c #545400",
"b  c #363600",
"n  c #1E1E00",
"m  c #0C0C00",
"M  c #151500",
"N  c #353500",
"B  c #888800",
"V  c #AAAA00",
"C  c #CBCB00",
"Z  c #E5E500",
"A  c #C9C900",
"S  c #9E9E00",
"D  c #626200",
"F  c #585800",
"G  c #575700",
"H  c #787800",
"J  c #A1A100",
"K  c #CECE00",
"L  c #F1F100",
"P  c #EEEE00",
"I  c #D4D400",
"U  c #909000",
"Y  c #636300",
"T  c #383800",
"R  c #4D4D00",
"E  c #868600",
"W  c #BDBD00",
"Q  c #E0E000",
"!  c #F6F600",
"~  c #747400",
"^  c #AFAF00",
"/  c #FEFE00",
"(  c #F5F500",
")  c #DFDF00",
"_  c #BCBC00",
"`  c #4C4C00",
"'  c #1D1D00",
"]  c #020200",
"[  c #232300",
"{  c #5A5A00",
"}  c #9D9D00",
"|  c #515100",
" . c #8B8B00",
".. c #BEBE00",
"X. c #878700",
"o. c #252500",
"O. c #606000",
"+. c #A8A800",
"@. c #9B9B00",
"#. c #2F2F00",
"$. c #5C5C00",
"%. c #848400",
"&. c #A9A900",
"*. c #ABAB00",
"=. c #8D8D00",
"-. c #666600",
";. c #3A3A00",
":. c #474700",
">. c #555500",
",. c #5D5D00",
"<. c #4E4E00",
"1. c #050500",
"2. c #0D0D00",
"3. c #171700",
"4. c #262600",
"5. c #272700",
"6. c #F7F700",
"7. c #B1B100",
"8. c #373700",
"9. c #8C8C00",
"0. c #D0D000",
"q. c #EBEB00",
"w. c #7A7A00",
"e. c #656500",
"r. c #5F5F00",
"t. c #616100",
"y. c #5B5B00",
"u. c #484800",
"i. c #313100",
"p. c #191900",
"a. c #060600",
"s. c #343400",
"d. c #ECEC00",
"f. c #D1D100",
"g. c #B8B800",
"h. c #A7A700",
"j. c #A4A400",
"k. c #E3E300",
"l. c #717100",
"z. c #2E2E00",
"x. c #F0F000",
"c. c #141400",
"v. c #565600",
"b. c #646400",
"n. c #3E3E00",
"m. c #3D3D00",
"M. c #6A6A00",
"N. c #939300",
"B. c #949400",
"V. c #7C7C00",
"C. c #7B7B00",
"Z. c #D6D600",
"A. c #B9B900",
"S. c #767600",
"D. c #A6A600",
"F. c white",
/* pixels */
"  . . . . . X o O + @ @ @ @ @ @ @ @ @ @ @ @ + O o X . . . . .   ",
". . . . . # $ % & * = @ @ @ = = = = @ @ @ = * & % $ # . . . . . ",
". . - ; : > , < 1 2 3 4 5 6 7 8 8 7 6 5 9 4 6 0 q w e : ; - . . ",
".   r t y u i O p a s d f 0 g h h g j k l z 5 x c q v b n m   . ",
".   M N % B V C Z s a A S q D F G D H J K L 4 P I j U Y T X   . ",
".   n R E W Q ! @ 4 2 1 < w $ X X $ w ~ ^ Q 3 / ( ) _ E ` '   . ",
". ] [ { } + @ @ @ @ * & % [   . . . n |  ...+ l l 8 _ X.R n   . ",
". ] o.O.+.a @ @ @ @ + @.o M . . . . ; #.$.%.O &.*.c =.-.;.X   . ",
". ] o.O.+.a @ @ @ @ + @.o M . . . . . M #.:.>.,.% { <.T e m   . ",
". ] [ { } + @ @ @ @ * & % [   . . . 1.2.3.> $ 4.5.o.e 3.2.1.. . ",
".   n R X...2 6.@ 9 6 7.< w o.t n [ $ $ $ o.o.o.o.$ > X m - . . ",
".   M 8.O.9.^ 0.q.z 5 K & w.e.r.O.Y Y t.r.$.y.y.{ >.u.i.p.a.. . ",
".   m ' s.| ~ & x L 9 d.f.g.*.+.+.V V +.h.g c g j.@.%.$.i.2.. . ",
". . - ; : > , < ^ Q z 3 P 2 + 8 8 + + + + 8 + Q k.8 W B u > # . ",
". . . . .   n |  ...8 k.2 7 + + + + + 8 8 + 2 P 3 z ) *.l., $ X ",
"  . . . . . ; z.y.%.O h.&.&.*.*.*.*.V +.h.*.g.f.d.9 x.f O < % v ",
"  . . . . . . c.#.:.v.% t.D b.e.b.b.Y O.% e.w.& K 5 6.Z A 1 & O ",
". . . . . . 1.2.3.> $ o.o.$ $ [ [ [ [ n t o.w < 7.6 4 4 5 6 * + ",
". . 1.2.X > [ 4.4.$ > 3.2.1.. . . . . . . ] [ % & * / @ @ @ @ @ ",
".   : $ n.v.D b.O.v.:.#.M . . . . . . . . . M o @.+ @ @ @ @ @ @ ",
".   3.m.M.N.+.^ *.} %.$.z.; . . . . . . . . M o @.+ @ @ @ @ @ @ ",
".   n <.X.W + a a + .. .| n   . . . . . . ] [ % & * / @ @ @ @ @ ",
".   n R E W Q ! @ 4 2 1 < w o.t n [ [ n t o.w < 7.6 4 4 5 6 * + ",
".   3.;.-.B.g.8 ( @ 6.I g V.e.% O.Y Y O.% e.w.& K 5 6.Z A 1 & O ",
".   2.> T G C.&.Z.z @ x.I A.*.h.+.V V +.h.*.g.f.d.9 x.f O < % v ",
". . - ; : e w S.7.2 3 4 P 2 + 8 8 + + 8 8 + 2 P 3 z ) *.l., $ X ",
". . . . . ] > | 9...8 k.2 + 8 8 8 8 8 8 8 8 + 2 k.8 W B u > # . ",
". . . . . . : s.O.X.S h.h.D.D.h.D.D.D.D.h.D.D.h.h.S E % y : . . ",
". . . . . . ; t b R y.O.t.O.t.t.t.t.t.t.t.t.O.t.O.y.R N t ; . . ",
". . . . . . - m M n [ $ $ $ $ $ $ $ $ $ $ $ $ $ $ [ n M r - . . ",
". . . . . . .       ] ] ] ] ] ] ] ] ] ] ] ] ] ] ] ]       . . . ",
". . . . . . . . . . . . . . . . . . . . . . . . . . . . . . .   "
};
