/* XPM */
static char *result[] = {
/* columns rows colors chars-per-pixel */
"32 32 84 1 ",
"  c black",
". c #010100",
"X c #242400",
"o c #636300",
"O c #ABAB00",
"+ c #E9E900",
"@ c yellow",
"# c #FEFE00",
"$ c #222200",
"% c #5D5D00",
"& c #A1A100",
"* c #DBDB00",
"= c #FCFC00",
"- c #FDFD00",
"; c #1E1E00",
": c #515100",
"> c #8C8C00",
", c #BFBF00",
"< c #E3E300",
"1 c #E1E100",
"2 c #DEDE00",
"3 c #F2F200",
"4 c #FAFA00",
"5 c #DDDD00",
"6 c #DCDC00",
"7 c #161600",
"8 c #3C3C00",
"9 c #686800",
"0 c #8F8F00",
"q c #A4A400",
"w c #A8A800",
"e c #A6A600",
"r c #B1B100",
"t c #C6C600",
"y c #F3F300",
"u c #A5A500",
"i c #A2A200",
"p c #A3A300",
"a c #0D0D00",
"s c #3E3E00",
"d c #545400",
"f c #606000",
"g c #616100",
"h c #5F5F00",
"j c #777700",
"k c #9B9B00",
"l c #C5C500",
"z c #EAEA00",
"x c #626200",
"c c #5C5C00",
"v c #050500",
"b c #1F1F00",
"n c #1D1D00",
"m c #252500",
"M c #414100",
"N c #747400",
"B c #AFAF00",
"V c #1C1C00",
"C c #232300",
"Z c #030300",
"A c #5E5E00",
"S c #1B1B00",
"D c #585800",
"F c #9E9E00",
"G c #595900",
"H c #9F9F00",
"J c #212100",
"K c #E2E200",
"L c #A7A700",
"P c #E4E400",
"I c #505000",
"U c #8B8B00",
"Y c #BEBE00",
"T c #151500",
"R c #3A3A00",
"E c #646400",
"W c #888800",
"Q c #9D9D00",
"! c #0C0C00",
"~ c #393900",
"^ c #4E4E00",
"/ c #5A5A00",
"( c #020200",
") c white",
/* pixels */
"     .XoO+@@@@@@@@@##@@@@@@@@@@@",
"     .$%&*=@@@###@@@@@@###------",
"     .;:>,*<121+34@@@@43+15*6666",
"     .7890qweert2y@@@@y2truipquu",
"     .aXsdfghojklz@@@@zlkjxc%gxx",
"      va7b$bnmMNB1@@@@1BNMmV;$CC",
"        ..   ZXAi5@@@@5iAXZ   ..",
"              SDF*@@@@*FDS      ",
"              nGH6@@@@6HGn      ",
"              J%&6@@@@6&%J      ",
"             .$%i5@@@@5i%$.     ",
"             .$%i5@@@@5i%$.     ",
"             .$%i5@@@@5i%$.     ",
"             .$%i5@@@@5i%$.     ",
"             .$%i5@@@@5i%$.     ",
"             .$%i5@@@@5i%$.     ",
"             .$%i5@@@@5i%$.     ",
"             .$%i5@@@@5i%$.     ",
"             .$%i5@@@@5i%$.     ",
"             .$%i5@@@@5i%$.     ",
"             .$%i5@@@@5i%$.     ",
"             .$%i5@@@@5i%$.     ",
"             .CAi2@@@@2iAC.     ",
"             .CfeK@@@@KefC.     ",
"             .XgLP@@@@PLgX.     ",
"             .$%&*-@@-*&%$.     ",
"             .;IUY*++*YUI;.     ",
"             .TREWQLLQWERT.     ",
"              !J~^/ff/^~J!      ",
"              va7;CmmC;7av      ",
"               ...((((...       ",
"            .                   "
};
