/* XPM */
static char *result[] = {
/* columns rows colors chars-per-pixel */
"32 32 99 2 ",
"   c black",
".  c #020200",
"X  c #232300",
"o  c #5A5A00",
"O  c #9D9D00",
"+  c #DCDC00",
"@  c yellow",
"#  c #DDDD00",
"$  c #A2A200",
"%  c #5D5D00",
"&  c #222200",
"*  c #010100",
"=  c #FEFE00",
"-  c #5B5B00",
";  c #9E9E00",
":  c #A1A100",
">  c #212100",
",  c #E1E100",
"<  c #9F9F00",
"1  c #595900",
"2  c #1D1D00",
"3  c #242400",
"4  c #5E5E00",
"5  c #A3A300",
"6  c #E3E300",
"7  c #DBDB00",
"8  c #575700",
"9  c #1B1B00",
"0  c #DADA00",
"q  c #030300",
"w  c #FDFD00",
"e  c #1E1E00",
"r  c #4D4D00",
"t  c #878700",
"y  c #BEBE00",
"u  c #F7F700",
"i  c #FBFB00",
"p  c #E2E200",
"a  c #B1B100",
"s  c #757500",
"d  c #414100",
"f  c #252500",
"g  c #1C1C00",
"h  c #FAFA00",
"j  c #EFEF00",
"k  c #151500",
"l  c #373700",
"z  c #606000",
"x  c #8C8C00",
"c  c #AFAF00",
"v  c #D0D000",
"b  c #EBEB00",
"n  c #F8F800",
"m  c #CECE00",
"M  c #7A7A00",
"N  c #656500",
"B  c #636300",
"V  c #E5E500",
"C  c #C9C900",
"Z  c #B0B000",
"A  c #9C9C00",
"S  c #0C0C00",
"D  c #343400",
"F  c #515100",
"G  c #747400",
"H  c #CFCF00",
"J  c #F1F100",
"K  c #ECEC00",
"L  c #D1D100",
"P  c #B8B800",
"I  c #ABAB00",
"U  c #A7A700",
"Y  c #A8A800",
"T  c #AAAA00",
"R  c #F0F000",
"E  c #CACA00",
"W  c #545400",
"Q  c #040400",
"!  c #070700",
"~  c #0E0E00",
"^  c #1F1F00",
"/  c #404000",
"(  c #E0E000",
")  c #F9F900",
"_  c #EEEE00",
"`  c #DFDF00",
"'  c #717100",
"]  c #161600",
"[  c #BDBD00",
"{  c #888800",
"}  c #4F4F00",
"|  c #A6A600",
" . c #868600",
".. c #323200",
"X. c #363600",
"o. c #616100",
"O. c #353500",
"+. c #0B0B00",
"@. c white",
/* pixels */
"  . X o O + @ @ @ @ # $ % & *             * & % $ # = @ @ @ @ @ ",
"  . X o O + @ @ @ @ # $ % & *             * & % $ # = @ @ @ @ @ ",
"  . X o O + @ @ @ @ # $ % & *             * & % $ # = @ @ @ @ @ ",
"  . X o O + @ @ @ @ # $ % & *             * & % $ # = @ @ @ @ @ ",
"  . X o O + @ @ @ @ # $ % & *             * & % $ # = @ @ @ @ @ ",
"  . X o O + @ @ @ @ # $ % & *             * & % $ # = @ @ @ @ @ ",
"  . X o O + @ @ @ @ # $ % & *             * & % $ # = @ @ @ @ @ ",
"  . X o O + @ @ @ @ # $ % & *             * & % $ # = @ @ @ @ @ ",
"  . X o O + @ @ @ @ # $ % & *             * & % $ # = @ @ @ @ @ ",
"  . X o O + @ @ @ @ # $ % & *             * & % $ # = @ @ @ @ @ ",
"  . X o O + @ @ @ @ # $ % & *             * & % $ # = @ @ @ @ @ ",
"  . X o O + @ @ @ @ # $ % & *             * & % $ # = @ @ @ @ @ ",
"  . X o O + @ @ @ @ # $ % & *             * & % $ # = @ @ @ @ @ ",
"  . X o O + @ @ @ @ # $ % & *             * & % $ # = @ @ @ @ @ ",
"  . X o O + @ @ @ @ # $ % & *             * & % $ # = @ @ @ @ @ ",
"  . X o O + @ @ @ @ # $ % & *             * & % $ # = @ @ @ @ @ ",
"  . X o O + @ @ @ @ # $ % & *             * & % $ # = @ @ @ @ @ ",
"  . X o O + @ @ @ @ # $ % & *             * & % $ # = @ @ @ @ @ ",
"  . X - ; # @ @ @ @ + : % >                 > % : + = @ @ @ @ @ ",
"  . X % $ , @ @ @ @ + < 1 2                 2 1 < + @ @ @ @ @ @ ",
"  . 3 4 5 6 @ @ @ @ 7 ; 8 9                 9 8 ; 7 @ @ @ @ @ @ ",
"  . & o O 0 = @ @ @ # $ 4 3 q             q 3 4 $ # w @ @ @ = = ",
"  * e r t y , u @ i p a s d f g e X X e g f d s a p h h j p # 7 ",
"  * k l z x c v b n j m $ M N 4 z B B z 4 N M $ m j u V C Z $ A ",
"  * S 2 D F G $ H J i K L P I U Y T T Y U I P L K i R E A s 4 W ",
"    Q ! ~ ^ / s c ( n ) _ , 7 0 0 7 7 0 0 7 , _ ) n ` I ' / 3 ] ",
"          . ^ F x y 0 6 , 7 0 0 0 0 0 0 0 0 7 , 6 0 [ { } ^ q   ",
"            ~ D z t ; U U | | U | | | | U | | U U ;  .4 ..~     ",
"            ! g X.r - z o.z o.o.o.o.o.o.o.o.z o.z - r O.g !     ",
"            Q S k e X 3 3 3 3 3 3 3 3 3 3 3 3 3 3 X e k +.Q     ",
"              * * * . . . . . . . . . . . . . . . . * * *       ",
"                                                              * "
};
