/* XPM */
static char *result[] = {
/* columns rows colors chars-per-pixel */
"32 32 120 2 ",
"   c black",
".  c #020200",
"X  c #232300",
"o  c #5A5A00",
"O  c #9D9D00",
"+  c #DCDC00",
"@  c yellow",
"#  c #DDDD00",
"$  c #A2A200",
"%  c #5D5D00",
"&  c #222200",
"*  c #010100",
"=  c #FEFE00",
"-  c #A1A100",
";  c #212100",
":  c #9F9F00",
">  c #595900",
",  c #1D1D00",
"<  c #DBDB00",
"1  c #9E9E00",
"2  c #575700",
"3  c #1B1B00",
"4  c #5E5E00",
"5  c #242400",
"6  c #030300",
"7  c #5B5B00",
"8  c #E1E100",
"9  c #AFAF00",
"0  c #747400",
"q  c #404000",
"w  c #1F1F00",
"e  c #0D0D00",
"r  c #050500",
"t  c #EAEA00",
"y  c #C6C600",
"u  c #9C9C00",
"i  c #737300",
"p  c #505000",
"a  c #303000",
"s  c #161600",
"d  c #070700",
"f  c #A3A300",
"g  c #E3E300",
"h  c #F3F300",
"j  c #CACA00",
"k  c #ADAD00",
"l  c #8A8A00",
"z  c #2D2D00",
"x  c #0E0E00",
"c  c #DADA00",
"v  c #FDFD00",
"b  c #FBFB00",
"n  c #F8F800",
"m  c #F1F100",
"M  c #E0E000",
"N  c #BEBE00",
"B  c #858500",
"V  c #494900",
"C  c #202000",
"Z  c #1E1E00",
"A  c #4D4D00",
"S  c #878700",
"D  c #F9F900",
"F  c #FCFC00",
"G  c #DFDF00",
"H  c #A7A700",
"J  c #6B6B00",
"K  c #414100",
"L  c #E9E900",
"P  c #151500",
"I  c #373700",
"U  c #606000",
"Y  c #8C8C00",
"T  c #AEAE00",
"R  c #CCCC00",
"E  c #E5E500",
"W  c #F0F000",
"Q  c #C5C500",
"!  c #969600",
"~  c #757500",
"^  c #0C0C00",
"/  c #343400",
"(  c #515100",
")  c #DEDE00",
"_  c #C3C300",
"`  c #B0B000",
"'  c #C7C700",
"]  c #9A9A00",
"[  c #545400",
"{  c #040400",
"}  c #F2F200",
"|  c #E8E800",
" . c #E2E200",
".. c #AAAA00",
"X. c #707000",
"o. c #8B8B00",
"O. c #BFBF00",
"+. c #888800",
"@. c #4E4E00",
"#. c #333300",
"$. c #5F5F00",
"%. c #E6E600",
"&. c #313100",
"*. c #060600",
"=. c #191900",
"-. c #181800",
";. c #FAFA00",
":. c #CFCF00",
">. c #A4A400",
",. c #D2D200",
"<. c #7A7A00",
"1. c #B6B600",
"2. c #939300",
"3. c #BDBD00",
"4. c #383800",
"5. c #666600",
"6. c #868600",
"7. c #3A3A00",
"8. c #171700",
"9. c white",
/* pixels */
"  . X o O + @ @ @ @ # $ % & *             * & % $ # = @ @ @ @ @ ",
"  . X o O + @ @ @ @ # $ % & *             * & % $ # = @ @ @ @ @ ",
"  . X o O + @ @ @ @ # $ % & *             * & % $ # = @ @ @ @ @ ",
"  . X o O + @ @ @ @ # $ % & *             * & % $ # = @ @ @ @ @ ",
"  . X o O + @ @ @ @ # $ % & *             * & % $ # = @ @ @ @ @ ",
"  . X o O + @ @ @ @ # $ % & *             * & % $ # = @ @ @ @ @ ",
"  . X o O + @ @ @ @ + - % ;                 ; % - + = @ @ @ @ @ ",
"  . X o O + @ @ @ @ + : > ,                 , > : + = @ @ @ @ @ ",
"  . X o O + @ @ @ @ < 1 2 3                 3 2 1 < = @ @ @ @ @ ",
"  . X o O + @ @ @ @ # $ 4 5 6             6 5 4 $ # = @ @ @ @ @ ",
"  . X 7 1 # @ @ @ @ 8 9 0 q w e r 6 6 r e w q 0 9 8 = @ @ @ @ @ ",
"  . X % $ 8 @ @ @ @ t y u i p a s d d s a p i u y t @ @ @ @ @ @ ",
"  . 5 4 f g @ @ @ @ h 8 j k l 7 z x x z 7 l k j 8 h @ @ @ @ @ @ ",
"  . & o O c v @ @ @ b n m M N B V C C V B N M m n b @ @ @ = = = ",
"  * Z A S N M m D F @ @ @ v G H J K K J H G v @ @ @ b h L 8 # < ",
"  * P I U Y T R E D @ @ @ @ W Q ! ~ ~ ! Q W @ @ @ @ n G Q 9 $ u ",
"  * ^ , / ( 0 : R m @ @ @ @ n ) _ ` ` _ ) n @ @ @ @ W ' ] 0 4 [ ",
"    { d x w q 0 T M v @ @ @ b } |  . .| } b @ @ @ v G ..X.q 5 s ",
"          . w ( o.O.M m D F @ @ @ = = @ @ @ F D m M N +.@.w 6   ",
"*           x #.$.o.T R %.D @ @ @ @ @ @ @ @ D %.R T o.% &.x     ",
"            *.=.#.( 0 : R m @ @ @ @ @ @ @ @ m R : 0 p &.-.*.    ",
"            6 *.x w q 0 T M v @ @ @ @ @ @ v M T 0 q w e *.6     ",
"                  . w ( o.O.M } ;.F F ;.} M O.o.( w .           ",
"                    x #.$.o.9 :.L n n L :.9 o.$.#.x           * ",
"                    *.=.#.( ~ >.,.m m ,.>.~ ( #.=.*.            ",
"                    6 *.x w K <.1.G G 1.<.K w x *.6             ",
"                          . C 2 2.3.3.2.2 C .                   ",
"                            x 4.5.6.6.5.4.x                     ",
"                            d w 7.A A 7.w d                     ",
"                            { e 8.Z Z 8.e {                     ",
"                              * * * * * *                       ",
"                        *                     *                 "
};
