/* XPM */
static char *result[] = {
/* columns rows colors chars-per-pixel */
"32 32 184 2 ",
"   c black",
".  c #010000",
"X  c #A90000",
"o  c red",
"O  c #FB0000",
"+  c #FA0000",
"@  c #970000",
"#  c #0B0000",
"$  c #1A0000",
"%  c #1E0000",
"&  c #B30000",
"*  c #A30000",
"=  c #090000",
"-  c #020000",
";  c #620000",
":  c #FE0000",
">  c #4F0000",
",  c #140000",
"<  c #260000",
"1  c #810000",
"2  c #F60000",
"3  c #740000",
"4  c #280000",
"5  c #110000",
"6  c #3A0000",
"7  c #FC0000",
"8  c #0E0000",
"9  c #7E0000",
"0  c #FF0303",
"q  c #FF0606",
"w  c #FF0101",
"e  c #FF0202",
"r  c #290000",
"t  c #240000",
"y  c #F40000",
"u  c #FF4343",
"i  c #FF8282",
"p  c #FF7171",
"a  c #FF8181",
"s  c #FF1E1E",
"d  c #FF0808",
"f  c #FF2525",
"g  c #FF8383",
"h  c #FF3B3B",
"j  c #FF0505",
"k  c #F50000",
"l  c #170000",
"z  c #250000",
"x  c #F90000",
"c  c #FF8B8B",
"v  c white",
"b  c #FF2323",
"n  c #FF3737",
"m  c #FF7575",
"M  c #180000",
"N  c #2B0000",
"B  c #FA0303",
"V  c #FF3F3F",
"C  c #FFA1A1",
"Z  c #FBC4C4",
"A  c #F7FAFA",
"S  c #F8EDED",
"D  c #F7F9F9",
"F  c #FEACAC",
"G  c #FF9494",
"H  c #FF9F9F",
"J  c #FF0707",
"K  c #FF1717",
"L  c #FDAEAE",
"P  c #F8ECEC",
"I  c #FCBEBE",
"U  c #FFA2A2",
"Y  c #FF3535",
"T  c #FB0202",
"R  c #0F0000",
"E  c #F90505",
"W  c #FF6F6F",
"Q  c #FCFFFF",
"!  c #FEFFFF",
"~  c #FF0D0D",
"^  c #FF2929",
"/  c #FDFFFF",
"(  c #FF5C5C",
")  c #FB0404",
"_  c #BD0000",
"`  c #C40000",
"'  c #FE0505",
"]  c #FA5E5E",
"[  c #9B9191",
"{  c #303131",
"}  c #4D4C4C",
"|  c #323333",
" . c #D9D5D5",
".. c #FF0C0C",
"X. c #FD2222",
"o. c #CDC4C4",
"O. c #4E4D4D",
"+. c #2F3030",
"@. c #A89E9E",
"#. c #FB4E4E",
"$. c #FE0404",
"%. c #C20000",
"&. c #BA0000",
"*. c #0D0000",
"=. c #F85E5E",
"-. c #6D6666",
";. c #C8C8C8",
":. c #FC2222",
">. c #B7B1B1",
",. c #807979",
"<. c #F94E4E",
"1. c #FF0404",
"2. c #0C0000",
"3. c #F85F5F",
"4. c #787171",
"5. c gray6",
"6. c gray80",
"7. c #BCB7B7",
"8. c #111111",
"9. c #8A8282",
"0. c #766F6F",
"q. c #0B0B0B",
"w. c #CBCCCC",
"e. c #BBB7B7",
"r. c gray5",
"t. c #888181",
"y. c #786F6F",
"u. c #0E0E0E",
"i. c #CCCACA",
"p. c #BCB5B5",
"a. c #100F0F",
"s. c #898181",
"d. c #FE8C8C",
"f. c #FDF8F8",
"g. c #FF3636",
"h. c #FF4646",
"j. c #FDF7F7",
"k. c #FE7A7A",
"l. c #FF7C7C",
"z. c #FFDDDD",
"x. c #FFFEFE",
"c. c #FF2E2E",
"v. c #FF3C3C",
"b. c #FFDCDC",
"n. c #FF6B6B",
"m. c #FD0000",
"M. c #F80000",
"N. c #F70000",
"B. c #CD0000",
"V. c #200000",
"C. c #910000",
"Z. c #4C0000",
"A. c #410000",
"S. c #3C0000",
"D. c #5E0000",
"F. c #840000",
"G. c #D70000",
"H. c #CA0000",
"J. c #6A0000",
"K. c #190000",
"L. c #560000",
"P. c #DB0000",
"I. c #DC0000",
"U. c #210000",
"Y. c #120000",
"T. c #980000",
"R. c #F30000",
"E. c #510000",
"W. c #050000",
"Q. c #0A0000",
"!. c #F20000",
"~. c #890000",
"^. c #130000",
"/. c #220000",
"(. c #1B0000",
"). c #E90000",
"_. c #870000",
"`. c #2C0000",
"'. c #3D0000",
"]. c #EB0000",
"[. c #070000",
"{. c #030000",
"}. c #040000",
"|. c #060000",
/* pixels */
"          .         X o O o o o o o o o + o @         .         ",
"        .   # $ %   & o O o o o o o o o O o *   % $ =   .       ",
"      . -   ; o o o o : o o o o o o o o o : o o o o >   . .     ",
"    . . , < 1 o 2 O : o o o o o o o o o o o : O 2 o 3 4 5 . .   ",
"  .     6 o o 7 o o o o o o o o o o o o o o o o o 7 o o 4     . ",
"    8 > 9 o 2 o 0 q q q w o o o o o o o e q q q 0 o 2 o 3 > =   ",
".   r o o 7 o 0 o o o o o w o o o o o e o o o o o 0 o 7 o o $   ",
".   t o y o q o u i p a s w d o o o e o f i p g h o j o k o l   ",
".   z o x 0 o o c v v v b o o o o w o o n v v v m o o e O o M   ",
"-   N o B o V C Z A S D F G H J o o K H L A P A I U Y o T o %   ",
"    R o E o W Q v v v v v ! v ~ o o ^ / v v v v v Q ( o ) o     ",
"= _ ` o ' o ] v [ { } |  .v ! ..o o X.v o.{ O.+.@.v #.o $.o %.&.",
"*.o o : j o =.v -.      ;.v / ..o o :.v >.      ,.v <.o 1.: o o ",
"2.o O o j o 3.v 4.  5.  6.v / ..o o :.v 7.  8.  9.v <.o 1.o 7 7 ",
"2.o : o j o 3.v 0.  q.  w.v / ..o o :.v e.  r.  t.v <.o 1.o o o ",
"2.o : o j o =.v y.  u.  i.v / ..o o :.v p.  a.  s.v <.o 1.o o o ",
"2.o : o o o J o d./ f./ g.o 1.o o o 0 o h./ j./ k.o J o o o o o ",
"2.o : o o o q o l.v z.x.c.o o o o o e o v.v b.v n.o j o o o o o ",
"2.o : o o o o e o o o o o w o o o o o w o o o o o w o o o o o o ",
"2.o : o o o o o e 1.1.1.w o o o o o o o w 1.1.1.e o o o o o o o ",
"2.o : o o o o o o o o o o o o o o o o o o o o o o o o o o o o o ",
"2.o : o o o o o o o o o o o o o o o o o o o o o o o o o o o o o ",
"2.o : o o o o o o o o o o o o o o o o o o o o o o o o o o o o o ",
"2.o : o o o o o o o o o o o o o o o o o o o o o o o o o o o o o ",
"2.o : o o o o o o o o o o o o o o o o o o o o o o o o o o o o o ",
"2.o : o m.2 O o o o o o o o o M.M.N.x o o o o o o o + 2 : o o o ",
"2.o : m.o o o 7 o o o o o o : o o o o m.o o o o o 7 o o o : o o ",
"2.o O o B.V.C.o N.o o o O M.: Z.A.S.D.o N.o o o N.o F.t G.o m.o ",
"2.o m.o H.  J.o o m.o m.o o o       K.o o m.o m.o o L.  P.o o : ",
"# o I.l U.  l Y.T.o R.o E.K.4 W.- . Q.K.D.o !.o ~.^.,   /.(.).o ",
"# o I.    - -   _.o N.o `.          .   '.o 2 o 3   - -     ].o ",
". *.Q.  .   .   [.*.2.*.{.. .         . }.*.2.*.|.  .   . . # 2."
};
